<svg version="1.1" xmlns="http://www.w3.org/2000/svg" viewBox="0 0 230 230" xml:space="preserve">
<path fill="#050708" d="M1.000000,104.333328 C6.710328,103.000580 12.385460,101.648514 18.138229,101.074356 C30.532415,99.837372 42.969128,99.031219 55.382889,97.983086 C59.792332,97.610771 64.185699,97.048096 69.532822,96.470001 C66.929390,93.027428 64.605133,89.681900 62.006371,86.565254 C51.437267,73.889931 40.798389,61.272655 30.154669,48.659775 C25.898621,43.616325 25.863638,43.639893 30.702793,38.794125 C33.527283,35.965775 36.221424,32.984997 39.252930,30.399607 C40.129230,29.652264 42.510246,29.372837 43.289513,30.004284 C53.565468,38.330978 63.665020,46.874966 73.836586,55.331047 C80.356918,60.751694 86.923210,66.117065 94.081192,72.011436 C94.747971,66.834961 95.544106,61.999443 95.964188,57.131470 C97.063850,44.388721 97.990074,31.631069 99.005852,18.880985 C99.304855,15.127816 99.601967,11.371983 100.034058,7.632868 C100.296761,5.359532 101.170586,3.828685 104.047081,3.935792 C109.848427,4.151809 115.663452,4.000138 121.906403,4.000138 C124.059082,26.625238 126.191055,49.032738 128.386993,72.112556 C145.949005,57.593258 163.340790,43.214703 180.717422,28.848663 C185.875290,34.066036 190.849731,39.097866 195.925888,44.232586 C181.790527,61.249416 167.524033,78.424126 152.607132,96.381836 C175.746902,98.598251 198.206085,100.749474 220.810181,102.914574 C220.810181,109.931168 220.810181,116.560997 220.810181,124.197029 C198.473358,126.275322 175.935028,128.372360 152.825409,130.522568 C154.839813,133.136780 156.757996,135.802246 158.855164,138.318588 C170.774261,152.620117 182.713120,166.905411 194.710922,181.140869 C196.311584,183.040070 196.395477,183.733170 194.160690,185.592880 C189.591812,189.394958 185.710068,194.022766 181.258865,198.605438 C163.505249,183.932083 146.097992,169.544983 128.377548,154.899017 C126.204765,177.834427 124.085136,200.208786 121.926117,222.998871 C115.597351,222.998871 109.456833,223.229538 103.362274,222.803146 C102.151550,222.718445 100.285812,220.198532 100.132599,218.661026 C98.897385,206.266586 98.021477,193.836700 96.990967,181.421371 C96.368065,173.916824 95.703629,166.415100 94.959511,158.921875 C94.839424,157.712616 94.204788,156.554459 93.741638,155.175034 C80.719276,166.047134 67.833282,176.816467 54.933029,187.568680 C51.174515,190.701355 47.490746,193.947754 43.511269,196.773880 C42.551960,197.455170 40.035694,197.259415 39.120365,196.457245 C35.371376,193.171661 31.820593,189.621750 28.535322,185.872559 C27.735201,184.959457 27.520784,182.358765 28.222136,181.482147 C37.391258,170.021637 46.784832,158.740967 56.097519,147.394989 C60.577312,141.937119 65.005600,136.436966 69.940735,130.360641 C59.324413,129.511353 49.855690,128.962799 40.436954,127.949577 C27.526257,126.560730 14.653493,124.819260 1.382236,123.114456 C1.000000,122.555557 1.000000,122.111107 1.406505,121.166672 C1.542006,115.777779 1.271003,110.888893 1.000000,106.000000 C1.000000,105.555557 1.000000,105.111107 1.000000,104.333328 z"/>
</svg>
