<svg version="1.1" id="Layer_1" xmlns="http://www.w3.org/2000/svg" xmlns:xlink="http://www.w3.org/1999/xlink" x="0px" y="0px"
	 width="100%" viewBox="0 0 1250 225" enable-background="new 0 0 1250 225" xml:space="preserve">
<path fill="#FFFFFF" opacity="1.000000" stroke="none" 
	d="
M1.000000,104.000000 
	C1.000000,69.676796 1.000000,35.353584 1.000000,1.050410 
	C417.666656,1.050410 834.333313,1.050410 1251.000000,1.050410 
	C1251.000000,40.422558 1251.000000,79.744293 1250.607178,119.384979 
	C1249.140991,112.653610 1248.756226,105.410011 1246.843750,98.595230 
	C1243.393311,86.300476 1237.518677,75.425453 1226.974609,67.265427 
	C1218.353638,60.593643 1208.704346,57.232491 1198.250488,55.714054 
	C1184.920044,53.777794 1171.801025,54.290180 1160.285767,62.355492 
	C1154.835938,66.172600 1150.000977,70.867470 1144.743530,75.285652 
	C1144.743530,51.676170 1144.743530,27.932756 1144.743530,4.303370 
	C1131.991211,4.303370 1119.588379,4.303370 1107.281982,4.303370 
	C1107.281982,77.326691 1107.281982,150.046326 1107.281982,222.716522 
	C1119.968384,222.716522 1132.370728,222.716522 1145.000000,222.716522 
	C1145.000000,220.795639 1145.000000,219.150818 1145.000000,217.506012 
	C1145.000000,186.683716 1144.830200,155.860062 1145.080078,125.039787 
	C1145.186279,111.946907 1150.331299,101.105019 1161.895996,94.018188 
	C1172.491211,87.525314 1183.834717,86.716064 1194.742065,92.137184 
	C1206.306396,97.884773 1211.818481,108.405144 1211.917358,121.151360 
	C1212.166748,153.304565 1212.000000,185.461014 1212.000000,217.616165 
	C1212.000000,219.368942 1212.000000,221.121719 1212.000000,222.883301 
	C1224.970581,222.883301 1237.277588,222.883301 1249.392944,222.883301 
	C1249.974609,221.477814 1250.487305,220.238922 1251.000000,219.000015 
	C1251.000000,221.328766 1251.000000,223.657516 1251.000000,225.993134 
	C1179.644653,226.000000 1108.289307,226.000000 1036.621826,225.602036 
	C1041.620972,224.468964 1047.058960,224.227707 1052.218628,222.902527 
	C1065.590454,219.468063 1077.561646,213.520340 1086.289551,202.239075 
	C1094.402710,191.752258 1095.234131,179.480804 1093.779419,167.272430 
	C1091.995361,152.298157 1083.656372,140.876968 1069.608521,135.165802 
	C1058.231567,130.540604 1046.235474,127.331039 1034.348511,124.102943 
	C1024.911987,121.540321 1015.115967,120.340256 1006.512146,115.120094 
	C1001.304077,111.960175 998.003540,107.986626 999.010681,101.546700 
	C999.847473,96.195946 1003.476440,93.277328 1008.020935,90.931953 
	C1015.416016,87.115379 1023.398560,87.460762 1031.114502,88.194283 
	C1039.572021,88.998299 1046.983887,92.627251 1051.084229,100.949562 
	C1051.541992,101.878487 1052.969116,102.900620 1053.956787,102.910927 
	C1066.590088,103.042801 1079.225098,102.997932 1092.473999,102.997932 
	C1089.151855,89.702469 1084.039307,78.318810 1073.381714,69.744202 
	C1062.266357,60.801342 1049.475342,56.260769 1035.637817,55.199856 
	C1026.308838,54.484627 1016.774170,55.114193 1007.440063,56.134792 
	C994.809753,57.515800 983.579712,62.799225 974.170044,71.396751 
	C962.910400,81.684769 958.407654,94.700600 960.037354,109.763680 
	C961.409241,122.443932 966.901062,132.596085 977.538330,140.364914 
	C987.636353,147.739929 999.281128,150.561768 1010.794495,153.926437 
	C1022.180298,157.253815 1033.852051,159.625015 1045.176025,163.133133 
	C1051.504517,165.093674 1055.619629,169.797775 1055.111328,175.922836 
	C1054.574463,182.390244 1050.871826,187.982498 1043.578613,189.894745 
	C1034.813110,192.193115 1026.003784,193.967987 1016.682434,192.129776 
	C1005.894348,190.002350 997.966980,185.043121 994.496887,174.208298 
	C981.060791,174.215302 967.625122,174.215302 953.956970,174.215302 
	C954.685120,176.771408 955.329163,179.073486 955.996582,181.368744 
	C962.248474,202.868042 976.232544,216.521133 997.810303,222.335999 
	C1003.148315,223.774475 1008.600403,224.790024 1014.000000,226.000000 
	C909.644653,226.000000 805.289307,226.000000 700.607788,225.612793 
	C716.046936,223.543304 728.193542,215.660828 737.865173,202.631943 
	C738.996277,208.680634 739.881714,214.080521 741.090210,219.407120 
	C741.388794,220.723297 742.712219,222.812500 743.606079,222.834152 
	C753.687622,223.078583 763.777283,222.988953 773.682007,222.988953 
	C773.682007,167.620178 773.682007,112.890656 773.682007,58.321167 
	C760.957397,58.321167 748.552856,58.321167 736.000000,58.321167 
	C736.000000,91.288086 735.712402,123.937828 736.139282,156.578232 
	C736.313782,169.917267 725.721130,187.138229 711.211426,190.487610 
	C698.543274,193.411896 687.327637,191.838974 678.030457,182.414978 
	C671.581604,175.878281 669.143799,167.370560 669.083679,158.478607 
	C668.869568,126.820595 669.000000,95.160248 669.000000,63.500786 
	C669.000000,61.736603 669.000000,59.972416 669.000000,58.293736 
	C656.013123,58.293736 643.609375,58.293736 631.000000,58.293736 
	C631.000000,89.059303 630.846863,119.532837 631.091919,150.003189 
	C631.166931,159.333282 631.447449,168.823929 633.189026,177.944107 
	C636.638916,196.010635 646.062622,210.500122 662.943115,218.838089 
	C669.533386,222.093292 676.956299,223.662735 684.000000,226.000000 
	C639.644653,226.000000 595.289307,226.000000 550.616821,225.605835 
	C553.200623,224.808334 556.124268,224.525558 558.998840,223.982559 
	C582.471985,219.548508 599.772949,206.296402 609.739136,185.014938 
	C619.242493,164.721756 620.765503,142.958450 617.130981,120.702896 
	C613.885864,100.832092 606.671570,83.180092 590.152588,70.991951 
	C582.793030,65.561867 574.205505,61.296391 565.564514,58.215393 
	C551.220215,53.100853 536.193970,53.338055 521.263062,56.014114 
	C507.303436,58.516087 494.916809,64.283585 484.477081,74.024559 
	C467.799103,89.586281 461.837646,109.808212 460.128876,131.571655 
	C459.165161,143.846024 459.927704,156.209366 463.026489,168.239975 
	C469.850525,194.733444 485.096558,213.705719 511.928406,221.963318 
	C517.504883,223.679489 523.303650,224.673279 529.000000,226.000000 
	C353.121094,226.000000 177.242203,226.000000 1.000000,226.000000 
	C1.000000,191.978851 1.000000,157.956421 1.382236,123.581451 
	C14.653493,124.819260 27.526257,126.560730 40.436954,127.949577 
	C49.855690,128.962799 59.324413,129.511353 69.940735,130.360641 
	C65.005600,136.436966 60.577312,141.937119 56.097519,147.394989 
	C46.784832,158.740967 37.391258,170.021637 28.222136,181.482147 
	C27.520784,182.358765 27.735201,184.959457 28.535322,185.872559 
	C31.820593,189.621750 35.371376,193.171661 39.120365,196.457245 
	C40.035694,197.259415 42.551960,197.455170 43.511269,196.773880 
	C47.490746,193.947754 51.174515,190.701355 54.933029,187.568680 
	C67.833282,176.816467 80.719276,166.047134 93.741638,155.175034 
	C94.204788,156.554459 94.839424,157.712616 94.959511,158.921875 
	C95.703629,166.415100 96.368065,173.916824 96.990967,181.421371 
	C98.021477,193.836700 98.897385,206.266586 100.132599,218.661026 
	C100.285812,220.198532 102.151550,222.718445 103.362274,222.803146 
	C109.456833,223.229538 115.597351,222.998871 121.926117,222.998871 
	C124.085136,200.208786 126.204765,177.834427 128.377548,154.899017 
	C146.097992,169.544983 163.505249,183.932083 181.258865,198.605438 
	C185.710068,194.022766 189.591812,189.394958 194.160690,185.592880 
	C196.395477,183.733170 196.311584,183.040070 194.710922,181.140869 
	C182.713120,166.905411 170.774261,152.620117 158.855164,138.318588 
	C156.757996,135.802246 154.839813,133.136780 152.825409,130.522568 
	C175.935028,128.372360 198.473358,126.275322 220.810181,124.197029 
	C220.810181,116.560997 220.810181,109.931168 220.810181,102.914574 
	C198.206085,100.749474 175.746902,98.598251 152.607132,96.381836 
	C167.524033,78.424126 181.790527,61.249416 195.925888,44.232586 
	C190.849731,39.097866 185.875290,34.066036 180.717422,28.848663 
	C163.340790,43.214703 145.949005,57.593258 128.386993,72.112556 
	C126.191055,49.032738 124.059082,26.625238 121.906403,4.000138 
	C115.663452,4.000138 109.848427,4.151809 104.047081,3.935792 
	C101.170586,3.828685 100.296761,5.359532 100.034058,7.632868 
	C99.601967,11.371983 99.304855,15.127816 99.005852,18.880985 
	C97.990074,31.631069 97.063850,44.388721 95.964188,57.131470 
	C95.544106,61.999443 94.747971,66.834961 94.081192,72.011436 
	C86.923210,66.117065 80.356918,60.751694 73.836586,55.331047 
	C63.665020,46.874966 53.565468,38.330978 43.289513,30.004284 
	C42.510246,29.372837 40.129230,29.652264 39.252930,30.399607 
	C36.221424,32.984997 33.527283,35.965775 30.702793,38.794125 
	C25.863638,43.639893 25.898621,43.616325 30.154669,48.659775 
	C40.798389,61.272655 51.437267,73.889931 62.006371,86.565254 
	C64.605133,89.681900 66.929390,93.027428 69.532822,96.470001 
	C64.185699,97.048096 59.792332,97.610771 55.382889,97.983086 
	C42.969128,99.031219 30.532415,99.837372 18.138229,101.074356 
	C12.385460,101.648514 6.710328,103.000580 1.000000,104.000000 
M251.000000,19.503313 
	C251.000000,87.255508 251.000000,155.007706 251.000000,222.717865 
	C264.962708,222.717865 278.366302,222.717865 292.165222,222.717865 
	C292.165222,193.701477 292.165222,164.965057 292.165222,135.834671 
	C324.632172,135.834671 356.701233,135.834671 388.713928,135.834671 
	C388.713928,123.695976 388.713928,111.958595 388.713928,99.827545 
	C356.360626,99.827545 324.291565,99.827545 292.288086,99.827545 
	C292.288086,80.024445 292.288086,60.621834 292.288086,40.823990 
	C326.976410,40.823990 361.378326,40.823990 395.708862,40.823990 
	C395.708862,28.352354 395.708862,16.281626 395.708862,4.287610 
	C347.352234,4.287610 299.287231,4.287610 251.000000,4.287610 
	C251.000000,9.217168 251.000000,13.860954 251.000000,19.503313 
M832.000000,157.500000 
	C832.000000,149.339767 831.706055,141.165741 832.087708,133.023392 
	C832.427917,125.764626 833.938354,118.700859 838.065369,112.415245 
	C846.644165,99.349380 859.494446,94.737717 874.269104,94.044304 
	C880.040283,93.773453 885.834839,94.000000 891.799561,94.000000 
	C891.799561,81.860535 891.799561,70.129181 891.799561,57.238842 
	C880.259644,58.070915 868.951965,58.560551 857.724304,59.784595 
	C845.762756,61.088657 837.351929,68.492134 830.462341,78.200005 
	C829.062866,70.967720 827.816284,64.525711 826.620422,58.345787 
	C815.558289,58.345787 804.826843,58.345787 794.306702,58.345787 
	C794.306702,113.400063 794.306702,168.108231 794.306702,222.697372 
	C807.014648,222.697372 819.413879,222.697372 832.000000,222.697372 
	C832.000000,201.096878 832.000000,179.798431 832.000000,157.500000 
M409.000000,151.500000 
	C409.000000,175.260437 409.000000,199.020859 409.000000,222.707840 
	C421.982117,222.707840 434.386627,222.707840 446.712280,222.707840 
	C446.712280,149.684372 446.712280,76.953430 446.712280,4.292130 
	C434.017975,4.292130 421.613464,4.292130 409.000000,4.292130 
	C409.000000,53.222630 409.000000,101.861313 409.000000,151.500000 
M941.000000,120.500000 
	C941.000000,99.739655 941.000000,78.979309 941.000000,58.291290 
	C928.352356,58.291290 916.281433,58.291290 904.287292,58.291290 
	C904.287292,113.314346 904.287292,168.045639 904.287292,222.708710 
	C916.647583,222.708710 928.718506,222.708710 941.000000,222.708710 
	C941.000000,188.778595 941.000000,155.139297 941.000000,120.500000 
M903.000000,19.502893 
	C903.000000,25.932640 903.000000,32.362385 903.000000,38.711220 
	C915.981384,38.711220 928.382751,38.711220 940.710815,38.711220 
	C940.710815,27.018347 940.710815,15.616467 940.710815,4.288984 
	C928.018188,4.288984 915.616760,4.288984 903.000000,4.288984 
	C903.000000,9.218967 903.000000,13.861758 903.000000,19.502893 
z"/>
<path fill="#050708" opacity="1.000000" stroke="none" 
	d="
M1.000000,104.333328 
	C6.710328,103.000580 12.385460,101.648514 18.138229,101.074356 
	C30.532415,99.837372 42.969128,99.031219 55.382889,97.983086 
	C59.792332,97.610771 64.185699,97.048096 69.532822,96.470001 
	C66.929390,93.027428 64.605133,89.681900 62.006371,86.565254 
	C51.437267,73.889931 40.798389,61.272655 30.154669,48.659775 
	C25.898621,43.616325 25.863638,43.639893 30.702793,38.794125 
	C33.527283,35.965775 36.221424,32.984997 39.252930,30.399607 
	C40.129230,29.652264 42.510246,29.372837 43.289513,30.004284 
	C53.565468,38.330978 63.665020,46.874966 73.836586,55.331047 
	C80.356918,60.751694 86.923210,66.117065 94.081192,72.011436 
	C94.747971,66.834961 95.544106,61.999443 95.964188,57.131470 
	C97.063850,44.388721 97.990074,31.631069 99.005852,18.880985 
	C99.304855,15.127816 99.601967,11.371983 100.034058,7.632868 
	C100.296761,5.359532 101.170586,3.828685 104.047081,3.935792 
	C109.848427,4.151809 115.663452,4.000138 121.906403,4.000138 
	C124.059082,26.625238 126.191055,49.032738 128.386993,72.112556 
	C145.949005,57.593258 163.340790,43.214703 180.717422,28.848663 
	C185.875290,34.066036 190.849731,39.097866 195.925888,44.232586 
	C181.790527,61.249416 167.524033,78.424126 152.607132,96.381836 
	C175.746902,98.598251 198.206085,100.749474 220.810181,102.914574 
	C220.810181,109.931168 220.810181,116.560997 220.810181,124.197029 
	C198.473358,126.275322 175.935028,128.372360 152.825409,130.522568 
	C154.839813,133.136780 156.757996,135.802246 158.855164,138.318588 
	C170.774261,152.620117 182.713120,166.905411 194.710922,181.140869 
	C196.311584,183.040070 196.395477,183.733170 194.160690,185.592880 
	C189.591812,189.394958 185.710068,194.022766 181.258865,198.605438 
	C163.505249,183.932083 146.097992,169.544983 128.377548,154.899017 
	C126.204765,177.834427 124.085136,200.208786 121.926117,222.998871 
	C115.597351,222.998871 109.456833,223.229538 103.362274,222.803146 
	C102.151550,222.718445 100.285812,220.198532 100.132599,218.661026 
	C98.897385,206.266586 98.021477,193.836700 96.990967,181.421371 
	C96.368065,173.916824 95.703629,166.415100 94.959511,158.921875 
	C94.839424,157.712616 94.204788,156.554459 93.741638,155.175034 
	C80.719276,166.047134 67.833282,176.816467 54.933029,187.568680 
	C51.174515,190.701355 47.490746,193.947754 43.511269,196.773880 
	C42.551960,197.455170 40.035694,197.259415 39.120365,196.457245 
	C35.371376,193.171661 31.820593,189.621750 28.535322,185.872559 
	C27.735201,184.959457 27.520784,182.358765 28.222136,181.482147 
	C37.391258,170.021637 46.784832,158.740967 56.097519,147.394989 
	C60.577312,141.937119 65.005600,136.436966 69.940735,130.360641 
	C59.324413,129.511353 49.855690,128.962799 40.436954,127.949577 
	C27.526257,126.560730 14.653493,124.819260 1.382236,123.114456 
	C1.000000,122.555557 1.000000,122.111107 1.406505,121.166672 
	C1.542006,115.777779 1.271003,110.888893 1.000000,106.000000 
	C1.000000,105.555557 1.000000,105.111107 1.000000,104.333328 
z"/>
<path fill="#050708" opacity="1.000000" stroke="none" 
	d="
M1251.000000,218.555847 
	C1250.487305,220.238922 1249.974609,221.477814 1249.392944,222.883301 
	C1237.277588,222.883301 1224.970581,222.883301 1212.000000,222.883301 
	C1212.000000,221.121719 1212.000000,219.368942 1212.000000,217.616165 
	C1212.000000,185.461014 1212.166748,153.304565 1211.917358,121.151360 
	C1211.818481,108.405144 1206.306396,97.884773 1194.742065,92.137184 
	C1183.834717,86.716064 1172.491211,87.525314 1161.895996,94.018188 
	C1150.331299,101.105019 1145.186279,111.946907 1145.080078,125.039787 
	C1144.830200,155.860062 1145.000000,186.683716 1145.000000,217.506012 
	C1145.000000,219.150818 1145.000000,220.795639 1145.000000,222.716522 
	C1132.370728,222.716522 1119.968384,222.716522 1107.281982,222.716522 
	C1107.281982,150.046326 1107.281982,77.326691 1107.281982,4.303370 
	C1119.588379,4.303370 1131.991211,4.303370 1144.743530,4.303370 
	C1144.743530,27.932756 1144.743530,51.676170 1144.743530,75.285652 
	C1150.000977,70.867470 1154.835938,66.172600 1160.285767,62.355492 
	C1171.801025,54.290180 1184.920044,53.777794 1198.250488,55.714054 
	C1208.704346,57.232491 1218.353638,60.593643 1226.974609,67.265427 
	C1237.518677,75.425453 1243.393311,86.300476 1246.843750,98.595230 
	C1248.756226,105.410011 1249.140991,112.653610 1250.607178,119.851967 
	C1251.000000,122.041664 1251.000000,124.083336 1250.592041,126.731140 
	C1250.123657,154.581512 1250.056519,181.825745 1250.044922,209.070007 
	C1250.044678,209.713196 1250.667725,210.356659 1251.000000,211.000000 
	C1251.000000,213.370560 1251.000000,215.741104 1251.000000,218.555847 
z"/>
<path fill="#050708" opacity="1.000000" stroke="none" 
	d="
M529.468506,226.000000 
	C523.303650,224.673279 517.504883,223.679489 511.928406,221.963318 
	C485.096558,213.705719 469.850525,194.733444 463.026489,168.239975 
	C459.927704,156.209366 459.165161,143.846024 460.128876,131.571655 
	C461.837646,109.808212 467.799103,89.586281 484.477081,74.024559 
	C494.916809,64.283585 507.303436,58.516087 521.263062,56.014114 
	C536.193970,53.338055 551.220215,53.100853 565.564514,58.215393 
	C574.205505,61.296391 582.793030,65.561867 590.152588,70.991951 
	C606.671570,83.180092 613.885864,100.832092 617.130981,120.702896 
	C620.765503,142.958450 619.242493,164.721756 609.739136,185.014938 
	C599.772949,206.296402 582.471985,219.548508 558.998840,223.982559 
	C556.124268,224.525558 553.200623,224.808334 550.149841,225.605835 
	C543.312378,226.000000 536.624695,226.000000 529.468506,226.000000 
M498.999786,155.396759 
	C499.992279,158.939423 500.831360,162.533600 502.001495,166.016586 
	C511.254608,193.558990 545.987366,200.286240 566.562683,181.743530 
	C577.013733,172.324890 580.322510,159.153137 580.754272,145.737732 
	C581.044128,136.727692 580.054810,127.369408 577.801270,118.641136 
	C570.512573,90.411530 539.875000,81.388451 517.586487,95.074936 
	C507.908386,101.017876 502.597321,110.345917 499.947784,121.360222 
	C497.296600,132.381531 497.293152,143.398499 498.999786,155.396759 
z"/>
<path fill="#050708" opacity="1.000000" stroke="none" 
	d="
M684.466858,226.000000 
	C676.956299,223.662735 669.533386,222.093292 662.943115,218.838089 
	C646.062622,210.500122 636.638916,196.010635 633.189026,177.944107 
	C631.447449,168.823929 631.166931,159.333282 631.091919,150.003189 
	C630.846863,119.532837 631.000000,89.059303 631.000000,58.293736 
	C643.609375,58.293736 656.013123,58.293736 669.000000,58.293736 
	C669.000000,59.972416 669.000000,61.736603 669.000000,63.500786 
	C669.000000,95.160248 668.869568,126.820595 669.083679,158.478607 
	C669.143799,167.370560 671.581604,175.878281 678.030457,182.414978 
	C687.327637,191.838974 698.543274,193.411896 711.211426,190.487610 
	C725.721130,187.138229 736.313782,169.917267 736.139282,156.578232 
	C735.712402,123.937828 736.000000,91.288086 736.000000,58.321167 
	C748.552856,58.321167 760.957397,58.321167 773.682007,58.321167 
	C773.682007,112.890656 773.682007,167.620178 773.682007,222.988953 
	C763.777283,222.988953 753.687622,223.078583 743.606079,222.834152 
	C742.712219,222.812500 741.388794,220.723297 741.090210,219.407120 
	C739.881714,214.080521 738.996277,208.680634 737.865173,202.631943 
	C728.193542,215.660828 716.046936,223.543304 700.140747,225.612793 
	C694.977905,226.000000 689.955811,226.000000 684.466858,226.000000 
z"/>
<path fill="#050708" opacity="1.000000" stroke="none" 
	d="
M1014.468567,226.000000 
	C1008.600403,224.790024 1003.148315,223.774475 997.810303,222.335999 
	C976.232544,216.521133 962.248474,202.868042 955.996582,181.368744 
	C955.329163,179.073486 954.685120,176.771408 953.956970,174.215302 
	C967.625122,174.215302 981.060791,174.215302 994.496887,174.208298 
	C997.966980,185.043121 1005.894348,190.002350 1016.682434,192.129776 
	C1026.003784,193.967987 1034.813110,192.193115 1043.578613,189.894745 
	C1050.871826,187.982498 1054.574463,182.390244 1055.111328,175.922836 
	C1055.619629,169.797775 1051.504517,165.093674 1045.176025,163.133133 
	C1033.852051,159.625015 1022.180298,157.253815 1010.794495,153.926437 
	C999.281128,150.561768 987.636353,147.739929 977.538330,140.364914 
	C966.901062,132.596085 961.409241,122.443932 960.037354,109.763680 
	C958.407654,94.700600 962.910400,81.684769 974.170044,71.396751 
	C983.579712,62.799225 994.809753,57.515800 1007.440063,56.134792 
	C1016.774170,55.114193 1026.308838,54.484627 1035.637817,55.199856 
	C1049.475342,56.260769 1062.266357,60.801342 1073.381714,69.744202 
	C1084.039307,78.318810 1089.151855,89.702469 1092.473999,102.997932 
	C1079.225098,102.997932 1066.590088,103.042801 1053.956787,102.910927 
	C1052.969116,102.900620 1051.541992,101.878487 1051.084229,100.949562 
	C1046.983887,92.627251 1039.572021,88.998299 1031.114502,88.194283 
	C1023.398560,87.460762 1015.416016,87.115379 1008.020935,90.931953 
	C1003.476440,93.277328 999.847473,96.195946 999.010681,101.546700 
	C998.003540,107.986626 1001.304077,111.960175 1006.512146,115.120094 
	C1015.115967,120.340256 1024.911987,121.540321 1034.348511,124.102943 
	C1046.235474,127.331039 1058.231567,130.540604 1069.608521,135.165802 
	C1083.656372,140.876968 1091.995361,152.298157 1093.779419,167.272430 
	C1095.234131,179.480804 1094.402710,191.752258 1086.289551,202.239075 
	C1077.561646,213.520340 1065.590454,219.468063 1052.218628,222.902527 
	C1047.058960,224.227707 1041.620972,224.468964 1036.154907,225.602036 
	C1028.979004,226.000000 1021.958069,226.000000 1014.468567,226.000000 
z"/>
<path fill="#FFFFFF" opacity="1.000000" stroke="none" 
	d="
M1251.000000,210.531342 
	C1250.667725,210.356659 1250.044678,209.713196 1250.044922,209.070007 
	C1250.056519,181.825745 1250.123657,154.581512 1250.592041,127.168640 
	C1251.000000,154.687561 1251.000000,182.375122 1251.000000,210.531342 
z"/>
<path fill="#FFFFFF" opacity="1.000000" stroke="none" 
	d="
M1.000000,106.466118 
	C1.271003,110.888893 1.542006,115.777779 1.406505,120.833336 
	C1.000000,116.310745 1.000000,111.621490 1.000000,106.466118 
z"/>
<path fill="#050708" opacity="1.000000" stroke="none" 
	d="
M251.000000,19.004028 
	C251.000000,13.860954 251.000000,9.217168 251.000000,4.287610 
	C299.287231,4.287610 347.352234,4.287610 395.708862,4.287610 
	C395.708862,16.281626 395.708862,28.352354 395.708862,40.823990 
	C361.378326,40.823990 326.976410,40.823990 292.288086,40.823990 
	C292.288086,60.621834 292.288086,80.024445 292.288086,99.827545 
	C324.291565,99.827545 356.360626,99.827545 388.713928,99.827545 
	C388.713928,111.958595 388.713928,123.695976 388.713928,135.834671 
	C356.701233,135.834671 324.632172,135.834671 292.165222,135.834671 
	C292.165222,164.965057 292.165222,193.701477 292.165222,222.717865 
	C278.366302,222.717865 264.962708,222.717865 251.000000,222.717865 
	C251.000000,155.007706 251.000000,87.255508 251.000000,19.004028 
z"/>
<path fill="#050708" opacity="1.000000" stroke="none" 
	d="
M832.000000,158.000000 
	C832.000000,179.798431 832.000000,201.096878 832.000000,222.697372 
	C819.413879,222.697372 807.014648,222.697372 794.306702,222.697372 
	C794.306702,168.108231 794.306702,113.400063 794.306702,58.345787 
	C804.826843,58.345787 815.558289,58.345787 826.620422,58.345787 
	C827.816284,64.525711 829.062866,70.967720 830.462341,78.200005 
	C837.351929,68.492134 845.762756,61.088657 857.724304,59.784595 
	C868.951965,58.560551 880.259644,58.070915 891.799561,57.238842 
	C891.799561,70.129181 891.799561,81.860535 891.799561,94.000000 
	C885.834839,94.000000 880.040283,93.773453 874.269104,94.044304 
	C859.494446,94.737717 846.644165,99.349380 838.065369,112.415245 
	C833.938354,118.700859 832.427917,125.764626 832.087708,133.023392 
	C831.706055,141.165741 832.000000,149.339767 832.000000,158.000000 
z"/>
<path fill="#050708" opacity="1.000000" stroke="none" 
	d="
M409.000000,151.000000 
	C409.000000,101.861313 409.000000,53.222630 409.000000,4.292130 
	C421.613464,4.292130 434.017975,4.292130 446.712280,4.292130 
	C446.712280,76.953430 446.712280,149.684372 446.712280,222.707840 
	C434.386627,222.707840 421.982117,222.707840 409.000000,222.707840 
	C409.000000,199.020859 409.000000,175.260437 409.000000,151.000000 
z"/>
<path fill="#050708" opacity="1.000000" stroke="none" 
	d="
M941.000000,121.000000 
	C941.000000,155.139297 941.000000,188.778595 941.000000,222.708710 
	C928.718506,222.708710 916.647583,222.708710 904.287292,222.708710 
	C904.287292,168.045639 904.287292,113.314346 904.287292,58.291290 
	C916.281433,58.291290 928.352356,58.291290 941.000000,58.291290 
	C941.000000,78.979309 941.000000,99.739655 941.000000,121.000000 
z"/>
<path fill="#050708" opacity="1.000000" stroke="none" 
	d="
M903.000000,19.003721 
	C903.000000,13.861758 903.000000,9.218967 903.000000,4.288984 
	C915.616760,4.288984 928.018188,4.288984 940.710815,4.288984 
	C940.710815,15.616467 940.710815,27.018347 940.710815,38.711220 
	C928.382751,38.711220 915.981384,38.711220 903.000000,38.711220 
	C903.000000,32.362385 903.000000,25.932640 903.000000,19.003721 
z"/>
<path fill="#FFFFFF" opacity="1.000000" stroke="none" 
	d="
M498.997681,154.950409 
	C497.293152,143.398499 497.296600,132.381531 499.947784,121.360222 
	C502.597321,110.345917 507.908386,101.017876 517.586487,95.074936 
	C539.875000,81.388451 570.512573,90.411530 577.801270,118.641136 
	C580.054810,127.369408 581.044128,136.727692 580.754272,145.737732 
	C580.322510,159.153137 577.013733,172.324890 566.562683,181.743530 
	C545.987366,200.286240 511.254608,193.558990 502.001495,166.016586 
	C500.831360,162.533600 499.992279,158.939423 498.997681,154.950409 
z"/>
</svg>