<?xml version="1.0" encoding="UTF-8"?>
<svg version="1.1" xmlns="http://www.w3.org/2000/svg" width="400" height="400">
<path d="M0 0 C132 0 264 0 400 0 C400 132 400 264 400 400 C268 400 136 400 0 400 C0 268 0 136 0 0 Z " fill="#FEFEFE" transform="translate(0,0)"/>
<path d="M0 0 C13.88389653 12.13694509 24.12914722 26.39193602 29.91796875 43.9375 C32.09450714 50.41680401 34.89499514 53.85581159 40.52734375 57.734375 C52.1631771 65.81275611 59.44562415 81.6563888 62.59765625 95.0625 C63.1834788 100.22730286 63.20585226 105.3684197 63.23046875 110.5625 C63.26140625 112.15964844 63.26140625 112.15964844 63.29296875 113.7890625 C63.34468242 124.44207918 61.25866931 134.05620292 56.29296875 143.5 C55.94339111 144.17554932 55.59381348 144.85109863 55.23364258 145.54711914 C45.37166116 164.15025154 29.73599434 176.47053061 9.69921875 182.74609375 C4.83964362 183.98193398 0.17645759 184.56302312 -4.83444214 184.59140015 C-5.97230667 184.60000061 -7.1101712 184.60860107 -8.28251648 184.61746216 C-10.13403069 184.62385208 -10.13403069 184.62385208 -12.02294922 184.63037109 C-13.33436386 184.63854858 -14.6457785 184.64672607 -15.99693298 184.65515137 C-20.3351743 184.681262 -24.67342469 184.6966743 -29.01171875 184.7109375 C-30.51271697 184.71630286 -32.01371515 184.72168038 -33.51471329 184.72706985 C-39.76682388 184.74868809 -46.01893202 184.76741775 -52.27107048 184.77869225 C-61.18865911 184.79488615 -70.105809 184.82796432 -79.02323234 184.88509309 C-85.31569545 184.92400957 -91.60804233 184.94335074 -97.90062249 184.94861281 C-101.64708214 184.95223856 -105.39307275 184.96395775 -109.13940048 184.99671555 C-129.38975087 185.16502587 -147.8058867 184.57393394 -165.01953125 172.4375 C-165.69869204 171.11048725 -166.36764364 169.77812104 -167.01953125 168.4375 C-168.34245682 168.06499922 -169.67777385 167.73511717 -171.01953125 167.4375 C-173.96999053 165.05279889 -176.47010575 162.24090962 -179.01953125 159.4375 C-179.6228125 158.77621094 -180.22609375 158.11492187 -180.84765625 157.43359375 C-194.38105659 141.370301 -197.31493981 121.65912521 -196.27832031 101.28857422 C-195.66845013 94.56964594 -193.64727472 88.61061166 -191.01953125 82.4375 C-190.57351562 81.3753125 -190.1275 80.313125 -189.66796875 79.21875 C-186.21192362 71.7274343 -181.66511544 64.48340743 -176.01953125 58.4375 C-173.74609375 57.60546875 -173.74609375 57.60546875 -172.01953125 57.4375 C-172.01953125 56.7775 -172.01953125 56.1175 -172.01953125 55.4375 C-171.13265625 55.004375 -170.24578125 54.57125 -169.33203125 54.125 C-164.90943996 51.32471439 -164.02244472 46.81620097 -162.359375 42.08203125 C-152.75074891 15.94544775 -132.8032792 -4.61253569 -107.75390625 -16.44140625 C-71.30423961 -31.38576957 -30.12575878 -25.56597382 0 0 Z " fill="#F7BA16" transform="translate(267.01953125,117.5625)"/>
<path d="M0 0 C14.46835395 11.75553758 26.67525319 28.51351277 31.25 46.8125 C32.78548328 51.82110022 36.35352072 54.0308484 40.44140625 57.05078125 C51.9553774 65.82249362 59.35850841 80.76530159 62.6171875 94.625 C63.20301005 99.78980286 63.22538351 104.9309197 63.25 110.125 C63.2809375 111.72214844 63.2809375 111.72214844 63.3125 113.3515625 C63.36421367 124.00457918 61.27820056 133.61870292 56.3125 143.0625 C55.96292236 143.73804932 55.61334473 144.41359863 55.25317383 145.10961914 C45.39119241 163.71275154 29.75552559 176.03303061 9.71875 182.30859375 C4.85917487 183.54443398 0.19598884 184.12552312 -4.81491089 184.15390015 C-5.95277542 184.16250061 -7.09063995 184.17110107 -8.26298523 184.17996216 C-10.11449944 184.18635208 -10.11449944 184.18635208 -12.00341797 184.19287109 C-13.31483261 184.20104858 -14.62624725 184.20922607 -15.97740173 184.21765137 C-20.31564305 184.243762 -24.65389344 184.2591743 -28.9921875 184.2734375 C-30.49318572 184.27880286 -31.9941839 184.28418038 -33.49518204 184.28956985 C-39.74729263 184.31118809 -45.99940077 184.32991775 -52.25153923 184.34119225 C-61.16912786 184.35738615 -70.08627775 184.39046432 -79.00370109 184.44759309 C-85.2961642 184.48650957 -91.58851108 184.50585074 -97.88109124 184.51111281 C-101.62755089 184.51473856 -105.3735415 184.52645775 -109.11986923 184.55921555 C-129.726757 184.73048022 -147.29690936 183.78344519 -165 172 C-165.66 171.01 -166.32 170.02 -167 169 C-165.88200014 167.66079162 -164.75538103 166.32877444 -163.625 165 C-162.68527344 163.88625 -162.68527344 163.88625 -161.7265625 162.75 C-161.15679687 162.1725 -160.58703125 161.595 -160 161 C-159.34 161 -158.68 161 -158 161 C-157.67 160.01 -157.34 159.02 -157 158 C-155.37897032 156.28891311 -153.70496537 154.62746694 -152 153 C-151.278125 152.2575 -150.55625 151.515 -149.8125 150.75 C-146.35422143 147.36857207 -142.73956562 144.1834934 -139.109375 140.98828125 C-136.94486736 139.17649554 -136.94486736 139.17649554 -136 137 C-135.09321503 137.16167664 -134.18643005 137.32335327 -133.25216675 137.4899292 C-127.84253424 138.25616 -122.4187639 138.15569071 -116.96533203 138.16113281 C-115.76932373 138.16609772 -114.57331543 138.17106262 -113.34106445 138.17617798 C-110.07651016 138.1882355 -106.81199155 138.19573082 -103.54741907 138.20018864 C-101.50352235 138.20313118 -99.4596311 138.20723806 -97.41573715 138.21169281 C-91.00797718 138.22534437 -84.60022986 138.23502347 -78.19245636 138.2388947 C-70.81886988 138.2433753 -63.44546878 138.26093299 -56.07193863 138.2898953 C-50.35535214 138.31156334 -44.63881764 138.32160164 -38.92219055 138.32293582 C-35.51535694 138.32397983 -32.10869815 138.32980129 -28.70190811 138.34775543 C-24.89894882 138.36485144 -21.09643939 138.36292687 -17.29345703 138.35644531 C-15.61925186 138.37026749 -15.61925186 138.37026749 -13.91122437 138.3843689 C-3.84012802 138.33072803 3.66457462 136.43192851 11.046875 129.359375 C16.30193306 123.01126486 17.83045582 115.15912984 17.50390625 107.05859375 C16.27885851 99.62283884 13.00898615 92.96257175 6.875 88.4375 C1.63309577 85.3998837 -4.09645605 84.13875467 -10 83 C-10.03867187 81.60201172 -10.03867187 81.60201172 -10.078125 80.17578125 C-10.81602782 63.58973821 -15.43973991 48.15038698 -27.7109375 36.35546875 C-29 35 -29 35 -29.0625 33.125 C-27.7750826 30.5501652 -25.98821555 29.28895524 -23.74609375 27.546875 C-20.31042999 24.50319972 -17.74275876 20.65917815 -15 17 C-11.61032338 12.65426074 -8.02399023 9.17632856 -3.76953125 5.7109375 C-1.92132713 3.9239322 -1.00059256 2.3501097 0 0 Z " fill="#4285F4" transform="translate(267,118)"/>
<path d="M0 0 C11.76395669 9.03485434 21.05647643 22.28625997 23.25 37.25 C23.31774144 39.86481958 23.34500258 42.44979256 23.3125 45.0625 C23.30798828 45.75537109 23.30347656 46.44824219 23.29882812 47.16210938 C23.28713156 48.85811068 23.26919924 50.55406703 23.25 52.25 C24.15878906 52.25386719 24.15878906 52.25386719 25.0859375 52.2578125 C32.34198412 52.59270696 37.63441159 54.59293444 43.25 59.25 C49.20607531 66.25208027 51.77168897 72.89742438 51.546875 82.05859375 C50.67088093 91.47552999 47.1765727 97.14188944 40.17578125 103.375 C32.53206101 108.2735123 24.87602638 108.69000034 15.98828125 108.65405273 C14.19383072 108.66434761 14.19383072 108.66434761 12.36312866 108.67485046 C9.10684867 108.68993514 5.85093096 108.69163506 2.5946312 108.68590808 C-0.1338819 108.68280066 -2.86234407 108.68892566 -5.59084988 108.69494683 C-12.031639 108.70895323 -18.47229537 108.70746268 -24.91308594 108.69604492 C-31.5371295 108.68456115 -38.1607683 108.69865224 -44.78475857 108.7254414 C-50.4929179 108.74765435 -56.20095068 108.75422343 -61.90915012 108.74836498 C-65.30927297 108.74500827 -68.70913631 108.74732427 -72.10922241 108.76461601 C-75.90254636 108.77953487 -79.69498454 108.76884107 -83.48828125 108.75170898 C-84.60127594 108.76137695 -85.71427063 108.77104492 -86.86099243 108.78100586 C-95.45771797 108.69992817 -102.78179198 106.74785551 -109.3359375 100.87109375 C-115.88687549 93.36104053 -118.16521467 86.20411996 -118.10546875 76.4296875 C-117.38182336 69.95663968 -113.94119111 64.16306722 -109.75 59.25 C-108.265 58.755 -108.265 58.755 -106.75 58.25 C-106.09 57.26 -105.43 56.27 -104.75 55.25 C-97.5664615 51.33609898 -88.56138888 50.89441028 -80.796875 53.08203125 C-74.04661297 55.65677405 -74.04661297 55.65677405 -72.75 58.25 C-71.8528125 58.62125 -71.8528125 58.62125 -70.9375 59 C-67.82200199 60.78028457 -66.53367847 63.19226548 -64.75 66.25 C-64.75 66.91 -64.75 67.57 -64.75 68.25 C-58.95142657 63.39405664 -58.95142657 63.39405664 -53.875 57.8125 C-52.823125 56.5440625 -52.823125 56.5440625 -51.75 55.25 C-51.09 55.25 -50.43 55.25 -49.75 55.25 C-49.255 53.765 -49.255 53.765 -48.75 52.25 C-48.09 52.25 -47.43 52.25 -46.75 52.25 C-46.481875 51.610625 -46.21375 50.97125 -45.9375 50.3125 C-44.75 48.25 -44.75 48.25 -41.75 47.25 C-41.06558691 45.9256885 -40.40095851 44.59107242 -39.75 43.25 C-38.0234375 41.546875 -38.0234375 41.546875 -36.125 40 C-35.17753906 39.21882813 -35.17753906 39.21882813 -34.2109375 38.421875 C-33.72882813 38.03515625 -33.24671875 37.6484375 -32.75 37.25 C-33.91291913 30.70857992 -39.36803163 25.98419581 -44.625 22.3125 C-49.09599428 19.51427427 -53.73458156 17.00394862 -58.375 14.5 C-59.44983643 13.91617554 -59.44983643 13.91617554 -60.54638672 13.32055664 C-64.88588855 11.0307365 -68.9840133 9.42586024 -73.75 8.25 C-71.450958 1.96690385 -64.32219466 -1.52970568 -58.75 -4.75 C-55.15191533 -6.41887906 -51.56033389 -7.66390483 -47.75 -8.75 C-47.06550781 -8.97300781 -46.38101563 -9.19601563 -45.67578125 -9.42578125 C-30.16738884 -14.04998751 -12.89571584 -8.94150463 0 0 Z " fill="#FDFEFC" transform="translate(233.75,148.75)"/>
<path d="M0 0 C1.01650731 0.98321559 2.02389434 1.97666342 3 3 C1.50592885 7.7312253 1.50592885 7.7312253 -1 9.0625 C-1.66 9.371875 -2.32 9.68125 -3 10 C-4.26804566 12.0335948 -4.26804566 12.0335948 -5 14 C-5.66 14 -6.32 14 -7 14 C-7.25007812 14.56847656 -7.50015625 15.13695312 -7.7578125 15.72265625 C-9.1790537 18.32826512 -10.86839205 20.25294757 -12.875 22.4375 C-15.05418769 24.83225481 -17.14414607 27.18654197 -19.125 29.75 C-21.48998478 32.58798173 -24.11035839 34.70142145 -27 37 C-28.19882812 36.20335937 -28.19882812 36.20335937 -29.421875 35.390625 C-38.63095703 29.46741261 -47.85288835 24.81069903 -59 24 C-59.77214844 23.93683594 -60.54429687 23.87367188 -61.33984375 23.80859375 C-74.35229336 23.21625023 -86.46697383 27.5144505 -97 35 C-97.73851196 35.77065796 -97.73851196 35.77065796 -98.49194336 36.55688477 C-102.01282863 40.14003056 -104.35537904 41.39539781 -109.44140625 41.48046875 C-111.48281327 41.407793 -113.52342092 41.30907672 -115.5625 41.1875 C-129.73277827 40.77421357 -142.05063281 42.72615593 -155 49 C-156.00584438 49.99412126 -157.00734724 50.99270635 -158 52 C-158.99 52 -159.98 52 -161 52 C-156.80551254 28.3465501 -139.3959019 8.22508253 -120.28173828 -5.20751953 C-108.22729825 -13.3618963 -94.48576489 -19.05339634 -80 -21 C-78.84564453 -21.16435547 -78.84564453 -21.16435547 -77.66796875 -21.33203125 C-50.23222384 -24.65623298 -21.40130314 -17.94049762 0 0 Z " fill="#E94436" transform="translate(264,115)"/>
<path d="M0 0 C1.53232773 0.24163879 1.53232773 0.24163879 3.09561157 0.48815918 C6.60276525 0.94792502 9.93785386 1.14858582 13.47021484 1.18945312 C14.70774506 1.20617065 15.94527527 1.22288818 17.2203064 1.2401123 C18.53721466 1.25368774 19.85412292 1.26726318 21.2109375 1.28125 C22.58859963 1.29931192 23.96625474 1.31791597 25.34390259 1.33703613 C30.42869678 1.40647639 35.51359315 1.46646114 40.59851074 1.52606201 C44.91321168 1.57692223 49.22782704 1.63166913 53.54240799 1.69187927 C55.56603736 1.71848833 57.58967482 1.73926836 59.6133728 1.7598877 C60.83199005 1.77660522 62.0506073 1.79332275 63.30615234 1.81054688 C64.92328629 1.82933899 64.92328629 1.82933899 66.5730896 1.84851074 C69 2 69 2 70 3 C70.0927833 4.38160115 70.11747043 5.76788038 70.11352539 7.15258789 C70.11341209 8.47384422 70.11341209 8.47384422 70.11329651 9.8217926 C70.10813522 10.77907761 70.10297394 11.73636261 70.09765625 12.72265625 C70.0962413 13.69786728 70.09482635 14.67307831 70.09336853 15.67784119 C70.08775133 18.80609143 70.07519593 21.93427123 70.0625 25.0625 C70.05748722 27.17773334 70.05292393 29.29296781 70.04882812 31.40820312 C70.03777631 36.60549296 70.02102146 41.80274145 70 47 C61.14957657 47.11678466 52.29942568 47.20515998 43.44839478 47.25906086 C39.33673536 47.28495442 35.22560999 47.31997199 31.11425781 47.37719727 C27.1330454 47.43225284 23.15234061 47.46157187 19.17077637 47.47438622 C17.6655683 47.48349639 16.16038225 47.50127835 14.65539551 47.52865028 C-1.21127604 47.80526774 -15.62879395 43.90007721 -29 35 C-29.66 34.01 -30.32 33.02 -31 32 C-29.88200014 30.66079162 -28.75538103 29.32877444 -27.625 28 C-26.68527344 26.88625 -26.68527344 26.88625 -25.7265625 25.75 C-24.87191406 24.88375 -24.87191406 24.88375 -24 24 C-23.34 24 -22.68 24 -22 24 C-21.67 23.01 -21.34 22.02 -21 21 C-19.37897032 19.28891311 -17.70496537 17.62746694 -16 16 C-15.278125 15.2575 -14.55625 14.515 -13.8125 13.75 C-10.35422143 10.36857207 -6.73956562 7.1834934 -3.109375 3.98828125 C-0.94486736 2.17649554 -0.94486736 2.17649554 0 0 Z " fill="#33A750" transform="translate(131,255)"/>
<path d="M0 0 C1.53232773 0.24163879 1.53232773 0.24163879 3.09561157 0.48815918 C6.60276525 0.94792502 9.93785386 1.14858582 13.47021484 1.18945312 C14.70774506 1.20617065 15.94527527 1.22288818 17.2203064 1.2401123 C18.53721466 1.25368774 19.85412292 1.26726318 21.2109375 1.28125 C22.58859963 1.29931192 23.96625474 1.31791597 25.34390259 1.33703613 C30.42869678 1.40647639 35.51359315 1.46646114 40.59851074 1.52606201 C44.91321168 1.57692223 49.22782704 1.63166913 53.54240799 1.69187927 C55.56603736 1.71848833 57.58967482 1.73926836 59.6133728 1.7598877 C60.83199005 1.77660522 62.0506073 1.79332275 63.30615234 1.81054688 C64.92328629 1.82933899 64.92328629 1.82933899 66.5730896 1.84851074 C69 2 69 2 70 3 C70.0927833 4.38160115 70.11747043 5.76788038 70.11352539 7.15258789 C70.11341209 8.47384422 70.11341209 8.47384422 70.11329651 9.8217926 C70.10813522 10.77907761 70.10297394 11.73636261 70.09765625 12.72265625 C70.0962413 13.69786728 70.09482635 14.67307831 70.09336853 15.67784119 C70.08775133 18.80609143 70.07519593 21.93427123 70.0625 25.0625 C70.05748722 27.17773334 70.05292393 29.29296781 70.04882812 31.40820312 C70.03777631 36.60549296 70.02102146 41.80274145 70 47 C61.14957657 47.11678466 52.29942568 47.20515998 43.44839478 47.25906086 C39.33673536 47.28495442 35.22560999 47.31997199 31.11425781 47.37719727 C27.1330454 47.43225284 23.15234061 47.46157187 19.17077637 47.47438622 C17.6655683 47.48349639 16.16038225 47.50127835 14.65539551 47.52865028 C3.70053284 47.71963592 -5.81087653 46.17772306 -16 42 C-16.66 41.34 -17.32 40.68 -18 40 C-15.36 40.33 -12.72 40.66 -10 41 C-10 41.66 -10 42.32 -10 43 C-8.2984375 42.9690625 -8.2984375 42.9690625 -6.5625 42.9375 C-3 43 -3 43 -2 44 C7.15893127 45.0427516 16.40842084 45.18288931 25.6171875 45.31640625 C26.84035675 45.33718735 28.063526 45.35796844 29.32376099 45.37937927 C33.17412516 45.44398704 37.02454867 45.5033403 40.875 45.5625 C43.50912035 45.60576997 46.14323503 45.64938673 48.77734375 45.69335938 C55.1848364 45.80021813 61.59238313 45.89994751 68 46 C68 32.14 68 18.28 68 4 C60.53083433 4.10960062 53.06177316 4.2200708 45.59276581 4.33904266 C42.11436467 4.39419596 38.63595608 4.44773157 35.1574707 4.49731445 C31.16348453 4.55432045 27.1696482 4.61876738 23.17578125 4.68359375 C21.93290848 4.70030624 20.69003571 4.71701874 19.40950012 4.73423767 C18.24867416 4.75418289 17.08784821 4.77412811 15.8918457 4.79467773 C14.87258499 4.81022202 13.85332428 4.8257663 12.80317688 4.84178162 C10.11026758 4.99377622 7.62596155 5.39989353 5 6 C5 4.68 5 3.36 5 2 C1.83269956 1.65640007 1.83269956 1.65640007 -0.3125 4.1875 C-1.199375 5.115625 -2.08625 6.04375 -3 7 C-3.94875 7.763125 -4.8975 8.52625 -5.875 9.3125 C-9.02984706 11.88640335 -11.57017557 14.85833494 -14.20703125 17.94921875 C-16.4816529 20.55091019 -18.89694333 22.97576747 -21.3671875 25.390625 C-22.41381612 26.42223024 -23.44201741 27.47307809 -24.4453125 28.546875 C-25.57558604 29.7515977 -26.78227244 30.88374974 -28 32 C-28.99 32 -29.98 32 -31 32 C-29.88200014 30.66079162 -28.75538103 29.32877444 -27.625 28 C-26.68527344 26.88625 -26.68527344 26.88625 -25.7265625 25.75 C-24.87191406 24.88375 -24.87191406 24.88375 -24 24 C-23.34 24 -22.68 24 -22 24 C-21.67 23.01 -21.34 22.02 -21 21 C-19.37897032 19.28891311 -17.70496537 17.62746694 -16 16 C-15.278125 15.2575 -14.55625 14.515 -13.8125 13.75 C-10.35422143 10.36857207 -6.73956562 7.1834934 -3.109375 3.98828125 C-0.94486736 2.17649554 -0.94486736 2.17649554 0 0 Z " fill="#49A06E" transform="translate(131,255)"/>
<path d="M0 0 C3.57885926 1.19295309 3.91827816 1.90533504 5.6875 5.125 C9.24363426 12.51492465 9.40482862 22.15473942 7 30 C6.34 30 5.68 30 5 30 C4.5978125 31.36125 4.5978125 31.36125 4.1875 32.75 C3.09868368 35.72991834 2.13608899 37.68590359 0 40 C-0.66 40 -1.32 40 -2 40 C-2 40.66 -2 41.32 -2 42 C-2.66 42 -3.32 42 -4 42 C-4 42.66 -4 43.32 -4 44 C-13.47037084 49.2475911 -20.34861193 50.83481662 -31.17578125 50.3671875 C-32.46695358 50.33650177 -33.75812592 50.30581604 -35.08842468 50.27420044 C-38.47448872 50.19337781 -41.85818522 50.07521504 -45.24279785 49.94842529 C-48.71526574 49.82523512 -52.18864239 49.73816527 -55.66210938 49.6484375 C-62.44357441 49.47066898 -69.21931716 49.23403675 -76 49 C-75.67 62.86 -75.34 76.72 -75 91 C-54.21 90.67 -33.42 90.34 -12 90 C-11.67 90.66 -11.34 91.32 -11 92 C-33.11 92 -55.22 92 -78 92 C-78.33 77.15 -78.66 62.3 -79 47 C-74.62878906 46.96261719 -70.25757813 46.92523438 -65.75390625 46.88671875 C-62.2480964 46.84855884 -58.74234733 46.80748649 -55.23659515 46.7644577 C-51.54715586 46.71996742 -47.85782566 46.68049818 -44.16821289 46.65356445 C-40.6083109 46.6273776 -37.04882313 46.58686971 -33.48917961 46.53681374 C-31.48373205 46.51223744 -29.47812371 46.50214022 -27.47254944 46.49235535 C-16.74768912 46.32123781 -8.85354527 44.92830911 -0.953125 37.359375 C4.38191133 30.91465111 5.71843208 23.1374958 5.47265625 14.94140625 C4.80763333 10.80287521 3.19007228 7.55962409 1.09375 3.9609375 C0 2 0 2 0 0 Z " fill="#5B8BD4" transform="translate(279,210)"/>
<path d="M0 0 C0 0.66 0 1.32 0 2 C-5.26917677 5.02489777 -9.34314037 6.47089836 -15.41015625 6.82421875 C-18.06302407 6.95926921 -18.06302407 6.95926921 -20.8992157 7.50289917 C-26.3088615 8.28394716 -31.74822811 8.13910203 -37.20239258 8.12939453 C-38.41630173 8.13114685 -39.63021088 8.13289917 -40.88090515 8.13470459 C-44.19512807 8.13834076 -47.5092882 8.13750332 -50.82350755 8.1343255 C-54.30483979 8.13178219 -57.78616947 8.13414508 -61.26750183 8.13571167 C-67.11559527 8.13752835 -72.96367606 8.13514098 -78.81176758 8.13037109 C-85.55148676 8.12493708 -92.29117566 8.12668689 -99.0308941 8.1321975 C-104.83581703 8.13675207 -110.6407309 8.13736751 -116.44565505 8.13475883 C-119.90443173 8.13320794 -123.36319424 8.13296932 -126.82196999 8.13629532 C-130.68446634 8.13975031 -134.54692946 8.13494613 -138.40942383 8.12939453 C-139.54066681 8.13141876 -140.67190979 8.13344299 -141.83743286 8.13552856 C-148.28582381 8.11843598 -154.59839895 7.78586658 -161 7 C-161 6.34 -161 5.68 -161 5 C-163.64 4.67 -166.28 4.34 -169 4 C-168.67 3.34 -168.34 2.68 -168 2 C-167.04590272 2.31808845 -167.04590272 2.31808845 -166.07253075 2.64260292 C-158.40113356 4.99117218 -151.36897039 5.42790777 -143.38134766 5.38818359 C-141.40590218 5.39606903 -141.40590218 5.39606903 -139.39054871 5.40411377 C-135.80977688 5.41767687 -132.22926721 5.41253412 -128.64849138 5.40297651 C-124.87896612 5.39531911 -121.10946156 5.40244254 -117.3399353 5.40713501 C-111.01043723 5.41257635 -104.68104453 5.40544516 -98.3515625 5.39111328 C-91.06529198 5.37480399 -83.77927359 5.38006923 -76.49300921 5.3965925 C-70.20641495 5.41027076 -63.91989596 5.41209583 -57.6332916 5.40427649 C-53.89219057 5.39963278 -50.15120744 5.39888264 -46.41011429 5.40888596 C-42.88868159 5.41764585 -39.36756906 5.41137212 -35.84617043 5.39420319 C-33.96060737 5.38843788 -32.07501678 5.39717726 -30.18946838 5.40658569 C-21.23753087 5.34100345 -12.61817215 4.25016769 -4.25342751 0.89995384 C-2 0 -2 0 0 0 Z " fill="#D9EFEE" transform="translate(288,296)"/>
<path d="M0 0 C7.48291572 6.15034169 7.48291572 6.15034169 10 10 C8.35 10.66 6.7 11.32 5 12 C4.4465236 9.92446352 4 8.15634036 4 6 C2.68 5.34 1.36 4.68 0 4 C0.66 5.32 1.32 6.64 2 8 C1.01 8.33 0.02 8.66 -1 9 C-0.896875 9.721875 -0.79375 10.44375 -0.6875 11.1875 C-1.1329965 15.1969685 -2.94234106 16.49827905 -6 19 C-8.3125 19.8125 -8.3125 19.8125 -10 20 C-9.34 18.35 -8.68 16.7 -8 15 C-8.99 15 -9.98 15 -11 15 C-11.33 16.32 -11.66 17.64 -12 19 C-12.66 19 -13.32 19 -14 19 C-14.2475 19.804375 -14.495 20.60875 -14.75 21.4375 C-16 24 -16 24 -18.125 24.8125 C-18.74375 24.874375 -19.3625 24.93625 -20 25 C-20 25.99 -20 26.98 -20 28 C-20.66 28.33 -21.32 28.66 -22 29 C-21.67 29.99 -21.34 30.98 -21 32 C-19.68 32 -18.36 32 -17 32 C-17 32.99 -17 33.98 -17 35 C-17.66 35 -18.32 35 -19 35 C-19.66 37.64 -20.32 40.28 -21 43 C-22.66666667 41.33333333 -24.33333333 39.66666667 -26 38 C-26.61875 37.484375 -27.2375 36.96875 -27.875 36.4375 C-29 35 -29 35 -29.0625 33.125 C-27.7750826 30.5501652 -25.98821555 29.28895524 -23.74609375 27.546875 C-20.31042999 24.50319972 -17.74275876 20.65917815 -15 17 C-11.61032338 12.65426074 -8.02399023 9.17632856 -3.76953125 5.7109375 C-1.92132713 3.9239322 -1.00059256 2.3501097 0 0 Z " fill="#4686EF" transform="translate(267,118)"/>
<path d="M0 0 C0 0.33 0 0.66 0 1 C-1.54941284 0.98428955 -1.54941284 0.98428955 -3.13012695 0.96826172 C-7.01225227 0.93168984 -10.89436281 0.90896613 -14.77661133 0.89013672 C-16.44753593 0.88016297 -18.11844347 0.8665791 -19.78930664 0.84912109 C-29.06142735 0.75476249 -37.93045844 0.75444986 -47 3 C-47 3.66 -47 4.32 -47 5 C-48.55780332 5.67756882 -50.12150096 6.34159457 -51.6875 7 C-52.99267578 7.556875 -52.99267578 7.556875 -54.32421875 8.125 C-57.0572002 9.01870488 -59.14700934 9.16449676 -62 9 C-62 9.66 -62 10.32 -62 11 C-63.75 12.2890625 -63.75 12.2890625 -66 13.625 C-66.7425 14.07101563 -67.485 14.51703125 -68.25 14.9765625 C-69.11625 15.48316406 -69.11625 15.48316406 -70 16 C-70.33 15.34 -70.66 14.68 -71 14 C-71.33 14.66 -71.66 15.32 -72 16 C-74.64860427 16.59355614 -77.29197322 16.74209269 -80 17 C-68.42995782 6.97263011 -53.11907413 1.03170804 -38 -1 C-36.84564453 -1.16435547 -36.84564453 -1.16435547 -35.66796875 -1.33203125 C-23.59369901 -2.794988 -11.94125794 -2.03255454 0 0 Z " fill="#D35D53" transform="translate(222,95)"/>
<path d="M0 0 C1.06444336 0.00616333 1.06444336 0.00616333 2.15039062 0.01245117 C13.52063376 0.13405106 22.31656722 3.03841612 32.375 8.125 C33.06851563 8.46789062 33.76203125 8.81078125 34.4765625 9.1640625 C37.93964808 10.90223955 41.11835845 12.64529563 44.125 15.125 C40.37291676 14.76765874 38.3124799 14.25663482 35.1875 12.0625 C31.50044236 9.7298717 29.41259417 9.72050998 25.125 10.125 C24.135 10.455 23.145 10.785 22.125 11.125 C18.9375 9.6875 18.9375 9.6875 16.125 8.125 C16.125 6.805 16.125 5.485 16.125 4.125 C13.07736066 3.10912022 10.77781033 2.92695594 7.58203125 2.80859375 C6.50888672 2.76669922 5.43574219 2.72480469 4.33007812 2.68164062 C3.21052734 2.64232422 2.09097656 2.60300781 0.9375 2.5625 C-0.19365234 2.51931641 -1.32480469 2.47613281 -2.49023438 2.43164062 C-5.28503354 2.32550901 -8.07992162 2.22345615 -10.875 2.125 C-10.875 2.785 -10.875 3.445 -10.875 4.125 C-12.29043415 4.32158808 -13.70744031 4.50687546 -15.125 4.6875 C-15.91390625 4.79191406 -16.7028125 4.89632812 -17.515625 5.00390625 C-19.88032874 5.12527349 -21.6261037 4.82133257 -23.875 4.125 C-22.33483306 3.6410345 -20.79277806 3.16307613 -19.25 2.6875 C-18.39148438 2.42066406 -17.53296875 2.15382812 -16.6484375 1.87890625 C-11.08320996 0.36610496 -5.74814971 -0.04010653 0 0 Z " fill="#EFBC2E" transform="translate(143.875,154.875)"/>
<path d="M0 0 C0.99 0.495 0.99 0.495 2 1 C2.33 14.86 2.66 28.72 3 43 C23.79 42.67 44.58 42.34 66 42 C66.33 42.66 66.66 43.32 67 44 C44.89 44 22.78 44 0 44 C0 29.48 0 14.96 0 0 Z " fill="#478AD6" transform="translate(201,258)"/>
<path d="M0 0 C0.99 0.33 1.98 0.66 3 1 C1.948125 2.0209375 1.948125 2.0209375 0.875 3.0625 C-1.19399647 5.12565185 -3.11478396 7.26802142 -5 9.5 C-7.52873974 12.48910006 -10.19305591 15.26692286 -13 18 C-13.721875 18.763125 -14.44375 19.52625 -15.1875 20.3125 C-17 22 -17 22 -19 22 C-19.66 23.32 -20.32 24.64 -21 26 C-21.66 26 -22.32 26 -23 26 C-24.33346412 24.04969533 -25.43891316 22.00995631 -26.5859375 19.9453125 C-28.18112355 17.75083004 -29.51291505 17.00541732 -32 16 C-32 15.34 -32 14.68 -32 14 C-33.98 13.34 -35.96 12.68 -38 12 C-38 11.67 -38 11.34 -38 11 C-35.03 11 -32.06 11 -29 11 C-28.34 12.65 -27.68 14.3 -27 16 C-26.34 16 -25.68 16 -25 16 C-25 16.66 -25 17.32 -25 18 C-24.34 18 -23.68 18 -23 18 C-23 19.32 -23 20.64 -23 22 C-22.01 22 -21.02 22 -20 22 C-20.33 20.68 -20.66 19.36 -21 18 C-19.35 17.67 -17.7 17.34 -16 17 C-15.67 15.68 -15.34 14.36 -15 13 C-13.35 12.67 -11.7 12.34 -10 12 C-9.896875 11.236875 -9.79375 10.47375 -9.6875 9.6875 C-8.94932885 6.80192188 -8.37859197 5.73820183 -6 4 C-5.01 4 -4.02 4 -3 4 C-3 3.34 -3 2.68 -3 2 C-2.01 2 -1.02 2 0 2 C0 1.34 0 0.68 0 0 Z " fill="#EBC244" transform="translate(192,191)"/>
<path d="M0 0 C-0.75023437 0.54527344 -1.50046875 1.09054688 -2.2734375 1.65234375 C-14.65867089 10.77748422 -26.22880537 20.4552219 -34 34 C-34.99842851 30.89377798 -34.93947552 29.10026923 -34 26 C-33.65939189 24.33480481 -33.32441604 22.66842534 -33 21 C-29.25 19.875 -29.25 19.875 -27 21 C-26.62875 19.329375 -26.62875 19.329375 -26.25 17.625 C-25 14 -25 14 -23.14453125 12.96875 C-22.43683594 12.6490625 -21.72914062 12.329375 -21 12 C-19.1629882 10.47508268 -17.4307245 8.86869229 -15.68359375 7.2421875 C-14 6 -14 6 -11 6 C-11 5.34 -11 4.68 -11 4 C-10.34 4 -9.68 4 -9 4 C-9 3.01 -9 2.02 -9 1 C-3.375 -1.125 -3.375 -1.125 0 0 Z " fill="#FCEFEE" transform="translate(148,108)"/>
<path d="M0 0 C0.99 0.33 1.98 0.66 3 1 C2.54109375 1.84820312 2.0821875 2.69640625 1.609375 3.5703125 C-9.2993377 24.17532853 -11.08199282 45.40974095 -5 68 C-7 67 -7 67 -8 64.4375 C-8.33 63.303125 -8.66 62.16875 -9 61 C-9.34546875 59.85402344 -9.6909375 58.70804688 -10.046875 57.52734375 C-11.39033861 52.09168497 -11.29172193 46.69487791 -11.25 41.125 C-11.25773437 40.10019531 -11.26546875 39.07539063 -11.2734375 38.01953125 C-11.25172147 29.47427384 -10.66544362 21.22267779 -6.4375 13.625 C-4.85511412 10.74195867 -3.65672048 8.23195022 -3 5 C-2.34 5 -1.68 5 -1 5 C-0.67 3.35 -0.34 1.7 0 0 Z " fill="#FEF7D0" transform="translate(80,187)"/>
<path d="M0 0 C0.27328125 0.55816406 0.5465625 1.11632812 0.828125 1.69140625 C5.04700156 10.00259307 9.05053069 17.21368606 18 21 C17.01 21 16.02 21 15 21 C14.61908203 21.88945312 14.61908203 21.88945312 14.23046875 22.796875 C12.86373626 25.24397699 11.48257018 26.49347954 9.3125 28.25 C5.65834453 31.32613451 2.58389741 34.62421904 -0.45703125 38.30078125 C-2 40 -2 40 -5 42 C-4.67 40.68 -4.34 39.36 -4 38 C-3.34 38 -2.68 38 -2 38 C-2 36.68 -2 35.36 -2 34 C-0.68 34 0.64 34 2 34 C2.33 32.68 2.66 31.36 3 30 C3.99 30 4.98 30 6 30 C6.2475 29.4225 6.495 28.845 6.75 28.25 C8.16305697 25.70649745 9.95298918 24.04701082 12 22 C12 21.34 12 20.68 12 20 C11.01 19.34 10.02 18.68 9 18 C8.01 17.34 7.02 16.68 6 16 C6 15.34 6 14.68 6 14 C3.69 14 1.38 14 -1 14 C-1.5625 12.0625 -1.5625 12.0625 -2 10 C-1.67 9.67 -1.34 9.34 -1 9 C-0.76807135 7.48530552 -0.58784762 5.96245438 -0.4375 4.4375 C-0.35371094 3.61121094 -0.26992187 2.78492188 -0.18359375 1.93359375 C-0.12300781 1.29550781 -0.06242187 0.65742188 0 0 Z " fill="#EAC139" transform="translate(116,234)"/>
<path d="M0 0 C0.66 0.99 1.32 1.98 2 3 C0.35 3.33 -1.3 3.66 -3 4 C-3 4.66 -3 5.32 -3 6 C-3.99 6.495 -3.99 6.495 -5 7 C-5.33 7.99 -5.66 8.98 -6 10 C-6.99 10.495 -6.99 10.495 -8 11 C-8 11.99 -8 12.98 -8 14 C-9.875 15.0625 -9.875 15.0625 -12 16 C-12.66 15.67 -13.32 15.34 -14 15 C-14.33 19.29 -14.66 23.58 -15 28 C-16.32 28 -17.64 28 -19 28 C-19.33 26.02 -19.66 24.04 -20 22 C-20.33 22.66 -20.66 23.32 -21 24 C-21.66 24 -22.32 24 -23 24 C-18.78370958 14.37537894 -8.61567579 5.74378386 0 0 Z " fill="#E04C44" transform="translate(141,112)"/>
<path d="M0 0 C0.85078125 0.00322266 1.7015625 0.00644531 2.578125 0.00976562 C3.46757812 0.01814453 4.35703125 0.02652344 5.2734375 0.03515625 C6.170625 0.03966797 7.0678125 0.04417969 7.9921875 0.04882812 C10.21100398 0.06063034 12.42968768 0.0770947 14.6484375 0.09765625 C14.9784375 1.08765625 15.3084375 2.07765625 15.6484375 3.09765625 C21.5884375 4.08765625 21.5884375 4.08765625 27.6484375 5.09765625 C27.6484375 5.42765625 27.6484375 5.75765625 27.6484375 6.09765625 C27.02501465 6.0819458 26.4015918 6.06623535 25.75927734 6.05004883 C13.54475925 5.78334155 2.50231829 5.95075255 -9.3515625 9.09765625 C-11.34801725 9.45160477 -13.347312 9.7909136 -15.3515625 10.09765625 C-15.0215625 9.43765625 -14.6915625 8.77765625 -14.3515625 8.09765625 C-11.68243908 7.32208859 -9.058139 6.64669372 -6.3515625 6.03515625 C-1.46157022 5.2910546 -1.46157022 5.2910546 2.6484375 3.09765625 C-0.8735346 3.01761143 -3.97137719 3.05759923 -7.3515625 4.09765625 C-7.0215625 3.10765625 -6.6915625 2.11765625 -6.3515625 1.09765625 C-4.00303722 -0.07660639 -2.61382185 -0.01742548 0 0 Z " fill="#E34D28" transform="translate(131.3515625,149.90234375)"/>
<path d="M0 0 C0.99 0 1.98 0 3 0 C3 0.99 3 1.98 3 3 C3.66 3 4.32 3 5 3 C5.66 5.31 6.32 7.62 7 10 C7.66 10 8.32 10 9 10 C10.78466761 13.95176398 11.68819198 17.88155334 12.53515625 22.109375 C12.8268275 23.9994375 12.8268275 23.9994375 14 25 C14.07258946 27.18639453 14.08373783 29.37500389 14.0625 31.5625 C14.05347656 32.76003906 14.04445313 33.95757812 14.03515625 35.19140625 C14.02355469 36.11824219 14.01195312 37.04507813 14 38 C16.97 38.33 19.94 38.66 23 39 C23 39.66 23 40.32 23 41 C23.66 41 24.32 41 25 41 C25 41.66 25 42.32 25 43 C20.38 42.01 15.76 41.02 11 40 C10.9175 37.793125 10.835 35.58625 10.75 33.3125 C10.15705021 22.72527134 7.06748424 13.29038777 2 4 C1.32864266 2.66902234 0.66081236 1.33624446 0 0 Z " fill="#5788DB" transform="translate(246,161)"/>
<path d="M0 0 C0 0.66 0 1.32 0 2 C-1.05058594 1.96519531 -2.10117188 1.93039063 -3.18359375 1.89453125 C-11.02212263 1.71252207 -17.74480063 1.6225796 -25 5 C-25.99 6.485 -25.99 6.485 -27 8 C-27.99 8.33 -28.98 8.66 -30 9 C-31.64973488 11.21261348 -31.64973488 11.21261348 -33.125 13.875 C-33.90230469 15.20144531 -33.90230469 15.20144531 -34.6953125 16.5546875 C-36.78443444 20.47022743 -37.23296282 23.80936318 -37.5625 28.1875 C-37.64628906 29.27417969 -37.73007813 30.36085937 -37.81640625 31.48046875 C-37.87699219 32.31191406 -37.93757813 33.14335937 -38 34 C-38.33 34 -38.66 34 -39 34 C-39.0544452 31.79194476 -39.09299283 29.58349446 -39.125 27.375 C-39.14820312 26.14523438 -39.17140625 24.91546875 -39.1953125 23.6484375 C-39.0030428 20.05683959 -38.30258556 17.33338825 -37 14 C-36.34 14 -35.68 14 -35 14 C-35 12.02 -35 10.04 -35 8 C-34.34 8.33 -33.68 8.66 -33 9 C-32.649375 8.195625 -32.29875 7.39125 -31.9375 6.5625 C-30 4 -30 4 -26.3125 3.1875 C-25.219375 3.125625 -24.12625 3.06375 -23 3 C-23 2.34 -23 1.68 -23 1 C-15.09833852 -1.29866516 -8.10420981 -1.66240201 0 0 Z " fill="#EBC452" transform="translate(154,200)"/>
<path d="M0 0 C2.475 1.98 2.475 1.98 5 4 C3.50592885 8.7312253 3.50592885 8.7312253 1 10.0625 C0.34 10.371875 -0.32 10.68125 -1 11 C-2.26804566 13.0335948 -2.26804566 13.0335948 -3 15 C-3.66 15 -4.32 15 -5 15 C-5.25007813 15.56847656 -5.50015625 16.13695312 -5.7578125 16.72265625 C-7.1790537 19.32826512 -8.86839205 21.25294757 -10.875 23.4375 C-13.05418769 25.83225481 -15.14414607 28.18654197 -17.125 30.75 C-19.48998478 33.58798173 -22.11035839 35.70142145 -25 38 C-26.65 37.01 -28.3 36.02 -30 35 C-29.401875 34.855625 -28.80375 34.71125 -28.1875 34.5625 C-26.43849596 34.1127561 -24.71322977 33.57107659 -23 33 C-22.67 32.34 -22.34 31.68 -22 31 C-21.34 31 -20.68 31 -20 31 C-19.773125 29.88625 -19.54625 28.7725 -19.3125 27.625 C-18.6628125 25.830625 -18.6628125 25.830625 -18 24 C-16.35008418 23.29289322 -14.6792238 22.63437344 -13 22 C-10.48892855 19.48329834 -8.27088239 16.73266469 -6 14 C-4.00029643 11.88602765 -2.17662462 10.12616044 0.1875 8.4375 C2.29101558 7.0382681 2.29101558 7.0382681 3 4 C2.01 3.67 1.02 3.34 0 3 C0 2.01 0 1.02 0 0 Z " fill="#AC5A7F" transform="translate(262,114)"/>
<path d="M0 0 C0.99 0.33 1.98 0.66 3 1 C3 1.99 3 2.98 3 4 C3.99 4 4.98 4 6 4 C6 4.66 6 5.32 6 6 C4.3603279 7.36639342 2.68889872 8.6949419 1 10 C-0.35147138 11.31494512 -1.69112542 12.64264858 -3 14 C-7.50884026 11.68116787 -9.93906776 8.93548431 -13 5 C-11.35 4.67 -9.7 4.34 -8 4 C-8 4.99 -8 5.98 -8 7 C-5.02982306 6.37189827 -5.02982306 6.37189827 -2 5 C-0.56076801 2.49004504 -0.56076801 2.49004504 0 0 Z " fill="#F4BA1E" transform="translate(103,273)"/>
<path d="M0 0 C11.10505474 7.69461915 11.10505474 7.69461915 14 13 C13.69667759 16.34918494 13.06271164 16.94493612 10.4375 19.25 C9.633125 19.8275 8.82875 20.405 8 21 C7.67 20.01 7.34 19.02 7 18 C7.66 18 8.32 18 9 18 C9 17.34 9 16.68 9 16 C8.01 16 7.02 16 6 16 C4.00214565 11.8794254 3.82164485 8.54805635 4 4 C2.68 4 1.36 4 0 4 C0 2.68 0 1.36 0 0 Z " fill="#F5BA1E" transform="translate(188,170)"/>
<path d="M0 0 C0.93065133 2.60582371 1.14917407 3.64198224 0.0625 6.25 C-0.4634375 7.11625 -0.4634375 7.11625 -1 8 C-0.01 8 0.98 8 2 8 C2 8.66 2 9.32 2 10 C0.68 10 -0.64 10 -2 10 C-2 9.34 -2 8.68 -2 8 C-3.32 8 -4.64 8 -6 8 C-6.268125 8.969375 -6.53625 9.93875 -6.8125 10.9375 C-7.204375 11.948125 -7.59625 12.95875 -8 14 C-8.99 14.33 -9.98 14.66 -11 15 C-12.22520264 18.00847418 -12.22520264 18.00847418 -13 21 C-14.65 21.33 -16.3 21.66 -18 22 C-18.33 23.32 -18.66 24.64 -19 26 C-19.66 26 -20.32 26 -21 26 C-19.56761983 21.95389518 -17.6211273 18.73515887 -15.125 15.25 C-14.44695312 14.28578125 -13.76890625 13.3215625 -13.0703125 12.328125 C-10.96651599 9.96234629 -10.08750815 9.30459722 -7 9 C-7 8.34 -7 7.68 -7 7 C-6.030625 6.360625 -5.06125 5.72125 -4.0625 5.0625 C-0.75744775 3.28938993 -0.75744775 3.28938993 0 0 Z " fill="#F1BE3C" transform="translate(102,166)"/>
<path d="M0 0 C0.33 0 0.66 0 1 0 C1.258085 3.64437715 1.47609116 7.29014117 1.6875 10.9375 C1.76033203 11.95908203 1.83316406 12.98066406 1.90820312 14.03320312 C2.27273307 20.74484272 1.5960343 25.81459353 -1 32 C-1.4228125 33.1446875 -1.845625 34.289375 -2.28125 35.46875 C-2.88453125 36.96921875 -2.88453125 36.96921875 -3.5 38.5 C-3.9021875 39.5209375 -4.304375 40.541875 -4.71875 41.59375 C-6 44 -6 44 -9 45 C-7.265177 39.64222107 -5.21723782 34.44356014 -3.12109375 29.21875 C-0.88540599 22.79991128 -0.73034927 16.35573237 -0.4375 9.625 C-0.39431641 8.69816406 -0.35113281 7.77132812 -0.30664062 6.81640625 C-0.20123814 4.54439706 -0.09911394 2.27229075 0 0 Z " fill="#CCE4F6" transform="translate(330,221)"/>
<path d="M0 0 C1.74821262 0.36288656 3.49831326 0.71677235 5.25 1.0625 C6.14203125 1.23910156 7.0340625 1.41570312 7.953125 1.59765625 C8.62859375 1.73042969 9.3040625 1.86320313 10 2 C10 2.66 10 3.32 10 4 C11.134375 4.268125 12.26875 4.53625 13.4375 4.8125 C14.613125 5.204375 15.78875 5.59625 17 6 C17.495 7.485 17.495 7.485 18 9 C18.66 9 19.32 9 20 9 C19.67 9.66 19.34 10.32 19 11 C18.38253906 10.67386719 17.76507813 10.34773437 17.12890625 10.01171875 C6.44295206 4.49796156 -2.78949375 1.82999552 -14.9375 1.9375 C-15.96327148 1.94426758 -15.96327148 1.94426758 -17.00976562 1.95117188 C-18.67321604 1.9628044 -20.3366205 1.98073306 -22 2 C-19.10987825 -0.89012175 -16.00925595 -0.49844329 -12.125 -0.6875 C-11.04412109 -0.75807617 -11.04412109 -0.75807617 -9.94140625 -0.83007812 C-6.4197641 -1.02788675 -3.36444833 -1.08297693 0 0 Z " fill="#CE554B" transform="translate(212,137)"/>
<path d="M0 0 C6.74113609 2.59945967 6.74113609 2.59945967 8.02734375 5.171875 C8.62546875 5.419375 9.22359375 5.666875 9.83984375 5.921875 C12.92388892 7.68418652 14.20770606 10.18247022 16.02734375 13.171875 C15.69734375 13.831875 15.36734375 14.491875 15.02734375 15.171875 C14.03734375 14.841875 13.04734375 14.511875 12.02734375 14.171875 C11.03734375 14.171875 10.04734375 14.171875 9.02734375 14.171875 C9.68734375 13.841875 10.34734375 13.511875 11.02734375 13.171875 C11.02734375 11.521875 11.02734375 9.871875 11.02734375 8.171875 C9.37734375 7.511875 7.72734375 6.851875 6.02734375 6.171875 C6.02734375 5.511875 6.02734375 4.851875 6.02734375 4.171875 C5.05796875 4.0275 4.08859375 3.883125 3.08984375 3.734375 C0.02734375 3.171875 0.02734375 3.171875 -0.97265625 2.171875 C-2.31280846 2.01605197 -3.66024528 1.92143358 -5.0078125 1.85546875 C-5.81669922 1.81357422 -6.62558594 1.77167969 -7.45898438 1.72851562 C-8.30912109 1.68919922 -9.15925781 1.64988281 -10.03515625 1.609375 C-10.88916016 1.56619141 -11.74316406 1.52300781 -12.62304688 1.47851562 C-14.73937662 1.37210798 -16.85599438 1.27145769 -18.97265625 1.171875 C-13.02208613 -2.00546004 -6.44635653 -1.79583125 0 0 Z " fill="#FEF7CC" transform="translate(152.97265625,201.828125)"/>
<path d="M0 0 C4.12962687 6.1944403 3.21584235 13.91773647 3.25 21.125 C3.270625 22.18976563 3.29125 23.25453125 3.3125 24.3515625 C3.35358065 32.81417613 2.8076516 41.7885226 -2 49 C-1.91621094 48.01257813 -1.83242188 47.02515625 -1.74609375 46.0078125 C-1.64425781 44.72648437 -1.54242188 43.44515625 -1.4375 42.125 C-1.33308594 40.84882813 -1.22867187 39.57265625 -1.12109375 38.2578125 C-0.74316633 35.11356058 -0.74316633 35.11356058 -2 33 C-0.68 33 0.64 33 2 33 C1.86076462 29.74968216 1.71245815 26.49983939 1.5625 23.25 C1.52318359 22.32960937 1.48386719 21.40921875 1.44335938 20.4609375 C1.40146484 19.57148438 1.35957031 18.68203125 1.31640625 17.765625 C1.27974854 16.94868164 1.24309082 16.13173828 1.20532227 15.29003906 C1.008336 13.09297467 0.55956246 11.12813514 0 9 C-0.06548492 7.41788427 -0.08578381 5.83329919 -0.0625 4.25 C-0.05347656 3.45078125 -0.04445313 2.6515625 -0.03515625 1.828125 C-0.02355469 1.22484375 -0.01195312 0.6215625 0 0 Z " fill="#588DDD" transform="translate(327,207)"/>
<path d="M0 0 C0.67740234 -0.00386719 1.35480469 -0.00773438 2.05273438 -0.01171875 C6.49953889 -0.0031918 10.6895079 0.40662059 15.0625 1.125 C15.0625 1.785 15.0625 2.445 15.0625 3.125 C2.1925 2.63 2.1925 2.63 -10.9375 2.125 C-10.9375 2.785 -10.9375 3.445 -10.9375 4.125 C-12.35293415 4.32158808 -13.76994031 4.50687546 -15.1875 4.6875 C-15.97640625 4.79191406 -16.7653125 4.89632812 -17.578125 5.00390625 C-19.94282874 5.12527349 -21.6886037 4.82133257 -23.9375 4.125 C-22.39733306 3.6410345 -20.85527806 3.16307613 -19.3125 2.6875 C-18.45398438 2.42066406 -17.59546875 2.15382812 -16.7109375 1.87890625 C-11.12284951 0.35989078 -5.77086233 -0.03275797 0 0 Z " fill="#FA9B2D" transform="translate(143.9375,154.875)"/>
<path d="M0 0 C0.99 0.33 1.98 0.66 3 1 C2.03900391 1.72703125 2.03900391 1.72703125 1.05859375 2.46875 C-3.93005394 6.33476609 -8.30834637 10.20751564 -12.34765625 15.0546875 C-14.54967154 17.64713103 -16.93632803 20.0142691 -19.3671875 22.390625 C-20.41381612 23.42223024 -21.44201741 24.47307809 -22.4453125 25.546875 C-23.57558604 26.7515977 -24.78227244 27.88374974 -26 29 C-26.99 29 -27.98 29 -29 29 C-27.88200014 27.66079162 -26.75538103 26.32877444 -25.625 25 C-24.68527344 23.88625 -24.68527344 23.88625 -23.7265625 22.75 C-22.87191406 21.88375 -22.87191406 21.88375 -22 21 C-21.34 21 -20.68 21 -20 21 C-19.67 20.01 -19.34 19.02 -19 18 C-17.37897032 16.28891311 -15.70496537 14.62746694 -14 13 C-13.2575 12.236875 -12.515 11.47375 -11.75 10.6875 C-7.95871776 6.98238326 -3.98283563 3.49691233 0 0 Z " fill="#68A130" transform="translate(129,258)"/>
<path d="M0 0 C0.99 0.33 1.98 0.66 3 1 C2.29875 1.680625 1.5975 2.36125 0.875 3.0625 C-1.21121407 5.13692755 -3.11880775 7.30117046 -5 9.5625 C-7.42789891 12.42842191 -9.89657231 14.84484188 -13 17 C-13.66 17 -14.32 17 -15 17 C-15 15.68 -15 14.36 -15 13 C-13.35 12.67 -11.7 12.34 -10 12 C-9.8453125 10.8553125 -9.8453125 10.8553125 -9.6875 9.6875 C-8.94932885 6.80192188 -8.37859197 5.73820183 -6 4 C-5.01 4 -4.02 4 -3 4 C-3 3.34 -3 2.68 -3 2 C-2.01 2 -1.02 2 0 2 C0 1.34 0 0.68 0 0 Z " fill="#EEBC30" transform="translate(192,191)"/>
<path d="M0 0 C0.625 1.8125 0.625 1.8125 1 4 C0.01 5.485 0.01 5.485 -1 7 C-1.20425074 9.11831178 -1.20425074 9.11831178 -1.0625 11.375 C-0.98024004 14.77507851 -1.29839065 17.66735561 -2 21 C-2.03824623 23.33301986 -2.04574284 25.66711508 -2 28 C-5.32459195 24.67540805 -5.21839641 20.94059691 -5.375 16.375 C-5.35914489 9.92197098 -3.3560506 5.41762454 0 0 Z " fill="#FCF7D0" transform="translate(121,212)"/>
<path d="M0 0 C3.89006773 1.38780795 6.96558708 3.2152227 10.3125 5.625 C11.19550781 6.25664062 12.07851562 6.88828125 12.98828125 7.5390625 C13.65214844 8.02117187 14.31601563 8.50328125 15 9 C14.67 9.99 14.34 10.98 14 12 C13.34 12 12.68 12 12 12 C11.34 10.35 10.68 8.7 10 7 C8.68 7 7.36 7 6 7 C5.67 7.99 5.34 8.98 5 10 C4.34 10 3.68 10 3 10 C3 9.34 3 8.68 3 8 C2.34 7.67 1.68 7.34 1 7 C1 5.68 1 4.36 1 3 C0.67 2.01 0.34 1.02 0 0 Z " fill="#F8F1EC" transform="translate(224,144)"/>
<path d="M0 0 C-1.16015625 0.85271484 -1.16015625 0.85271484 -2.34375 1.72265625 C-8.45716485 6.25475464 -14.37813242 10.85764465 -20 16 C-20.33 15.01 -20.66 14.02 -21 13 C-19.90536178 11.82438854 -18.79892814 10.6597511 -17.6875 9.5 C-17.07261719 8.8503125 -16.45773438 8.200625 -15.82421875 7.53125 C-14 6 -14 6 -11 6 C-11 5.34 -11 4.68 -11 4 C-10.34 4 -9.68 4 -9 4 C-9 3.01 -9 2.02 -9 1 C-3.375 -1.125 -3.375 -1.125 0 0 Z " fill="#FCEAE3" transform="translate(148,108)"/>
<path d="M0 0 C1.32 0.33 2.64 0.66 4 1 C4 1.99 4 2.98 4 4 C3.01 4.33 2.02 4.66 1 5 C1 5.99 1 6.98 1 8 C2.65 8.33 4.3 8.66 6 9 C6.33 10.32 6.66 11.64 7 13 C2.38486888 11.68139111 -1.09897612 9.78644563 -5 7 C-3.35 4.69 -1.7 2.38 0 0 Z " fill="#39A452" transform="translate(106,282)"/>
<path d="M0 0 C3.90950137 3.65393326 6.79707252 7.40794029 9.625 11.9375 C10.0065625 12.53240234 10.388125 13.12730469 10.78125 13.74023438 C13.09082 17.38378015 15.27791982 21.03521074 17 25 C16.1875 27.375 16.1875 27.375 15 29 C12 22.375 12 22.375 12 19 C11.34 19 10.68 19 10 19 C10 17.68 10 16.36 10 15 C9.34 15 8.68 15 8 15 C7.608125 14.154375 7.21625 13.30875 6.8125 12.4375 C5.42196954 9.80028705 4.06457047 7.62425459 2.3125 5.25 C0 2 0 2 0 0 Z " fill="#5B8DDD" transform="translate(277,128)"/>
<path d="M0 0 C1 2 1 2 0.44140625 3.9453125 C0.15136719 4.66460937 -0.13867188 5.38390625 -0.4375 6.125 C-0.72496094 6.84945312 -1.01242188 7.57390625 -1.30859375 8.3203125 C-1.53675781 8.87460938 -1.76492187 9.42890625 -2 10 C-2.99 10 -3.98 10 -5 10 C-5.1546875 11.051875 -5.1546875 11.051875 -5.3125 12.125 C-6.09825957 15.41090365 -7.48884171 17.97768341 -9 21 C-9.80023595 23.36917144 -10.54310301 25.74707626 -11.25390625 28.14453125 C-12 30 -12 30 -14 31 C-11.97754997 19.41881248 -6.37556985 9.66618655 0 0 Z " fill="#CD5F52" transform="translate(117,136)"/>
<path d="M0 0 C3.3 0 6.6 0 10 0 C6.90300706 1.54849647 4.19170404 2.62832608 0.9375 3.6875 C-5.31202651 5.90262867 -10.56170883 9.25525792 -16 13 C-16 12.01 -16 11.02 -16 10 C-15.34 10 -14.68 10 -14 10 C-14 9.01 -14 8.02 -14 7 C-12.02 6.67 -10.04 6.34 -8 6 C-8 5.34 -8 4.68 -8 4 C-6.68 4 -5.36 4 -4 4 C-4 3.34 -4 2.68 -4 2 C-2.68 2 -1.36 2 0 2 C0 1.34 0 0.68 0 0 Z " fill="#D65A54" transform="translate(180,139)"/>
<path d="M0 0 C0.66 0.33 1.32 0.66 2 1 C-3.40954323 9.29256626 -9.08804836 15.10966836 -17 21 C-17.33 20.34 -17.66 19.68 -18 19 C-16.12399562 17.01977315 -14.21737585 15.38389162 -12.0625 13.6875 C-9.83238632 11.87241988 -8.28173573 10.11991928 -6.75 7.6875 C-6.1725 6.800625 -5.595 5.91375 -5 5 C-4.34 5 -3.68 5 -3 5 C-2.690625 4.360625 -2.38125 3.72125 -2.0625 3.0625 C-1 1 -1 1 0 0 Z " fill="#5B8CD1" transform="translate(317,268)"/>
<path d="M0 0 C0.66 0.33 1.32 0.66 2 1 C1.443125 1.94875 0.88625 2.8975 0.3125 3.875 C-0.45887319 5.24969722 -1.22965061 6.62472881 -2 8 C-2.4434375 8.74894531 -2.886875 9.49789062 -3.34375 10.26953125 C-6.97379312 16.80149838 -7.85953958 22.56836707 -8 30 C-8.33 30 -8.66 30 -9 30 C-9.0544452 27.79194476 -9.09299283 25.58349446 -9.125 23.375 C-9.14820312 22.14523438 -9.17140625 20.91546875 -9.1953125 19.6484375 C-9.0030428 16.05683959 -8.30258556 13.33338825 -7 10 C-6.34 10 -5.68 10 -5 10 C-5 8.02 -5 6.04 -5 4 C-4.34 4.33 -3.68 4.66 -3 5 C-2.01 3.35 -1.02 1.7 0 0 Z " fill="#EBBE3D" transform="translate(124,204)"/>
<path d="M0 0 C0 0.66 0 1.32 0 2 C-9.71315012 7.57606766 -19.01219763 7.16991447 -30 7 C-30 6.67 -30 6.34 -30 6 C-28.98421875 5.90203125 -27.9684375 5.8040625 -26.921875 5.703125 C-18.9824325 4.86525549 -11.79019748 3.61650423 -4.2578125 0.8046875 C-2 0 -2 0 0 0 Z " fill="#E0F4FD" transform="translate(288,296)"/>
<path d="M0 0 C2.94649909 2.94649909 3.88284248 5.73538794 4.265625 9.8671875 C4.23567431 15.63269546 3.97647722 20.56468765 2 26 C1.67 26 1.34 26 1 26 C1.00523682 25.42556152 1.01047363 24.85112305 1.01586914 24.25927734 C1.03678576 21.63119623 1.04970659 19.00313271 1.0625 16.375 C1.07087891 15.47136719 1.07925781 14.56773437 1.08789062 13.63671875 C1.10491895 8.97095711 0.96829423 4.58986715 0 0 Z " fill="#E4F9FE" transform="translate(281,215)"/>
<path d="M0 0 C-1.31773204 3.00828582 -2.60401219 4.73996372 -5.1875 6.75 C-8.68716555 9.61402692 -11.53923213 12.79028921 -14.421875 16.265625 C-16 18 -16 18 -19 20 C-18.67 18.68 -18.34 17.36 -18 16 C-17.34 16 -16.68 16 -16 16 C-16 14.68 -16 13.36 -16 12 C-14.68 12 -13.36 12 -12 12 C-11.67 10.68 -11.34 9.36 -11 8 C-10.01 8 -9.02 8 -8 8 C-7.7525 7.4225 -7.505 6.845 -7.25 6.25 C-5.58207452 3.24773413 -3.67725381 0 0 0 Z " fill="#D1C02F" transform="translate(130,256)"/>
<path d="M0 0 C1.65 1.32 3.3 2.64 5 4 C5.66 3.67 6.32 3.34 7 3 C6.835 3.763125 6.67 4.52625 6.5 5.3125 C5.7983543 9.08384565 6.14450861 11.99819338 7 15.6875 C7.185625 16.49574219 7.37125 17.30398438 7.5625 18.13671875 C7.706875 18.75160156 7.85125 19.36648438 8 20 C2.23625491 14.77969373 0.54506788 7.49468329 0 0 Z " fill="#EEBE39" transform="translate(73,245)"/>
<path d="M0 0 C7.48291572 6.15034169 7.48291572 6.15034169 10 10 C8.35 10.66 6.7 11.32 5 12 C4.4465236 9.92446352 4 8.15634036 4 6 C2.27523089 5.04497842 2.27523089 5.04497842 0 5 C-2.77122275 7.35426499 -2.77122275 7.35426499 -5 10 C-5.66 9.67 -6.32 9.34 -7 9 C-6.57847656 8.51789063 -6.15695312 8.03578125 -5.72265625 7.5390625 C-5.17480469 6.90742187 -4.62695312 6.27578125 -4.0625 5.625 C-3.51722656 4.99851562 -2.97195313 4.37203125 -2.41015625 3.7265625 C-0.93041376 2.04367666 -0.93041376 2.04367666 0 0 Z " fill="#6082CF" transform="translate(267,118)"/>
<path d="M0 0 C5.53580086 8.30370129 5.3767667 17.31570036 5 27 C4.34 26.67 3.68 26.34 3 26 C3 20.39 3 14.78 3 9 C2.34 9 1.68 9 1 9 C0.67 6.03 0.34 3.06 0 0 Z " fill="#E0F7FD" transform="translate(252,173)"/>
<path d="M0 0 C0.33 0.99 0.66 1.98 1 3 C0.01 3.66 -0.98 4.32 -2 5 C-3.19232613 7.05003955 -3.19232613 7.05003955 -4 9 C-4.66 9 -5.32 9 -6 9 C-6.2475 9.804375 -6.495 10.60875 -6.75 11.4375 C-8 14 -8 14 -10.125 14.8125 C-10.74375 14.874375 -11.3625 14.93625 -12 15 C-12 15.66 -12 16.32 -12 17 C-12.66 16.67 -13.32 16.34 -14 16 C-2.70524412 1.35262206 -2.70524412 1.35262206 0 0 Z " fill="#5581D6" transform="translate(259,128)"/>
<path d="M0 0 C-2.64 1.65 -5.28 3.3 -8 5 C-8.33 4.34 -8.66 3.68 -9 3 C-9.33 3.66 -9.66 4.32 -10 5 C-12.64860427 5.59355614 -15.29197322 5.74209269 -18 6 C-11.95393226 1.09778291 -7.9818089 -1.99545223 0 0 Z " fill="#E44536" transform="translate(160,106)"/>
<path d="M0 0 C0.33 0.66 0.66 1.32 1 2 C1.99 2 2.98 2 4 2 C4 2.66 4 3.32 4 4 C2.3603279 5.36639342 0.68889872 6.6949419 -1 8 C-2.35147138 9.31494512 -3.69112542 10.64264858 -5 12 C-6.32 11.34 -7.64 10.68 -9 10 C-9 9.67 -9 9.34 -9 9 C-7.02 9 -5.04 9 -3 9 C-3.061875 8.071875 -3.12375 7.14375 -3.1875 6.1875 C-3 3 -3 3 -1.5 1.125 C-1.005 0.75375 -0.51 0.3825 0 0 Z " fill="#E1C027" transform="translate(105,275)"/>
<path d="M0 0 C0.93065133 2.60582371 1.14917407 3.64198224 0.0625 6.25 C-0.288125 6.8275 -0.63875 7.405 -1 8 C-0.01 8 0.98 8 2 8 C2 8.66 2 9.32 2 10 C0.68 10 -0.64 10 -2 10 C-2 9.34 -2 8.68 -2 8 C-3.32 8 -4.64 8 -6 8 C-6.2475 8.639375 -6.495 9.27875 -6.75 9.9375 C-8 12 -8 12 -10.125 12.75 C-11.053125 12.87375 -11.053125 12.87375 -12 13 C-11.67 12.01 -11.34 11.02 -11 10 C-8.9375 9.3125 -8.9375 9.3125 -7 9 C-7 8.34 -7 7.68 -7 7 C-6.030625 6.360625 -5.06125 5.72125 -4.0625 5.0625 C-0.75744775 3.28938993 -0.75744775 3.28938993 0 0 Z " fill="#EFBC3C" transform="translate(102,166)"/>
<path d="M0 0 C-0.33 0.99 -0.66 1.98 -1 3 C-1.99 3.33 -2.98 3.66 -4 4 C-5.21869929 6.50447516 -5.21869929 6.50447516 -6 9 C-6.556875 8.814375 -7.11375 8.62875 -7.6875 8.4375 C-10.399133 7.92448835 -12.34371039 8.3359276 -15 9 C-11.6214602 5.03388806 -5.46055995 0 0 0 Z " fill="#FCE7DF" transform="translate(181,142)"/>
<path d="M0 0 C0.33 0 0.66 0 1 0 C1.03738281 0.98097656 1.07476562 1.96195313 1.11328125 2.97265625 C1.55541356 12.57735166 2.85762853 21.62207207 5 31 C3 30 3 30 1.9375 27.0625 C1.4734375 25.5465625 1.4734375 25.5465625 1 24 C0.67 23.34 0.34 22.68 0 22 C-0.08426094 20.3325394 -0.10725143 18.66174813 -0.09765625 16.9921875 C-0.09443359 16.00605469 -0.09121094 15.01992187 -0.08789062 14.00390625 C-0.07951172 12.97136719 -0.07113281 11.93882812 -0.0625 10.875 C-0.05798828 9.83472656 -0.05347656 8.79445312 -0.04882812 7.72265625 C-0.03701952 5.14838038 -0.02055075 2.57421854 0 0 Z " fill="#FDEEB0" transform="translate(70,224)"/>
<path d="M0 0 C5.80342274 1.48805711 10.17590879 4.59097555 15 8 C14.360625 8.12375 13.72125 8.2475 13.0625 8.375 C12.381875 8.58125 11.70125 8.7875 11 9 C10.67 9.66 10.34 10.32 10 11 C9.75507813 10.38640625 9.51015625 9.7728125 9.2578125 9.140625 C7.74947715 6.57364433 6.55743212 5.96142096 3.875 4.75 C3.15054688 4.41484375 2.42609375 4.0796875 1.6796875 3.734375 C1.12539062 3.49203125 0.57109375 3.2496875 0 3 C0 2.01 0 1.02 0 0 Z " fill="#D6554B" transform="translate(247,105)"/>
<path d="M0 0 C0.625 1.8125 0.625 1.8125 1 4 C-1 7 -1 7 -4 8 C-4.66 8.66 -5.32 9.32 -6 10 C-8.125 9.625 -8.125 9.625 -10 9 C-8.625 7.5 -8.625 7.5 -7 6 C-6.34 6 -5.68 6 -5 6 C-4.731875 5.38125 -4.46375 4.7625 -4.1875 4.125 C-3 2 -3 2 0 0 Z " fill="#FBF1C3" transform="translate(197,190)"/>
<path d="M0 0 C-3.83376731 3.48524301 -7.04074377 4.6716278 -12 6 C-14.8334743 7.51462733 -14.8334743 7.51462733 -17 9 C-17 8.01 -17 7.02 -17 6 C-15 4.5625 -15 4.5625 -12 3 C-11.34902344 2.63261719 -10.69804688 2.26523438 -10.02734375 1.88671875 C-9.33769531 1.51160156 -8.64804688 1.13648438 -7.9375 0.75 C-6.96103516 0.21632812 -6.96103516 0.21632812 -5.96484375 -0.328125 C-3.58602746 -1.14155721 -2.33959705 -0.81286668 0 0 Z " fill="#FAA32D" transform="translate(120,161)"/>
<path d="M0 0 C0.33 0 0.66 0 1 0 C1 2.31 1 4.62 1 7 C4.465 6.505 4.465 6.505 8 6 C5.57195229 8.42804771 3.08774494 9.51788243 0 11 C-1.98 11.99 -1.98 11.99 -4 13 C-2.68 8.71 -1.36 4.42 0 0 Z " fill="#DD5129" transform="translate(108,154)"/>
<path d="M0 0 C1.98 0 3.96 0 6 0 C6 0.66 6 1.32 6 2 C7.134375 2.268125 8.26875 2.53625 9.4375 2.8125 C10.613125 3.204375 11.78875 3.59625 13 4 C13.33 4.99 13.66 5.98 14 7 C14.66 7 15.32 7 16 7 C15.67 7.66 15.34 8.32 15 9 C14.33613281 8.66226563 13.67226562 8.32453125 12.98828125 7.9765625 C12.10527344 7.53054687 11.22226563 7.08453125 10.3125 6.625 C9.44238281 6.18414062 8.57226562 5.74328125 7.67578125 5.2890625 C5.15227201 4.07335732 2.61262468 3.00739042 0 2 C0 1.34 0 0.68 0 0 Z " fill="#D55D52" transform="translate(216,139)"/>
<path d="M0 0 C1.65 1.32 3.3 2.64 5 4 C3.50592885 8.7312253 3.50592885 8.7312253 1 10.0625 C0.34 10.371875 -0.32 10.68125 -1 11 C-1.68268138 12.32520503 -2.3507041 13.65812182 -3 15 C-3.99 15.33 -4.98 15.66 -6 16 C-4.62925716 11.06532577 -2.20460894 9.68379294 2 7 C2.33 6.01 2.66 5.02 3 4 C2.01 3.67 1.02 3.34 0 3 C0 2.01 0 1.02 0 0 Z " fill="#B6596B" transform="translate(262,114)"/>
<path d="M0 0 C5.20699853 4.44126345 7.92118205 9.95874554 11 16 C10.01 16.33 9.02 16.66 8 17 C7.67 15.02 7.34 13.04 7 11 C6.01 11 5.02 11 4 11 C4 9.35 4 7.7 4 6 C3.34 6 2.68 6 2 6 C1.34 4.02 0.68 2.04 0 0 Z " fill="#5F91DC" transform="translate(312,180)"/>
<path d="M0 0 C1.65 0.33 3.3 0.66 5 1 C3.37660195 2.70884005 1.70680947 4.37446717 0 6 C-0.66 6 -1.32 6 -2 6 C-2 6.66 -2 7.32 -2 8 C-2.639375 8.12375 -3.27875 8.2475 -3.9375 8.375 C-4.618125 8.58125 -5.29875 8.7875 -6 9 C-6.33 9.66 -6.66 10.32 -7 11 C-6.25 6.25 -6.25 6.25 -4 4 C-2.68 4 -1.36 4 0 4 C0 2.68 0 1.36 0 0 Z " fill="#FDF6CE" transform="translate(97,167)"/>
<path d="M0 0 C0.66 0 1.32 0 2 0 C2 0.66 2 1.32 2 2 C2.99 2.33 3.98 2.66 5 3 C6.203125 4.5234375 6.203125 4.5234375 7.25 6.375 C7.60578125 6.98085938 7.9615625 7.58671875 8.328125 8.2109375 C9 10 9 10 8 13 C6.6578508 11.40320196 5.32652885 9.79729803 4 8.1875 C2.88625 6.84751953 2.88625 6.84751953 1.75 5.48046875 C0 3 0 3 0 0 Z " fill="#E9BF3D" transform="translate(81,265)"/>
<path d="M0 0 C0.33 1.32 0.66 2.64 1 4 C-0.65 5.32 -2.3 6.64 -4 8 C-4 4.09161134 -2.49432124 2.88405893 0 0 Z M-7 8 C-6.34 8.33 -5.68 8.66 -5 9 C-5.33 10.32 -5.66 11.64 -6 13 C-7.98 13.33 -9.96 13.66 -12 14 C-10.35 12.02 -8.7 10.04 -7 8 Z " fill="#DBEFFB" transform="translate(316,272)"/>
<path d="M0 0 C0.33 0 0.66 0 1 0 C0.64043142 5.57951246 0.12567332 10.19127181 -3 15 C-3.99 15.33 -4.98 15.66 -6 16 C-4.27933894 10.55123997 -2.15294651 5.28830549 0 0 Z " fill="#DDF2FD" transform="translate(327,250)"/>
<path d="M0 0 C1.60772472 3.21544944 0.61108592 6.57112899 0 10 C-0.33 10.99 -0.66 11.98 -1 13 C-1.66 12.67 -2.32 12.34 -3 12 C-3.66 12.66 -4.32 13.32 -5 14 C-4.46515599 8.65155992 -2.53309233 4.64203897 0 0 Z " fill="#EDBF40" transform="translate(80,192)"/>
<path d="M0 0 C4.94515667 2.62711448 8.87775489 6.26645294 13 10 C11.68 10.33 10.36 10.66 9 11 C9 10.01 9 9.02 9 8 C7.68 8 6.36 8 5 8 C4.67 7.01 4.34 6.02 4 5 C2.67151309 3.99357052 1.33849671 2.99307821 0 2 C0 1.34 0 0.68 0 0 Z " fill="#5D8DDA" transform="translate(299,169)"/>
<path d="M0 0 C3.08089673 2.77280706 4.68775452 5.06326356 6 9 C4.02 9.33 2.04 9.66 0 10 C0 6.66666667 0 3.33333333 0 0 Z " fill="#E5F4F8" transform="translate(243,158)"/>
<path d="M0 0 C0.33 0 0.66 0 1 0 C1 2.64 1 5.28 1 8 C4.63 8 8.26 8 12 8 C12 8.66 12 9.32 12 10 C12.66 10 13.32 10 14 10 C14 10.66 14 11.32 14 12 C9.38 11.01 4.76 10.02 0 9 C0 6.03 0 3.06 0 0 Z " fill="#6A94D9" transform="translate(257,192)"/>
<path d="M0 0 C1.27609323 0.90933009 2.54565553 1.82782853 3.8125 2.75 C4.87404297 3.51570312 4.87404297 3.51570312 5.95703125 4.296875 C8.02977691 6.02482358 9.47375854 7.78526476 11 10 C8.03 9.505 8.03 9.505 5 9 C4.67 7.35 4.34 5.7 4 4 C2.68 4 1.36 4 0 4 C0 2.68 0 1.36 0 0 Z " fill="#ECC348" transform="translate(188,170)"/>
<path d="M0 0 C0.66 0.33 1.32 0.66 2 1 C1.67 1.99 1.34 2.98 1 4 C1.7425 4.28875 2.485 4.5775 3.25 4.875 C5.56739797 5.82302644 7.77917115 6.84845911 10 8 C9.01 8.495 9.01 8.495 8 9 C6.65686601 8.35330586 5.32608822 7.68096422 4 7 C1.6756398 6.30269194 -0.65673706 5.63087848 -3 5 C-1.125 1.125 -1.125 1.125 0 0 Z " fill="#FCE9C3" transform="translate(163,152)"/>
<path d="M0 0 C-2.0978523 1.20005531 -4.2020249 2.38502983 -6.3125 3.5625 C-6.90740234 3.90474609 -7.50230469 4.24699219 -8.11523438 4.59960938 C-9.70282559 5.47766262 -11.34993931 6.24586268 -13 7 C-13.99 6.67 -14.98 6.34 -16 6 C-13.93243723 3.2027092 -12.85559629 2.97307727 -9.3125 2.3125 C-8.219375 2.209375 -7.12625 2.10625 -6 2 C-6 1.34 -6 0.68 -6 0 C-3 -1 -3 -1 0 0 Z " fill="#5B8BDA" transform="translate(299,290)"/>
<path d="M0 0 C0 0.99 0 1.98 0 3 C-1.94348501 4.73223664 -3.94720004 6.39881603 -6 8 C-6.66 8.66 -7.32 9.32 -8 10 C-9.65 9.01 -11.3 8.02 -13 7 C-12.401875 6.855625 -11.80375 6.71125 -11.1875 6.5625 C-9.43849596 6.1127561 -7.71322977 5.57107659 -6 5 C-5.67 4.34 -5.34 3.68 -5 3 C-3.35857037 1.9590934 -1.69287785 0.95495674 0 0 Z " fill="#9474A4" transform="translate(245,142)"/>
<path d="M0 0 C0.66 0.33 1.32 0.66 2 1 C1.01 2.485 1.01 2.485 0 4 C0.66 4 1.32 4 2 4 C1 6 1 6 -1.3125 6.875 C-4.28908843 8.12101376 -5.86007284 9.62230316 -8 12 C-8.66 11.67 -9.32 11.34 -10 11 C-9.44570312 10.45730469 -8.89140625 9.91460937 -8.3203125 9.35546875 C-7.23363281 8.28232422 -7.23363281 8.28232422 -6.125 7.1875 C-5.40570313 6.47980469 -4.68640625 5.77210938 -3.9453125 5.04296875 C-1.84641063 2.95600806 -1.84641063 2.95600806 0 0 Z " fill="#3CA547" transform="translate(122,266)"/>
<path d="M0 0 C1.5625 1.25 1.5625 1.25 3 3 C3 4.9375 3 4.9375 2 7 C-0.5625 9.25 -0.5625 9.25 -3 11 C-3.33 10.01 -3.66 9.02 -4 8 C-3.34 8 -2.68 8 -2 8 C-2 7.01 -2 6.02 -2 5 C-1.34 4.67 -0.68 4.34 0 4 C0 2.68 0 1.36 0 0 Z " fill="#EFC14C" transform="translate(199,180)"/>
<path d="M0 0 C2.00993705 3.01490557 2.72623341 5.2149927 3.625 8.6875 C3.88539063 9.68136719 4.14578125 10.67523438 4.4140625 11.69921875 C4.60742188 12.45847656 4.80078125 13.21773437 5 14 C0.17970402 10.26427061 0.17970402 10.26427061 -0.33203125 6.6640625 C-0.31436669 4.4241967 -0.21850902 2.22879201 0 0 Z " fill="#628DE2" transform="translate(294,155)"/>
<path d="M0 0 C0.66 0.33 1.32 0.66 2 1 C-3.75 6 -3.75 6 -6 6 C-6.33 6.99 -6.66 7.98 -7 9 C-7.99 8.67 -8.98 8.34 -10 8 C-8 5 -8 5 -5 4 C-4.34 3.01 -3.68 2.02 -3 1 C-2.01 0.67 -1.02 0.34 0 0 Z " fill="#FDF6C4" transform="translate(132,203)"/>
<path d="M0 0 C1.36125 0.12375 1.36125 0.12375 2.75 0.25 C2.75 0.91 2.75 1.57 2.75 2.25 C-0.8941774 4.6794516 -2.96241272 4.41179575 -7.25 4.25 C-4.83923194 1.28290085 -3.90322061 0.30024774 0 0 Z " fill="#F1BE0E" transform="translate(135.25,193.75)"/>
<path d="M0 0 C2.97 0.495 2.97 0.495 6 1 C6 1.33 6 1.66 6 2 C7.65 2.33 9.3 2.66 11 3 C11.33 4.32 11.66 5.64 12 7 C7.39104317 5.68315519 3.85859765 3.84801255 0 1 C0 0.67 0 0.34 0 0 Z " fill="#59A86F" transform="translate(101,288)"/>
<path d="M0 0 C0.66 0 1.32 0 2 0 C0.5682479 5.01113235 -1.98445693 6.94469549 -6 10 C-6 9.01 -6 8.02 -6 7 C-5.34 7 -4.68 7 -4 7 C-4 6.34 -4 5.68 -4 5 C-3.34 5 -2.68 5 -2 5 C-1.855625 4.360625 -1.71125 3.72125 -1.5625 3.0625 C-1 1 -1 1 0 0 Z " fill="#DBEFFD" transform="translate(280,241)"/>
<path d="M0 0 C0.66 0 1.32 0 2 0 C2.33 2.31 2.66 4.62 3 7 C4.32 7.33 5.64 7.66 7 8 C7 8.99 7 9.98 7 11 C3.95751406 9.47875703 2.29161316 8.55545364 0.6875 5.5 C0 3 0 3 0 0 Z " fill="#D9EFFD" transform="translate(297,161)"/>
<path d="M0 0 C1 3 1 3 -0.3125 5.6875 C-0.869375 6.450625 -1.42625 7.21375 -2 8 C-2.66 8 -3.32 8 -4 8 C-4.33 8.66 -4.66 9.32 -5 10 C-5.33 8.68 -5.66 7.36 -6 6 C-5.01 5.67 -4.02 5.34 -3 5 C-2.67 4.01 -2.34 3.02 -2 2 C-1.34 2 -0.68 2 0 2 C0 1.34 0 0.68 0 0 Z " fill="#F8FBEF" transform="translate(280,238)"/>
<path d="M0 0 C0.66 0.33 1.32 0.66 2 1 C2 2.98 2 4.96 2 7 C1.34 7 0.68 7 0 7 C0 8.65 0 10.3 0 12 C-0.33 12 -0.66 12 -1 12 C-1.02687279 10.18757948 -1.04633715 8.37504767 -1.0625 6.5625 C-1.07410156 5.55316406 -1.08570312 4.54382813 -1.09765625 3.50390625 C-1 1 -1 1 0 0 Z " fill="#F0BB23" transform="translate(74,233)"/>
<path d="M0 0 C1.37562854 1.28965176 2.70766393 2.62689293 4 4 C4 4.66 4 5.32 4 6 C0.25 7.125 0.25 7.125 -2 6 C-1.34 4.02 -0.68 2.04 0 0 Z " fill="#E3F4F5" transform="translate(277,209)"/>
<path d="M0 0 C1.32 0 2.64 0 4 0 C4.33 0.99 4.66 1.98 5 3 C4.01 3.99 3.02 4.98 2 6 C0.68 4.68 -0.64 3.36 -2 2 C-1.34 1.34 -0.68 0.68 0 0 Z " fill="#F5F9F7" transform="translate(323,191)"/>
<path d="M0 0 C2.375 0.6875 2.375 0.6875 5 2 C6.3125 4.625 6.3125 4.625 7 7 C5.68 7 4.36 7 3 7 C2.01 4.69 1.02 2.38 0 0 Z " fill="#FCF8D7" transform="translate(199,179)"/>
<path d="M0 0 C0 0.66 0 1.32 0 2 C-1.41543415 2.19658808 -2.83244031 2.38187546 -4.25 2.5625 C-5.03890625 2.66691406 -5.8278125 2.77132812 -6.640625 2.87890625 C-9.00532874 3.00027349 -10.7511037 2.69633257 -13 2 C-8.50343896 -0.24828052 -4.92127034 -0.16682272 0 0 Z " fill="#FCAA28" transform="translate(133,157)"/>
<path d="M0 0 C2.475 0.99 2.475 0.99 5 2 C5 2.99 5 3.98 5 5 C5.99 5 6.98 5 8 5 C7.67 5.99 7.34 6.98 7 8 C4.03 6.02 1.06 4.04 -2 2 C-1.34 1.34 -0.68 0.68 0 0 Z " fill="#FCDFDA" transform="translate(256,107)"/>
<path d="M0 0 C2.375 -0.1875 2.375 -0.1875 5 0 C5.66 0.99 6.32 1.98 7 3 C7.99 3.66 8.98 4.32 10 5 C8.35 5.33 6.7 5.66 5 6 C5 4.68 5 3.36 5 2 C3.02 2.33 1.04 2.66 -1 3 C-0.67 2.01 -0.34 1.02 0 0 Z " fill="#4FA654" transform="translate(131,255)"/>
<path d="M0 0 C3 1 3 1 4.6875 3.75 C5.93950669 6.85020705 6.28970125 8.71671912 6 12 C4.02433812 10.02433812 3.10420928 8.47662906 1.875 6 C1.52179688 5.29875 1.16859375 4.5975 0.8046875 3.875 C0 2 0 2 0 0 Z " fill="#6290DC" transform="translate(279,210)"/>
<path d="M0 0 C1.32 0 2.64 0 4 0 C4.66 0.99 5.32 1.98 6 3 C8.05925139 3.72382467 8.05925139 3.72382467 10 4 C10.33 5.65 10.66 7.3 11 9 C9.72689688 8.06558465 8.456612 7.12732889 7.1875 6.1875 C6.47980469 5.66542969 5.77210938 5.14335937 5.04296875 4.60546875 C3.21468607 3.16871123 1.60103312 1.68184237 0 0 Z " fill="#FDF5C2" transform="translate(186,168)"/>
<path d="M0 0 C0.33 0 0.66 0 1 0 C1.04254356 1.99954746 1.04080783 4.00041636 1 6 C0 7 0 7 -2.5625 7.0625 C-3.7690625 7.0315625 -3.7690625 7.0315625 -5 7 C-4.19152271 5.83054208 -3.37810888 4.66449539 -2.5625 3.5 C-2.11003906 2.8503125 -1.65757812 2.200625 -1.19140625 1.53125 C-0.79824219 1.0259375 -0.40507812 0.520625 0 0 Z " fill="#FEF5CC" transform="translate(180,206)"/>
<path d="M0 0 C0.99 0.33 1.98 0.66 3 1 C0.525 5.455 0.525 5.455 -2 10 C-2.33 10 -2.66 10 -3 10 C-3 8.35 -3 6.7 -3 5 C-2.34 5 -1.68 5 -1 5 C-0.67 3.35 -0.34 1.7 0 0 Z " fill="#FEF9D0" transform="translate(80,187)"/>
<path d="M0 0 C1.32 0 2.64 0 4 0 C2.63016497 3.16115776 2.0109362 3.9927092 -1 6 C-1 5.34 -1 4.68 -1 4 C-1.99 3.67 -2.98 3.34 -4 3 C-2.68 2.67 -1.36 2.34 0 2 C0 1.34 0 0.68 0 0 Z " fill="#DC4C44" transform="translate(160,150)"/>
<path d="M0 0 C1.32 0.66 2.64 1.32 4 2 C1.03 4.475 1.03 4.475 -2 7 C-2.33 5.68 -2.66 4.36 -3 3 C-2.01 2.67 -1.02 2.34 0 2 C0 1.34 0 0.68 0 0 Z " fill="#D84945" transform="translate(252,128)"/>
<path d="M0 0 C0.66 0.33 1.32 0.66 2 1 C1.5 2.9375 1.5 2.9375 0 5 C-2.69658452 5.68790422 -5.2017019 5.81946464 -8 6 C-5.38485683 3.87961365 -2.80362384 1.86908256 0 0 Z " fill="#D35A54" transform="translate(150,106)"/>
<path d="M0 0 C-1.5830577 4.2742558 -4.50568404 6.26531794 -8 9 C-7.53918323 4.85264908 -4.48412936 0 0 0 Z " fill="#C4BE33" transform="translate(130,256)"/>
<path d="M0 0 C0.66 0 1.32 0 2 0 C0.77472971 4.05281712 -0.69880494 7.44360764 -3 11 C-3.33 10.34 -3.66 9.68 -4 9 C-2.79149247 5.92379901 -1.47778215 2.9555643 0 0 Z " fill="#5B86D8" transform="translate(323,256)"/>
<path d="M0 0 C0.66 0 1.32 0 2 0 C2 1.65 2 3.3 2 5 C0.02 5.99 0.02 5.99 -2 7 C-2 5.35 -2 3.7 -2 2 C-1.34 2 -0.68 2 0 2 C0 1.34 0 0.68 0 0 Z " fill="#FCFEED" transform="translate(124,216)"/>
<path d="M0 0 C0.33 0.66 0.66 1.32 1 2 C3.52733235 2.65555119 3.52733235 2.65555119 6 3 C4.68 4.32 3.36 5.64 2 7 C0.4375 5.75 0.4375 5.75 -1 4 C-0.6875 1.8125 -0.6875 1.8125 0 0 Z " fill="#5283E4" transform="translate(239,149)"/>
<path d="M0 0 C0.33 0.66 0.66 1.32 1 2 C-0.24205807 5.72617422 -2.1110675 7.39291457 -5 10 C-5.66 10 -6.32 10 -7 10 C-5.33248852 6.05860922 -2.77289351 3.2107188 0 0 Z " fill="#CF695A" transform="translate(125,126)"/>
<path d="M0 0 C-1.4117783 0.53394179 -2.82970244 1.05165104 -4.25 1.5625 C-5.03890625 1.85253906 -5.8278125 2.14257812 -6.640625 2.44140625 C-9.19103452 3.04522837 -10.55322229 2.8473932 -13 2 C-8.63207758 -0.91194828 -5.00102117 -1.43657843 0 0 Z " fill="#D5544B" transform="translate(165,103)"/>
<path d="M0 0 C2 3 2 3 1.625 5.1875 C1.41875 5.785625 1.2125 6.38375 1 7 C-0.65 5.02 -2.3 3.04 -4 1 C-2.68 0.67 -1.36 0.34 0 0 Z " fill="#ECBE39" transform="translate(94,277)"/>
<path d="M0 0 C1.98 0.66 3.96 1.32 6 2 C6 2.66 6 3.32 6 4 C6.66 4 7.32 4 8 4 C8.33 4.99 8.66 5.98 9 7 C5.18315774 5.44499019 2.80804268 2.96404505 0 0 Z " fill="#FCF5C7" transform="translate(123,247)"/>
<path d="M0 0 C4.26086957 6.39130435 4.26086957 6.39130435 3.625 10.3125 C3.41875 10.869375 3.2125 11.42625 3 12 C3 11.01 3 10.02 3 9 C2.34 9 1.68 9 1 9 C0.67 6.03 0.34 3.06 0 0 Z " fill="#D6EEFD" transform="translate(252,173)"/>
<path d="M0 0 C0.33 0.99 0.66 1.98 1 3 C0.01 3.495 0.01 3.495 -1 4 C-1 4.99 -1 5.98 -1 7 C-3.31 7 -5.62 7 -8 7 C-6.62141149 4.24282298 -4.62533685 3.53678254 -2 2 C-1.34 1.34 -0.68 0.68 0 0 Z " fill="#DD4E43" transform="translate(134,119)"/>
<path d="M0 0 C1.32 0.66 2.64 1.32 4 2 C4 2.66 4 3.32 4 4 C2.125 4.625 2.125 4.625 0 5 C-0.66 4.34 -1.32 3.68 -2 3 C-1.34 2.01 -0.68 1.02 0 0 Z " fill="#F2FAF0" transform="translate(102,290)"/>
<path d="M0 0 C2.31 1.98 4.62 3.96 7 6 C5.68 6.33 4.36 6.66 3 7 C0 3.375 0 3.375 0 0 Z " fill="#FEF5C1" transform="translate(90,279)"/>
<path d="M0 0 C1.32 0.33 2.64 0.66 4 1 C4.33 2.32 4.66 3.64 5 5 C4.401875 4.835 3.80375 4.67 3.1875 4.5 C0.88655664 3.8885876 0.88655664 3.8885876 -2 4 C-1.34 3.67 -0.68 3.34 0 3 C0 2.01 0 1.02 0 0 Z " fill="#F8FADB" transform="translate(164,212)"/>
<path d="M0 0 C0.99 0.33 1.98 0.66 3 1 C2.75 2.875 2.75 2.875 2 5 C-0.0625 6.25 -0.0625 6.25 -2 7 C-1.125 1.125 -1.125 1.125 0 0 Z " fill="#F8FCF2" transform="translate(74,192)"/>
<path d="M0 0 C0.66 0 1.32 0 2 0 C0.84414715 3.91211733 -0.35534962 6.8745041 -3 10 C-4 7 -4 7 -3.22265625 5.17578125 C-2.1484375 3.45052083 -1.07421875 1.72526042 0 0 Z " fill="#FCE2DB" transform="translate(111,142)"/>
<path d="M0 0 C4.95 1.98 4.95 1.98 10 4 C10 4.33 10 4.66 10 5 C8.02 5 6.04 5 4 5 C4 4.34 4 3.68 4 3 C2.68 2.67 1.36 2.34 0 2 C0 1.34 0 0.68 0 0 Z " fill="#D3544F" transform="translate(237,100)"/>
<path d="M0 0 C-2.39509338 2.89932357 -4.31245243 3.50168276 -8 4 C-7.67 3.01 -7.34 2.02 -7 1 C-4.53721199 -0.231394 -2.7204945 -0.07159196 0 0 Z " fill="#D7F1FD" transform="translate(272,252)"/>
<path d="M0 0 C1.73662334 3.22515763 2.8905928 6.51329166 4 10 C3.34 10 2.68 10 2 10 C2 9.34 2 8.68 2 8 C1.34 8 0.68 8 0 8 C0 5.36 0 2.72 0 0 Z " fill="#E7C64E" transform="translate(116,234)"/>
<path d="M0 0 C0.33 0.66 0.66 1.32 1 2 C0.34 2 -0.32 2 -1 2 C-1.2475 2.639375 -1.495 3.27875 -1.75 3.9375 C-3 6 -3 6 -5.125 6.75 C-6.053125 6.87375 -6.053125 6.87375 -7 7 C-6.67 6.01 -6.34 5.02 -6 4 C-3.9375 3.3125 -3.9375 3.3125 -2 3 C-2 2.34 -2 1.68 -2 1 C-1.34 0.67 -0.68 0.34 0 0 Z " fill="#ECC757" transform="translate(97,172)"/>
<path d="M0 0 C-3.28463659 2.18975773 -6.20696275 2.99806563 -10 4 C-9.67 3.01 -9.34 2.02 -9 1 C-5.8035914 -0.06546953 -3.34252724 -0.07427838 0 0 Z " fill="#FDE9DF" transform="translate(165,99)"/>
<path d="M0 0 C0 0.99 0 1.98 0 3 C-4.43076923 5.09230769 -4.43076923 5.09230769 -7.3125 4.625 C-7.869375 4.41875 -8.42625 4.2125 -9 4 C-2.25 0 -2.25 0 0 0 Z " fill="#DCEFFD" transform="translate(297,291)"/>
<path d="M0 0 C1.98 0 3.96 0 6 0 C6.33 1.65 6.66 3.3 7 5 C3.535 3.02 3.535 3.02 0 1 C0 0.67 0 0.34 0 0 Z " fill="#628ED5" transform="translate(271,204)"/>
<path d="M0 0 C3.24208567 0.35049575 4.61527704 0.56221181 6.8125 3.0625 C7.204375 3.701875 7.59625 4.34125 8 5 C5 5 5 5 2.3125 2.5 C1.549375 1.675 0.78625 0.85 0 0 Z " fill="#DEF0FC" transform="translate(304,172)"/>
<path d="M0 0 C0.99 0 1.98 0 3 0 C3 1.65 3 3.3 3 5 C3.66 5.33 4.32 5.66 5 6 C4.34 6.66 3.68 7.32 3 8 C0 2.25 0 2.25 0 0 Z " fill="#E9F5FD" transform="translate(291,147)"/>
<path d="M0 0 C1.32 0 2.64 0 4 0 C3.34 1.32 2.68 2.64 2 4 C0.68 4 -0.64 4 -2 4 C-1.34 2.68 -0.68 1.36 0 0 Z " fill="#358BF6" transform="translate(264,134)"/>
<path d="M0 0 C1.32 0.33 2.64 0.66 4 1 C1.69 2.65 -0.62 4.3 -3 6 C-3 4.68 -3 3.36 -3 2 C-2.01 2 -1.02 2 0 2 C0 1.34 0 0.68 0 0 Z " fill="#FBDBD4" transform="translate(137,112)"/>
</svg>
