<?xml version="1.0" encoding="UTF-8"?>
<svg xmlns="http://www.w3.org/2000/svg" xmlns:xlink="http://www.w3.org/1999/xlink" viewBox="0 0 200 200" version="1.1">
<g id="surface1">
<path style=" stroke:none;fill-rule:nonzero;fill:rgb(0%,46.666667%,71.764708%);fill-opacity:1;" d="M 181.90625 0 L 18.09375 0 C 8.101562 0 0 8.101562 0 18.09375 L 0 181.90625 C 0 191.898438 8.101562 200 18.09375 200 L 181.90625 200 C 191.898438 200 200 191.898438 200 181.90625 L 200 18.09375 C 200 8.101562 191.898438 0 181.90625 0 Z M 61.890625 172.695312 C 61.890625 175.601562 59.53125 177.960938 56.625 177.960938 L 34.210938 177.960938 C 31.304688 177.960938 28.945312 175.601562 28.945312 172.695312 L 28.945312 78.742188 C 28.945312 75.835938 31.304688 73.480469 34.210938 73.480469 L 56.625 73.480469 C 59.53125 73.480469 61.890625 75.835938 61.890625 78.742188 Z M 45.417969 64.625 C 33.65625 64.625 24.125 55.09375 24.125 43.335938 C 24.125 31.574219 33.65625 22.039062 45.417969 22.039062 C 57.179688 22.039062 66.710938 31.574219 66.710938 43.335938 C 66.710938 55.09375 57.179688 64.625 45.417969 64.625 Z M 179.007812 173.117188 C 179.007812 175.789062 176.84375 177.960938 174.171875 177.960938 L 150.117188 177.960938 C 147.445312 177.960938 145.28125 175.789062 145.28125 173.117188 L 145.28125 129.050781 C 145.28125 122.476562 147.210938 100.242188 128.101562 100.242188 C 113.28125 100.242188 110.273438 115.460938 109.667969 122.289062 L 109.667969 173.117188 C 109.667969 175.789062 107.5 177.960938 104.828125 177.960938 L 81.570312 177.960938 C 78.894531 177.960938 76.726562 175.789062 76.726562 173.117188 L 76.726562 78.320312 C 76.726562 75.648438 78.894531 73.480469 81.570312 73.480469 L 104.828125 73.480469 C 107.5 73.480469 109.667969 75.648438 109.667969 78.320312 L 109.667969 86.515625 C 115.164062 78.269531 123.332031 71.90625 140.71875 71.90625 C 179.230469 71.90625 179.007812 107.882812 179.007812 127.648438 Z M 179.007812 173.117188 "/>
</g>
</svg>
