<?xml version="1.0" encoding="UTF-8"?>
<svg version="1.1" xmlns="http://www.w3.org/2000/svg" width="225" height="225">
<path d="M0 0 C74.25 0 148.5 0 225 0 C225 74.25 225 148.5 225 225 C150.75 225 76.5 225 0 225 C0 150.75 0 76.5 0 0 Z " fill="#0D5B92" transform="translate(0,0)"/>
<path d="M0 0 C74.25 0 148.5 0 225 0 C225 74.25 225 148.5 225 225 C150.75 225 76.5 225 0 225 C0 150.75 0 76.5 0 0 Z M46 37 C45.10152344 37.80050781 44.20304687 38.60101563 43.27734375 39.42578125 C27.09424561 54.7084288 13.30477275 78.29793144 11.80712891 100.91235352 C11.2665382 122.49502804 12.78721498 140.70045497 23 160 C23.69222656 161.40958984 23.69222656 161.40958984 24.3984375 162.84765625 C28.04757311 170.01488115 32.66921082 175.99942147 38 182 C38.92232422 183.04800781 38.92232422 183.04800781 39.86328125 184.1171875 C52.19106999 197.26330912 69.49263243 206.87738597 87 211 C88.01707031 211.27585938 89.03414063 211.55171875 90.08203125 211.8359375 C115.5250775 218.17489074 142.61134082 211.93975261 165 199 C188.75739947 183.75997806 205.18919638 160.2995021 212 133 C216.81717118 104.67625297 211.8056106 77.86071835 196 54 C192.04737719 48.61143391 187.85228124 43.6034463 183 39 C182.57203125 38.505 182.1440625 38.01 181.703125 37.5 C167.52684665 21.71610246 143.51526416 13.25098178 122.875 11.25 C120.91741891 11.15055069 118.95894742 11.06737121 117 11 C115.47632812 10.88785156 115.47632812 10.88785156 113.921875 10.7734375 C89.00779455 9.6517135 64.21549291 20.45977402 46 37 Z " fill="#FEFEFE" transform="translate(0,0)"/>
<path d="M0 0 C1.41732422 0.65355469 1.41732422 0.65355469 2.86328125 1.3203125 C20.9860411 10.49448969 32.69543627 25.5205346 39.30859375 44.5 C44.26240844 62.41209833 41.52805178 81.25121258 32.75 97.375 C22.0958906 114.34350613 6.89899848 125.58851504 -12.5 130.375 C-30.8225956 134.46905982 -48.13486718 130.66115693 -64.15869141 121.18457031 C-78.33915249 112.06184462 -87.39143456 98.04669171 -92 82 C-92.18401367 81.37367676 -92.36802734 80.74735352 -92.55761719 80.10205078 C-97.27967402 62.96039527 -93.27130637 44.68705584 -85.03515625 29.31640625 C-75.04658449 13.03944382 -60.36177169 2.54409496 -42.30859375 -3.16796875 C-29.13047624 -6.21678015 -12.33187346 -5.72996141 0 0 Z " fill="#F4F7F9" transform="translate(139,49)"/>
<path d="M0 0 C-2.34183853 17.88720506 -7.99325256 32.58489854 -22.57080078 44.2578125 C-37.05529107 55.15008069 -53.83203637 59.44653604 -71.8671875 57.7265625 C-83.09201159 56.00216923 -92.56836319 51.5527206 -101 44 C-102.21816406 42.97326172 -102.21816406 42.97326172 -103.4609375 41.92578125 C-112.45822781 33.77285203 -120.36740141 21.30087854 -122 9 C-122.0392834 6.33278907 -122.01282258 3.66766558 -122 1 C-109.48924403 0.86820133 -96.978475 0.73772402 -84.46768856 0.60884857 C-78.65594251 0.54894122 -72.84420157 0.48861002 -67.0324707 0.42724609 C-61.40438945 0.36783792 -55.77629689 0.30962672 -50.14819527 0.25218201 C-48.02085506 0.23027058 -45.89351896 0.20795647 -43.76618767 0.18519592 C-29.1769405 0.02946587 -14.59007197 -0.02924195 0 0 Z " fill="#09578F" transform="translate(174,116)"/>
<path d="M0 0 C0.97066406 0.06815918 0.97066406 0.06815918 1.9609375 0.13769531 C27.99942083 2.04145235 51.44848084 12.41203385 70 31 C72.17834444 33.55606212 74.087592 36.24221487 76 39 C76.52980469 39.67933594 77.05960938 40.35867187 77.60546875 41.05859375 C85.74356324 51.8038581 92.59372209 65.67953298 95 79 C95.27263672 80.4540625 95.27263672 80.4540625 95.55078125 81.9375 C96.35887107 87.83385676 96.18438099 93.81140067 96.1875 99.75 C96.19974609 100.96171875 96.21199219 102.1734375 96.22460938 103.421875 C96.26986464 131.4197962 84.4042448 154.54017628 65.25 174.25 C58.80051062 180.6731147 51.91172236 185.54735626 44 190 C43.01515625 190.56203125 42.0303125 191.1240625 41.015625 191.703125 C19.38840554 203.27661001 -6.34937762 206.46299824 -30 200 C-31.01835938 199.75636719 -32.03671875 199.51273438 -33.0859375 199.26171875 C-49.1158515 195.00188014 -63.05037854 186.29942147 -75 175 C-76.00546875 174.11248047 -76.00546875 174.11248047 -77.03125 173.20703125 C-90.64604548 160.67523087 -98.35877878 142.54368527 -103 125 C-103.18618896 124.34193359 -103.37237793 123.68386719 -103.56420898 123.00585938 C-109.85659719 98.54641933 -104.18786978 73.41651994 -92 52 C-91.45601562 51.01644531 -90.91203125 50.03289063 -90.3515625 49.01953125 C-77.46827755 27.24363742 -54.81877306 10.13632786 -30.5078125 3.3828125 C-20.31521911 0.79695927 -10.5455157 -0.89491762 0 0 Z M-50 19 C-50.99773437 19.556875 -51.99546875 20.11375 -53.0234375 20.6875 C-76.60567537 34.74224349 -90.87095727 57.87017536 -97.52270508 83.97045898 C-101.43393145 100.60167374 -99.7154064 118.03343494 -94 134 C-93.74831055 134.70592285 -93.49662109 135.4118457 -93.23730469 136.13916016 C-84.28142811 160.35382268 -66.63050815 177.63831026 -43.6875 188.8125 C-23.79066495 197.84277936 1.11871196 199.78063966 22 193 C22.62342285 192.80664062 23.2468457 192.61328125 23.88916016 192.4140625 C47.56481185 184.94300221 67.45447269 168.17172434 79.20898438 146.27490234 C90.36003773 124.58474369 94.2783763 98.54920598 87.3984375 74.83618164 C82.633074 60.00335067 76.01094663 47.08808111 65 36 C64.12472656 35.10925781 63.24945313 34.21851562 62.34765625 33.30078125 C43.02488538 14.77248554 19.91627089 6.30377847 -6.6340332 6.53173828 C-23.04909654 6.95374206 -35.79607466 10.91940495 -50 19 Z " fill="#EAEFF4" transform="translate(117,11)"/>
<path d="M0 0 C1.7015625 0.02707031 1.7015625 0.02707031 3.4375 0.0546875 C4.283125 0.07789063 5.12875 0.10109375 6 0.125 C6.07516846 0.71700195 6.15033691 1.30900391 6.2277832 1.91894531 C7.70998838 13.5480381 9.23552441 25.16200546 11.08520508 36.73925781 C11.68431975 40.57584188 12.16439807 44.22641724 12 48.125 C11.09378906 48.05539063 10.18757813 47.98578125 9.25390625 47.9140625 C1.83066695 47.58414075 -3.11474903 47.7931087 -9.1328125 52.32421875 C-11.3196942 54.43332432 -13.15320576 56.71595951 -15 59.125 C-20.95401075 52.12768828 -26.12944418 44.69332241 -31.25463867 37.07885742 C-34.69416006 31.97873237 -38.25835059 27.00811267 -42 22.125 C-42.99 22.455 -43.98 22.785 -45 23.125 C-43.46668842 19.0826331 -40.65299494 16.86121417 -37.3125 14.3125 C-36.74378174 13.87744141 -36.17506348 13.44238281 -35.58911133 12.99414062 C-25.22567517 5.35896021 -13.03606671 -0.27158472 0 0 Z " fill="#F6F9FA" transform="translate(108,44.875)"/>
<path d="M0 0 C0.97066406 0.06815918 0.97066406 0.06815918 1.9609375 0.13769531 C27.99942083 2.04145235 51.44848084 12.41203385 70 31 C72.17834444 33.55606212 74.087592 36.24221487 76 39 C76.52980469 39.67933594 77.05960938 40.35867187 77.60546875 41.05859375 C85.74356324 51.8038581 92.59372209 65.67953298 95 79 C95.27263672 80.4540625 95.27263672 80.4540625 95.55078125 81.9375 C96.35887107 87.83385676 96.18438099 93.81140067 96.1875 99.75 C96.19974609 100.96171875 96.21199219 102.1734375 96.22460938 103.421875 C96.26986464 131.4197962 84.4042448 154.54017628 65.25 174.25 C58.80051062 180.6731147 51.91172236 185.54735626 44 190 C43.01515625 190.56203125 42.0303125 191.1240625 41.015625 191.703125 C19.38840554 203.27661001 -6.34937762 206.46299824 -30 200 C-31.01835938 199.75636719 -32.03671875 199.51273438 -33.0859375 199.26171875 C-49.1158515 195.00188014 -63.05037854 186.29942147 -75 175 C-76.00546875 174.11248047 -76.00546875 174.11248047 -77.03125 173.20703125 C-90.64604548 160.67523087 -98.35877878 142.54368527 -103 125 C-103.18618896 124.34193359 -103.37237793 123.68386719 -103.56420898 123.00585938 C-109.85659719 98.54641933 -104.18786978 73.41651994 -92 52 C-91.45601562 51.01644531 -90.91203125 50.03289063 -90.3515625 49.01953125 C-77.46827755 27.24363742 -54.81877306 10.13632786 -30.5078125 3.3828125 C-20.31521911 0.79695927 -10.5455157 -0.89491762 0 0 Z M-65 25 C-65.845625 25.72445312 -66.69125 26.44890625 -67.5625 27.1953125 C-81.56182113 39.44471849 -91.05131135 53.84386474 -98 71 C-98.43699219 72.07765625 -98.87398437 73.1553125 -99.32421875 74.265625 C-106.72331574 96.5927247 -103.38036077 125.07795713 -93.03466797 145.94726562 C-79.74530704 171.17321686 -58.28790605 187.98328291 -31.5390625 197.19140625 C-15.01314304 202.08103397 3.46083889 201.67451886 20 197 C21.24910156 196.64808594 22.49820313 196.29617187 23.78515625 195.93359375 C36.79690759 192.03139001 47.78600981 185.89867507 58 177 C58.88300781 176.27296875 59.76601562 175.5459375 60.67578125 174.796875 C79.70594562 158.5391391 91.18104493 134.77263544 94 110 C95.75913954 81.44781211 86.58992296 55.49107761 68 34 C67.41734375 33.31550781 66.8346875 32.63101563 66.234375 31.92578125 C49.60505241 13.91068177 24.21114763 4.19258325 0.2265625 2.77734375 C-23.53671176 2.24045248 -46.93795031 9.19570652 -65 25 Z " fill="#125991" transform="translate(117,11)"/>
<path d="M0 0 C-0.32904148 2.04910437 -0.65808296 4.09820875 -0.98712444 6.14731312 C-1.23110075 7.67710615 -1.46919733 9.20783883 -1.7043457 10.73901367 C-2.4213937 14.99026439 -3.07882725 18.66526796 -6 22 C-8.59375 22.62890625 -8.59375 22.62890625 -11.5 22.5625 C-12.93859375 22.56443359 -12.93859375 22.56443359 -14.40625 22.56640625 C-17 22 -17 22 -18.78515625 20.1171875 C-20.24083607 17.58027927 -20.92822353 15.94283507 -21 13 C-19.40754196 9.88746838 -18.08177982 8.36059327 -14.7265625 7.2421875 C-12.48908504 6.74104902 -10.26928581 6.32487639 -8 6 C-14.06368033 4.78419598 -14.06368033 4.78419598 -19.8125 6.4375 C-20.534375 6.953125 -21.25625 7.46875 -22 8 C-23.32 8 -24.64 8 -26 8 C-25.01 9.485 -25.01 9.485 -24 11 C-24.375 13.6875 -24.375 13.6875 -25 16 C-26.65 16 -28.3 16 -30 16 C-29.195625 16.78375 -28.39125 17.5675 -27.5625 18.375 C-23.97644061 22.04852426 -23.86246241 23.92913056 -23.671875 29.02734375 C-24.08895652 31.53479815 -25.08854396 32.39538295 -27 34 C-27.09796875 33.41992188 -27.1959375 32.83984375 -27.296875 32.2421875 C-28.30924877 26.95340728 -29.73445737 23.38807291 -33 19 C-33.69429379 17.6808418 -34.37530495 16.35350594 -35 15 C-36.98 15.33 -38.96 15.66 -41 16 C-42.09313158 20.58380387 -42.32258308 25.1258238 -42.5625 29.8125 C-42.706875 32.514375 -42.85125 35.21625 -43 38 C-48.61 38 -54.22 38 -60 38 C-59.34 36.68 -58.68 35.36 -58 34 C-54.7 34 -51.4 34 -48 34 C-48.04640625 32.99582031 -48.0928125 31.99164063 -48.140625 30.95703125 C-48.43907325 21.46264627 -47.43632839 13.95899902 -44 5 C-44.92683594 4.93941406 -45.85367188 4.87882812 -46.80859375 4.81640625 C-48.00613281 4.73261719 -49.20367187 4.64882812 -50.4375 4.5625 C-51.63246094 4.48128906 -52.82742187 4.40007812 -54.05859375 4.31640625 C-57 4 -57 4 -58 3 C-59.48242497 2.89131647 -60.96994444 2.85097176 -62.45629883 2.83886719 C-63.87831352 2.82445587 -63.87831352 2.82445587 -65.32905579 2.80975342 C-66.36128769 2.80550354 -67.39351959 2.80125366 -68.45703125 2.796875 C-69.51153976 2.79117493 -70.56604828 2.78547485 -71.6525116 2.77960205 C-73.88950593 2.77013469 -76.12651433 2.76361121 -78.36352539 2.75976562 C-81.78752015 2.75007073 -85.2109122 2.71906762 -88.63476562 2.6875 C-90.80468392 2.68096926 -92.97460653 2.67571907 -95.14453125 2.671875 C-96.68377007 2.6533548 -96.68377007 2.6533548 -98.25410461 2.63446045 C-99.21157089 2.63746155 -100.16903717 2.64046265 -101.15551758 2.64355469 C-101.99633377 2.63990906 -102.83714996 2.63626343 -103.70344543 2.63250732 C-106.51099749 3.08176938 -107.83479243 4.20843882 -110 6 C-112.25 6.6875 -112.25 6.6875 -114 7 C-111.03 7.495 -111.03 7.495 -108 8 C-108.99 8.495 -108.99 8.495 -110 9 C-110 9.66 -110 10.32 -110 11 C-108.68 11.66 -107.36 12.32 -106 13 C-105.63924051 18.41139241 -105.63924051 18.41139241 -107.1875 20.9375 C-109 22 -109 22 -111.6875 21.6875 C-112.450625 21.460625 -113.21375 21.23375 -114 21 C-112.18585949 22.81414051 -109.45040946 22.6350454 -107 23 C-106.67 23.99 -106.34 24.98 -106 26 C-105.38125 26.61875 -104.7625 27.2375 -104.125 27.875 C-102 30 -102 30 -100.5 32.625 C-98.87908595 35.19144725 -97.7921737 35.94089963 -95 37 C-95.54723683 40.37462715 -96.0549 42.08235 -98 45 C-106.64633189 41.1334381 -111.63910623 33.52988868 -115.9375 25.4375 C-116.50343872 24.37583618 -116.50343872 24.37583618 -117.08081055 23.29272461 C-120.93232699 15.71166957 -122.04022943 9.43221549 -122 1 C-109.48924403 0.86820133 -96.978475 0.73772402 -84.46768856 0.60884857 C-78.65594251 0.54894122 -72.84420157 0.48861002 -67.0324707 0.42724609 C-61.40438945 0.36783792 -55.77629689 0.30962672 -50.14819527 0.25218201 C-48.02085506 0.23027058 -45.89351896 0.20795647 -43.76618767 0.18519592 C-29.1769405 0.02946587 -14.59007197 -0.02924195 0 0 Z " fill="#0D5991" transform="translate(174,116)"/>
<path d="M0 0 C17.29256002 -1.12167957 30.88975023 5.67356666 44.19921875 16.16796875 C46 18 46 18 46 21 C45.13544189 21.40508789 45.13544189 21.40508789 44.25341797 21.81835938 C41.96750933 23.01703736 40.01197116 24.36244579 37.9453125 25.90625 C37.171875 26.48109131 36.3984375 27.05593262 35.6015625 27.64819336 C34.78429687 28.25928955 33.96703125 28.87038574 33.125 29.5 C31.41962303 30.76219475 29.71389066 32.02390945 28.0078125 33.28515625 C25.59925319 35.06973408 23.19227269 36.8561569 20.79199219 38.65185547 C18.86794241 40.08962206 16.93525411 41.51487181 15 42.9375 C14.43168457 43.36804688 13.86336914 43.79859375 13.27783203 44.2421875 C11.6875 45.40234375 11.6875 45.40234375 9 47 C8.01 46.67 7.02 46.34 6 46 C4.97763951 40.33713801 3.98050469 34.67025641 3 29 C2.85594727 28.17209961 2.71189453 27.34419922 2.56347656 26.49121094 C-0.44444625 9.03707379 -0.44444625 9.03707379 0 0 Z " fill="#F7F9FB" transform="translate(114,45)"/>
<path d="M0 0 C30.03 0 60.06 0 91 0 C91 0.33 91 0.66 91 1 C90.14450562 1.03758423 90.14450562 1.03758423 89.27172852 1.07592773 C86.70173843 1.19156549 84.13214473 1.31443624 81.5625 1.4375 C80.21575195 1.49647461 80.21575195 1.49647461 78.84179688 1.55664062 C77.98779297 1.59853516 77.13378906 1.64042969 76.25390625 1.68359375 C75.06776733 1.73858032 75.06776733 1.73858032 73.85766602 1.79467773 C71.98598559 1.80563257 71.98598559 1.80563257 71 3 C68 3.125 68 3.125 65 3 C64.505 2.505 64.505 2.505 64 2 C62.51757503 1.89131647 61.03005556 1.85097176 59.54370117 1.83886719 C58.12168648 1.82445587 58.12168648 1.82445587 56.67094421 1.80975342 C55.63871231 1.80550354 54.60648041 1.80125366 53.54296875 1.796875 C52.48846024 1.79117493 51.43395172 1.78547485 50.3474884 1.77960205 C48.11049407 1.77013469 45.87348567 1.76361121 43.63647461 1.75976562 C40.21247985 1.75007073 36.7890878 1.71906762 33.36523438 1.6875 C31.19531608 1.68096926 29.02539347 1.67571907 26.85546875 1.671875 C25.31622993 1.6533548 25.31622993 1.6533548 23.74589539 1.63446045 C22.78842911 1.63746155 21.83096283 1.64046265 20.84448242 1.64355469 C20.00366623 1.63990906 19.16285004 1.63626343 18.29655457 1.63250732 C15.48900251 2.08176938 14.16520757 3.20843882 12 5 C9.75 5.6875 9.75 5.6875 8 6 C10.97 6.495 10.97 6.495 14 7 C13.01 7.495 13.01 7.495 12 8 C12 8.66 12 9.32 12 10 C13.32 10.66 14.64 11.32 16 12 C16.36075949 17.41139241 16.36075949 17.41139241 14.8125 19.9375 C13 21 13 21 10.3125 20.6875 C9.549375 20.460625 8.78625 20.23375 8 20 C9.81414051 21.81414051 12.54959054 21.6350454 15 22 C15.33 22.99 15.66 23.98 16 25 C16.61875 25.61875 17.2375 26.2375 17.875 26.875 C20 29 20 29 21.5 31.625 C23.12091405 34.19144725 24.2078263 34.94089963 27 36 C26.45276317 39.37462715 25.9451 41.08235 24 44 C15.35366811 40.1334381 10.36089377 32.52988868 6.0625 24.4375 C5.49656128 23.37583618 5.49656128 23.37583618 4.91918945 22.29272461 C0.9824362 14.54389541 0 8.81385857 0 0 Z " fill="#0B5991" transform="translate(52,117)"/>
<path d="M0 0 C-0.03222656 0.97839844 -0.06445312 1.95679687 -0.09765625 2.96484375 C-0.15474534 10.93697579 -0.15474534 10.93697579 3.0703125 18 C5.28880993 20.16981567 7.51320562 22.14620783 10 24 C8.99682617 25.48168945 8.99682617 25.48168945 7 27 C4.27093638 27.26156261 1.7753901 27.34921131 -0.94921875 27.29296875 C-1.72183548 27.28872391 -2.49445221 27.28447906 -3.29048157 27.28010559 C-5.75650992 27.26332183 -8.22171896 27.22567147 -10.6875 27.1875 C-12.36001423 27.17245271 -14.03254128 27.15876438 -15.70507812 27.14648438 C-19.80370078 27.11341946 -23.90171151 27.06164028 -28 27 C-26.41602335 23.1302057 -23.79009848 20.48382802 -20.87890625 17.578125 C-20.37834213 17.07327576 -19.87777802 16.56842651 -19.36204529 16.04827881 C-18.30633086 14.98683881 -17.24800937 13.92798621 -16.18725586 12.87158203 C-14.56273849 11.25023802 -12.95202851 9.61598684 -11.34179688 7.98046875 C-10.31331093 6.94971105 -9.28404054 5.91973535 -8.25390625 4.890625 C-7.77256729 4.40007629 -7.29122833 3.90952759 -6.79530334 3.40411377 C-3.34381447 0 -3.34381447 0 0 0 Z " fill="#E7EEF3" transform="translate(164,77)"/>
<path d="M0 0 C1.625 2.4375 1.625 2.4375 3 5 C3.99 5.33 4.98 5.66 6 6 C6 7.65 6 9.3 6 11 C7.093125 10.835 8.18625 10.67 9.3125 10.5 C13 10 13 10 16 10 C15.3503125 10.4846875 14.700625 10.969375 14.03125 11.46875 C9.21392954 15.09356064 9.21392954 15.09356064 6.33203125 20.171875 C6.2966264 23.93895064 7.23957257 26.75219102 9 30 C9.04125 28.700625 9.0825 27.40125 9.125 26.0625 C9.73647183 20.37940888 12.3424671 16.30351508 16 12 C16.99 11.34 17.98 10.68 19 10 C17.87548273 12.9719385 16.77706209 15.33440687 15 18 C14.52756459 23.76371206 15.08186143 26.89325751 18 32 C18 32.66 18 33.32 18 34 C22.68886785 36.34920874 27.1774349 36.43045925 32.3125 36.625 C33.14845703 36.66367188 33.98441406 36.70234375 34.84570312 36.7421875 C36.89679259 36.83595159 38.94836515 36.91904245 41 37 C41 37.66 41 38.32 41 39 C40.34773438 39.02578125 39.69546875 39.0515625 39.0234375 39.078125 C33.01877775 39.46780793 29.77082316 40.39279225 25 44 C24.01 44 23.02 44 22 44 C21.67 43.34 21.34 42.68 21 42 C18.48898027 41.30727563 18.48898027 41.30727563 15.5625 40.875 C14.07943359 40.62363281 14.07943359 40.62363281 12.56640625 40.3671875 C10.10211702 39.95278924 10.10211702 39.95278924 8 40 C8.52268466 37.23723823 9.10869587 34.6739124 10 32 C9.2575 31.814375 8.515 31.62875 7.75 31.4375 C3.84137991 29.39435768 3.07117827 26.86619944 1 23 C0.01 22.34 -0.98 21.68 -2 21 C-2 20.01 -2 19.02 -2 18 C-2.94875 18.020625 -3.8975 18.04125 -4.875 18.0625 C-8 18 -8 18 -10 17 C-9.67 16.34 -9.34 15.68 -9 15 C-8.21625 15.20625 -7.4325 15.4125 -6.625 15.625 C-5.75875 15.74875 -4.8925 15.8725 -4 16 C-1.69337401 14.11340125 -1.69337401 14.11340125 -1.6875 11 C-1.790625 10.01 -1.89375 9.02 -2 8 C-2.99 7.34 -3.98 6.68 -5 6 C-5 5.34 -5 4.68 -5 4 C-6.98 3.34 -8.96 2.68 -11 2 C-11 1.67 -11 1.34 -11 1 C-3.00541516 -0.48736462 -3.00541516 -0.48736462 0 0 Z " fill="#DAE4EC" transform="translate(69,121)"/>
<path d="M0 0 C5.64467005 3.4637748 5.64467005 3.4637748 7.71875 6.59375 C10.34549948 9.36443095 11.92794837 9.63084028 15.68359375 9.79492188 C16.70646484 9.80362305 16.70646484 9.80362305 17.75 9.8125 C18.44738281 9.83763672 19.14476562 9.86277344 19.86328125 9.88867188 C21.57491949 9.94728962 23.2875186 9.97657053 25 10 C24.55506965 14.36393893 21.66582289 16.73347441 18.6875 19.640625 C18.15858154 20.16767029 17.62966309 20.69471558 17.0847168 21.23773193 C15.96850194 22.34723699 14.84870121 23.4531446 13.72558594 24.55566406 C11.9992873 26.25069979 10.2839903 27.956277 8.5703125 29.6640625 C7.48499765 30.74021165 6.39908081 31.8157541 5.3125 32.890625 C4.79582764 33.40304749 4.27915527 33.91546997 3.74682617 34.44342041 C0.11716933 38 0.11716933 38 -1 38 C-1.02471455 33.0703976 -1.04286691 28.14083126 -1.05493164 23.21118164 C-1.05996113 21.53409192 -1.06678548 19.85700658 -1.07543945 18.17993164 C-1.08756559 15.769683 -1.09324215 13.35949232 -1.09765625 10.94921875 C-1.10281754 10.19912033 -1.10797882 9.44902191 -1.11329651 8.67619324 C-1.11363785 5.51048768 -1.00887343 3.02662028 0 0 Z " fill="#F0F4F7" transform="translate(123,51)"/>
<path d="M0 0 C0.33 0.99 0.66 1.98 1 3 C1.66 3 2.32 3 3 3 C3.33 2.34 3.66 1.68 4 1 C4.54938232 1.55461914 5.09876465 2.10923828 5.66479492 2.68066406 C8.16970056 5.20643291 10.67855445 7.72824437 13.1875 10.25 C14.05181641 11.12269531 14.91613281 11.99539062 15.80664062 12.89453125 C17.06831055 14.16103516 17.06831055 14.16103516 18.35546875 15.453125 C19.12528076 16.22817383 19.89509277 17.00322266 20.68823242 17.80175781 C23.00563975 20.0798189 23.00563975 20.0798189 25.7902832 22.15917969 C26.51948975 22.76665039 27.24869629 23.37412109 28 24 C28 24.66 28 25.32 28 26 C10.675 26.495 10.675 26.495 -7 27 C-8 25 -8 25 -8 22 C-6.89121049 21.03885609 -5.73725649 20.1292946 -4.5625 19.25 C-0.70670372 15.66628612 -0.27492449 12.12045135 -0.0625 7.0625 C0.00801414 4.70317985 0.02127225 2.36122029 0 0 Z " fill="#EBF0F5" transform="translate(61,78)"/>
<path d="M0 0 C1.69141656 0.08963062 3.37959602 0.24577676 5.0625 0.4375 C6.44115234 0.59025391 6.44115234 0.59025391 7.84765625 0.74609375 C8.55792969 0.82988281 9.26820313 0.91367188 10 1 C9.67 1.66 9.34 2.32 9 3 C6.75651093 3.56310682 4.51231184 3.89225193 2.2265625 4.2421875 C-0.6957208 5.23678918 -1.53894712 6.30195346 -3 9 C-3.36034523 11.58881802 -3.36034523 11.58881802 -3.1875 14.25 C-3.16042969 15.14203125 -3.13335937 16.0340625 -3.10546875 16.953125 C-3.05326172 17.96632812 -3.05326172 17.96632812 -3 19 C-1.68 19.66 -0.36 20.32 1 21 C0.0409375 21.3403125 0.0409375 21.3403125 -0.9375 21.6875 C-1.618125 22.120625 -2.29875 22.55375 -3 23 C-3.185625 24.1446875 -3.185625 24.1446875 -3.375 25.3125 C-4 28 -4 28 -7.125 30.3125 C-10.20211734 32.58537926 -10.20211734 32.58537926 -10.171875 35.09375 C-9.87736754 37.57556174 -9.87736754 37.57556174 -9 41 C-10.5159375 40.9071875 -10.5159375 40.9071875 -12.0625 40.8125 C-16.37593715 41.01790177 -19.10061506 42.23424078 -23 44 C-27 44 -27 44 -28.6875 42.5625 C-31.72066584 40.51306362 -34.2831972 40.46560829 -37.87890625 40.2109375 C-40 40 -40 40 -43 39 C-38.05436616 36.58041397 -33.17408638 36.64860318 -27.79492188 36.609375 C-24.30866125 36.49152957 -22.36375523 36.2855978 -19.58203125 34.1015625 C-16.4826034 29.98429785 -15.56514768 26.32974684 -15.6640625 21.13671875 C-16.25565404 17.3739214 -18.06943365 14.24059351 -20 11 C-18 11 -18 11 -16.59765625 12.3984375 C-12.52862959 17.63743874 -10.50493905 22.55780475 -9 29 C-7.39130471 25.78260942 -7.38989912 22.47958635 -8 19 C-10.22930256 16.18731921 -10.22930256 16.18731921 -13 14 C-14.02813611 12.68824014 -15.04084432 11.3630107 -16 10 C-13.36 10.33 -10.72 10.66 -8 11 C-8.495 7.535 -8.495 7.535 -9 4 C-8.43410156 3.79503906 -7.86820313 3.59007813 -7.28515625 3.37890625 C-6.18494141 2.97478516 -6.18494141 2.97478516 -5.0625 2.5625 C-4.33160156 2.29566406 -3.60070312 2.02882813 -2.84765625 1.75390625 C-1.01694322 1.14613052 -1.01694322 1.14613052 0 0 Z " fill="#B1C7D9" transform="translate(157,120)"/>
<path d="M0 0 C1.90845703 0.15275391 1.90845703 0.15275391 3.85546875 0.30859375 C4.83128906 0.39238281 5.80710938 0.47617188 6.8125 0.5625 C6.27018532 3.40481 5.65049224 6.09915072 4.8125 8.875 C3.07537018 15.57720984 3.1299795 22.6782077 2.8125 29.5625 C2.12542969 29.62308594 1.43835938 29.68367188 0.73046875 29.74609375 C-0.62111328 29.87177734 -0.62111328 29.87177734 -2 30 C-3.33998047 30.12181641 -3.33998047 30.12181641 -4.70703125 30.24609375 C-7.31493559 30.49739767 -7.31493559 30.49739767 -10.1875 31.5625 C-10.1875 21.3325 -10.1875 11.1025 -10.1875 0.5625 C-6.51762779 -0.66079074 -3.84782178 -0.31771006 0 0 Z " fill="#F3F6F9" transform="translate(123.1875,120.4375)"/>
<path d="M0 0 C0 9.9 0 19.8 0 30 C-4.29 29.67 -8.58 29.34 -13 29 C-13.03738281 27.90042969 -13.07476562 26.80085938 -13.11328125 25.66796875 C-13.47210797 17.07849326 -14.1828842 9.20329946 -17 1 C-13.28719555 -2.71280445 -3.91456962 -0.43495218 0 0 Z " fill="#F8FAFB" transform="translate(112,121)"/>
<path d="M0 0 C0.66 0.33 1.32 0.66 2 1 C1.28457031 1.93457031 0.56914062 2.86914062 -0.16796875 3.83203125 C-6.62370348 12.32653431 -12.80099081 20.9406193 -18.63354492 29.87817383 C-19.1463501 30.64798584 -19.65915527 31.41779785 -20.1875 32.2109375 C-20.85845703 33.23646729 -20.85845703 33.23646729 -21.54296875 34.28271484 C-23.18549728 36.21863067 -24.67622888 37.02782274 -27 38 C-27.39832031 37.51789063 -27.79664063 37.03578125 -28.20703125 36.5390625 C-28.73683594 35.90742187 -29.26664063 35.27578125 -29.8125 34.625 C-30.33457031 33.99851563 -30.85664062 33.37203125 -31.39453125 32.7265625 C-33.08225739 30.7778952 -33.08225739 30.7778952 -36 29 C-34.6691034 25.90580927 -33.43242313 24.28766495 -30.6484375 22.40625 C-29.96910156 21.93872314 -29.28976563 21.47119629 -28.58984375 20.98950195 C-27.85894531 20.49796631 -27.12804687 20.00643066 -26.375 19.5 C-24.83970652 18.44349479 -23.3058908 17.38483943 -21.7734375 16.32421875 C-20.98678711 15.78071777 -20.20013672 15.2372168 -19.38964844 14.67724609 C-15.53232683 11.96986977 -11.76307388 9.14878893 -8 6.3125 C-7.31212402 5.79558594 -6.62424805 5.27867188 -5.91552734 4.74609375 C-2.84405169 2.50747937 -2.84405169 2.50747937 0 0 Z " fill="#08578F" transform="translate(158,65)"/>
<path d="M0 0 C2.81023834 1.33018207 5.28842289 2.82370237 7.80078125 4.65234375 C8.52410645 5.17675049 9.24743164 5.70115723 9.99267578 6.24145508 C10.75821777 6.8011499 11.52375977 7.36084473 12.3125 7.9375 C13.10124512 8.51072998 13.88999023 9.08395996 14.70263672 9.67456055 C17.13776552 11.44607401 19.56944524 13.22221718 22 15 C23.14202881 15.8348291 23.14202881 15.8348291 24.30712891 16.68652344 C28.54285166 19.78455593 32.77352522 22.88936443 37 26 C35.25848527 29.77996976 33.02198753 32.1254265 30 35 C28.9976443 35.99763873 27.99708881 36.99709726 27 38 C21.04598925 31.00268828 15.87055582 23.56832241 10.74536133 15.95385742 C7.65271515 11.3680792 4.47061624 6.89565722 1.08837891 2.51806641 C0 1 0 1 0 0 Z " fill="#06568F" transform="translate(66,66)"/>
<path d="M0 0 C2.61432699 2.61432699 2.62712265 4.41776913 3.25390625 8.046875 C3.46853516 9.28566406 3.68316406 10.52445313 3.90429688 11.80078125 C4.01249756 12.45127441 4.12069824 13.10176758 4.23217773 13.77197266 C4.55460338 15.70271366 4.8933126 17.63071304 5.23242188 19.55859375 C6.67929498 28.06498365 7.50488037 36.38825625 8 45 C3.05 45 -1.9 45 -7 45 C-5.05834657 29.92276696 -2.71261449 14.9577169 0 0 Z " fill="#095890" transform="translate(112,48)"/>
<path d="M0 0 C4.82743779 2.36817703 7.48645595 5.26293622 10 10 C10 11.65 10 13.3 10 15 C0.43 15 -9.14 15 -19 15 C-17.93447307 7.54131151 -17.80731527 6.80731527 -13 2 C-8.77082733 -0.55494349 -4.82261949 -0.67097315 0 0 Z " fill="#0C5A91" transform="translate(117,98)"/>
<path d="M0 0 C4.51185026 4.27438446 6.75271031 6.52710313 7.375 12.75 C7.2622155 17.38284008 5.65016811 21.2241752 3 25 C-0.79163027 27.52775351 -3.80874031 27.22443035 -8.1875 27.125 C-8.93708984 27.11597656 -9.68667969 27.10695312 -10.45898438 27.09765625 C-12.30612654 27.07412578 -14.15310412 27.03825561 -16 27 C-14.09598862 25.09598862 -12.66574314 24.06479561 -9.953125 23.80078125 C-7.96766727 23.8113422 -5.9830086 23.90084957 -4 24 C-4.02320313 22.84242188 -4.04640625 21.68484375 -4.0703125 20.4921875 C-4.08908148 18.95313149 -4.10728046 17.41406845 -4.125 15.875 C-4.14175781 15.11445313 -4.15851563 14.35390625 -4.17578125 13.5703125 C-4.21518468 8.99951406 -3.89576422 5.25552667 -2 1 C-1.34 0.67 -0.68 0.34 0 0 Z " fill="#05558E" transform="translate(135,130)"/>
<path d="M0 0 C1.33333333 2 2.66666667 4 4 6 C6.43693311 6.36416047 6.43693311 6.36416047 9.125 6.1875 C10.03507812 6.16042969 10.94515625 6.13335937 11.8828125 6.10546875 C12.58148438 6.07066406 13.28015625 6.03585938 14 6 C14.33 6.66 14.66 7.32 15 8 C10.96497215 17.12267167 3.78519646 26.19824938 -5 31 C-5.66 28.03 -6.32 25.06 -7 22 C-6.05125 21.278125 -5.1025 20.55625 -4.125 19.8125 C-1.27575905 17.4637112 -0.23101901 15.5036695 1 12 C1.99 11.34 2.98 10.68 4 10 C3.34 9.46375 2.68 8.9275 2 8.375 C0 6 0 6 -0.25 2.75 C-0.1675 1.8425 -0.085 0.935 0 0 Z " fill="#0A5890" transform="translate(153,131)"/>
<path d="M0 0 C0.33 0 0.66 0 1 0 C1 11.55 1 23.1 1 35 C-2.92175855 33.03912073 -4.94122867 31.29119537 -7.984375 28.2109375 C-8.44483215 27.74765045 -8.90528931 27.2843634 -9.37969971 26.80703735 C-10.84125078 25.33434102 -12.29567168 23.85482597 -13.75 22.375 C-14.74302611 21.37193678 -15.73651089 20.36932743 -16.73046875 19.3671875 C-19.15897941 16.91669165 -21.58114675 14.4600333 -24 12 C-20.81579155 12 -20.03619037 12.36234439 -17.42578125 13.96875 C-16.75869141 14.37480469 -16.09160156 14.78085938 -15.40429688 15.19921875 C-14.71400391 15.62847656 -14.02371094 16.05773437 -13.3125 16.5 C-12.61060547 16.92925781 -11.90871094 17.35851562 -11.18554688 17.80078125 C-9.45340009 18.86127928 -7.72621518 19.92987398 -6 21 C-3.57919742 14.0834212 -1.70022388 7.12647031 0 0 Z " fill="#25679A" transform="translate(103,54)"/>
<path d="M0 0 C0 3.3001751 -0.52770015 4.2523015 -2.1875 7.01171875 C-2.63867188 7.76904297 -3.08984375 8.52636719 -3.5546875 9.30664062 C-4.03164062 10.09232422 -4.50859375 10.87800781 -5 11.6875 C-5.47695312 12.48478516 -5.95390625 13.28207031 -6.4453125 14.10351562 C-7.62440393 16.07259831 -8.80946003 18.03782548 -10 20 C-9.2265625 20.12117188 -8.453125 20.24234375 -7.65625 20.3671875 C-1.68117941 21.32852312 4.15592579 22.42659541 10 24 C10 24.33 10 24.66 10 25 C-1.22 25 -12.44 25 -24 25 C-20.51466895 20.93378044 -17.23815147 17.11323733 -13.4765625 13.37890625 C-12.68378906 12.58935547 -11.89101562 11.79980469 -11.07421875 10.98632812 C-10.26597656 10.18646484 -9.45773438 9.38660156 -8.625 8.5625 C-7.79355469 7.73556641 -6.96210938 6.90863281 -6.10546875 6.05664062 C-4.0725896 4.03544469 -2.03740037 2.01663665 0 0 Z " fill="#03528C" transform="translate(160,78)"/>
<path d="M0 0 C1.91244568 3.82489136 2.75944057 6.90519185 3.625 11.0625 C3.88539062 12.29097656 4.14578125 13.51945312 4.4140625 14.78515625 C5 18 5 18 5 21 C10.83152493 17.88708633 16.58700334 14.80372738 22 11 C22.66 11.33 23.32 11.66 24 12 C20.74592504 15.27871843 17.48863647 18.55419645 14.22827148 21.82666016 C13.11864792 22.94132524 12.0099218 24.05688443 10.90209961 25.17333984 C9.31336495 26.77414804 7.72147383 28.37175612 6.12890625 29.96875 C5.63097061 30.47184692 5.13303497 30.97494385 4.62001038 31.49328613 C3.43217036 32.68132102 2.21862122 33.84356015 1 35 C0.67 35 0.34 35 0 35 C0 23.45 0 11.9 0 0 Z " fill="#08568E" transform="translate(122,54)"/>
<path d="M0 0 C5.21015144 4.26285118 9.9501445 8.87275867 14.64746094 13.68457031 C16.97724247 16.05417717 19.23987691 18.18758767 21.8671875 20.2421875 C22.57101563 20.82226562 23.27484375 21.40234375 24 22 C24 22.66 24 23.32 24 24 C13.11 24 2.22 24 -9 24 C-5.43647806 22.21823903 -2.1704479 21.03162634 1.625 19.875 C2.77226563 19.52179688 3.91953125 19.16859375 5.1015625 18.8046875 C8 18 8 18 10 18 C9.36191406 16.95199219 8.72382812 15.90398437 8.06640625 14.82421875 C7.23161527 13.44540668 6.39698839 12.06649523 5.5625 10.6875 C5.14162109 9.99720703 4.72074219 9.30691406 4.28710938 8.59570312 C3.88427734 7.92861328 3.48144531 7.26152344 3.06640625 6.57421875 C2.69459229 5.96151123 2.32277832 5.34880371 1.93969727 4.7175293 C1 3 1 3 0 0 Z " fill="#08568F" transform="translate(65,80)"/>
<path d="M0 0 C1.69141656 0.08963062 3.37959602 0.24577676 5.0625 0.4375 C6.44115234 0.59025391 6.44115234 0.59025391 7.84765625 0.74609375 C8.55792969 0.82988281 9.26820313 0.91367188 10 1 C9.67 1.66 9.34 2.32 9 3 C6.75651093 3.56310682 4.51231184 3.89225193 2.2265625 4.2421875 C-0.6957208 5.23678918 -1.53894712 6.30195346 -3 9 C-3.36034523 11.58881802 -3.36034523 11.58881802 -3.1875 14.25 C-3.16042969 15.14203125 -3.13335937 16.0340625 -3.10546875 16.953125 C-3.07066406 17.62859375 -3.03585938 18.3040625 -3 19 C-1.68 19.66 -0.36 20.32 1 21 C0.360625 21.226875 -0.27875 21.45375 -0.9375 21.6875 C-3.27193661 22.85250896 -3.27193661 22.85250896 -3.75 25.625 C-3.8325 26.40875 -3.915 27.1925 -4 28 C-5.32 28 -6.64 28 -8 28 C-7.94199219 27.40832031 -7.88398438 26.81664062 -7.82421875 26.20703125 C-7.4804425 20.75176258 -7.4804425 20.75176258 -10.3125 16.1875 C-11.199375 15.465625 -12.08625 14.74375 -13 14 C-14.02813611 12.68824014 -15.04084432 11.3630107 -16 10 C-13.36 10.33 -10.72 10.66 -8 11 C-8.33 8.69 -8.66 6.38 -9 4 C-8.43410156 3.79503906 -7.86820313 3.59007813 -7.28515625 3.37890625 C-6.55167969 3.10949219 -5.81820312 2.84007813 -5.0625 2.5625 C-4.33160156 2.29566406 -3.60070312 2.02882813 -2.84765625 1.75390625 C-1.01694322 1.14613052 -1.01694322 1.14613052 0 0 Z " fill="#91AFC9" transform="translate(157,120)"/>
<path d="M0 0 C1.625 2.4375 1.625 2.4375 3 5 C3.99 5.33 4.98 5.66 6 6 C6 7.65 6 9.3 6 11 C7.65 11 9.3 11 11 11 C10.01 12.485 10.01 12.485 9 14 C8.195625 14.144375 7.39125 14.28875 6.5625 14.4375 C3.84165613 14.76966932 3.84165613 14.76966932 2.1875 17.0625 C1.795625 17.701875 1.40375 18.34125 1 19 C1.99 19 2.98 19 4 19 C4.33 21.31 4.66 23.62 5 26 C4.773125 25.360625 4.54625 24.72125 4.3125 24.0625 C3.14749104 21.72806339 3.14749104 21.72806339 0.375 21.25 C-0.40875 21.1675 -1.1925 21.085 -2 21 C-2 20.01 -2 19.02 -2 18 C-2.94875 18.020625 -3.8975 18.04125 -4.875 18.0625 C-8 18 -8 18 -10 17 C-9.67 16.34 -9.34 15.68 -9 15 C-8.21625 15.20625 -7.4325 15.4125 -6.625 15.625 C-5.75875 15.74875 -4.8925 15.8725 -4 16 C-1.69337401 14.11340125 -1.69337401 14.11340125 -1.6875 11 C-1.790625 10.01 -1.89375 9.02 -2 8 C-2.99 7.34 -3.98 6.68 -5 6 C-5 5.34 -5 4.68 -5 4 C-6.98 3.34 -8.96 2.68 -11 2 C-11 1.67 -11 1.34 -11 1 C-3.00541516 -0.48736462 -3.00541516 -0.48736462 0 0 Z " fill="#4D7EA9" transform="translate(69,121)"/>
<path d="M0 0 C-0.33 2.64 -0.66 5.28 -1 8 C-13.54 8 -26.08 8 -39 8 C-39 7.67 -39 7.34 -39 7 C-33.76769308 6.00076681 -28.53494107 5.00391081 -23.30175781 4.00927734 C-21.52070812 3.67041656 -19.73978291 3.33090084 -17.95898438 2.99072266 C-15.40266669 2.50251722 -12.84591394 2.01665126 -10.2890625 1.53125 C-9.49005524 1.37813354 -8.69104797 1.22501709 -7.86782837 1.06726074 C-2.22774341 0 -2.22774341 0 0 0 Z " fill="#0B5890" transform="translate(93,105)"/>
<path d="M0 0 C13.06122459 1.70031011 26.05189931 3.57867083 39 6 C39 6.33 39 6.66 39 7 C26.13 7 13.26 7 0 7 C0 4.69 0 2.38 0 0 Z " fill="#09548E" transform="translate(133,105)"/>
<path d="M0 0 C0 0.99 0 1.98 0 3 C-2.49854767 3.65192688 -4.9986137 4.29663064 -7.5 4.9375 C-8.19609375 5.11990234 -8.8921875 5.30230469 -9.609375 5.49023438 C-17.37179383 7.46677621 -24.87413508 8.19436328 -32.875 8.1875 C-34.0503833 8.1884668 -34.0503833 8.1884668 -35.24951172 8.18945312 C-41.0068661 8.13703773 -46.43668571 7.56555578 -52 6 C-51.67 5.01 -51.34 4.02 -51 3 C-50.24589844 3.15984375 -49.49179688 3.3196875 -48.71484375 3.484375 C-31.48205057 5.87630844 -16.40652786 0 0 0 Z " fill="#1C5F95" transform="translate(143,206)"/>
<path d="M0 0 C2.21841726 2.04873662 3.6340381 3.90619106 4.9375 6.625 C5.27386475 7.32592773 5.61022949 8.02685547 5.95678711 8.74902344 C6.30104736 9.4918457 6.64530762 10.23466797 7 11 C7.35521729 11.76602539 7.71043457 12.53205078 8.07641602 13.32128906 C12.69803182 23.50578224 14.48460235 32.82120271 15 44 C14.34 44 13.68 44 13 44 C12.67 44.99 12.34 45.98 12 47 C11.82984375 45.76765625 11.6596875 44.5353125 11.484375 43.265625 C9.27100407 27.87178604 4.77682914 14.93437902 -2 1 C-1.34 0.67 -0.68 0.34 0 0 Z " fill="#145B92" transform="translate(198,59)"/>
<path d="M0 0 C1.9375 0.6875 1.9375 0.6875 3.9375 1.6875 C4.88684202 4.61463788 5.16926473 6.11581368 4 9 C3.649375 9.556875 3.29875 10.11375 2.9375 10.6875 C3.5975 10.6875 4.2575 10.6875 4.9375 10.6875 C4.9375 11.3475 4.9375 12.0075 4.9375 12.6875 C3.6175 12.6875 2.2975 12.6875 0.9375 12.6875 C0.9375 14.0075 0.9375 15.3275 0.9375 16.6875 C2.2575 16.6875 3.5775 16.6875 4.9375 16.6875 C4.9375 17.3475 4.9375 18.0075 4.9375 18.6875 C1.9675 18.6875 -1.0025 18.6875 -4.0625 18.6875 C-4.0625 18.0275 -4.0625 17.3675 -4.0625 16.6875 C-2.7425 16.6875 -1.4225 16.6875 -0.0625 16.6875 C-0.0625 15.3675 -0.0625 14.0475 -0.0625 12.6875 C-1.7125 13.0175 -3.3625 13.3475 -5.0625 13.6875 C-4.876875 13.06875 -4.69125 12.45 -4.5 11.8125 C-3.82563824 9.64589822 -3.82563824 9.64589822 -5.0625 7.6875 C-5.3125 4.6875 -5.3125 4.6875 -5.0625 1.6875 C-2.0625 -0.3125 -2.0625 -0.3125 0 0 Z " fill="#457EA9" transform="translate(193.0625,94.3125)"/>
<path d="M0 0 C2 0 2 0 3.40234375 1.3984375 C7.47137041 6.63743874 9.49506095 11.55780475 11 18 C11.99 18 12.98 18 14 18 C12.71034824 19.37562854 11.37310707 20.70766393 10 22 C9.34 22 8.68 22 8 22 C8 22.66 8 23.32 8 24 C6.35 24 4.7 24 3 24 C2.67 24.99 2.34 25.98 2 27 C0.68 26.67 -0.64 26.34 -2 26 C-1.38125 25.278125 -0.7625 24.55625 -0.125 23.8125 C3.24265275 19.35531254 4.44388067 15.80373505 4.3359375 10.13671875 C3.74434596 6.3739214 1.93056635 3.24059351 0 0 Z " fill="#C8D7E4" transform="translate(137,131)"/>
<path d="M0 0 C1.65222746 2.47834119 2.69624425 4.53298599 3.8125 7.25 C5.71965137 11.64724334 8.09012705 15.20099921 11 19 C10.39414063 19.01417969 9.78828125 19.02835938 9.1640625 19.04296875 C2.14526578 19.44250026 -2.94264262 21.50735351 -9 25 C-7.61421944 21.82006877 -6.85243389 20.88857253 -3.9375 18.6875 C0.05390391 14.96801655 -0.23203904 10.13648208 -0.05053711 5.0300293 C-0.01399002 3.35366658 -0.00426655 1.67675563 0 0 Z " fill="#145C93" transform="translate(61,78)"/>
<path d="M0 0 C5.64467005 3.4637748 5.64467005 3.4637748 7.71875 6.59375 C10.34549948 9.36443095 11.92794837 9.63084028 15.68359375 9.79492188 C16.70646484 9.80362305 16.70646484 9.80362305 17.75 9.8125 C18.44738281 9.83763672 19.14476562 9.86277344 19.86328125 9.88867188 C21.57491949 9.94728962 23.2875186 9.97657053 25 10 C22.21307316 11.43146697 19.39338341 12.67602948 16.5 13.875 C12.93053624 15.43407612 10.61863227 17.06713186 8 20 C7.34 20 6.68 20 6 20 C5.98582031 19.3709375 5.97164062 18.741875 5.95703125 18.09375 C5.62767506 12.18314167 4.53739198 8.40296682 1.05859375 3.59375 C0 2 0 2 0 0 Z " fill="#0F5991" transform="translate(123,51)"/>
<path d="M0 0 C0.66 0 1.32 0 2 0 C-0 5 -0 5 -1.0625 7.3125 C-2.30479869 10.87375623 -2.61852412 14.24882052 -3 18 C-3.6290625 17.59007813 -4.258125 17.18015625 -4.90625 16.7578125 C-10.25783639 13.38889215 -14.77600408 11.15259184 -21 10 C-21 9.34 -21 8.68 -21 8 C-19.98679687 8.00902344 -18.97359375 8.01804687 -17.9296875 8.02734375 C-10.43726025 8.14984072 -10.43726025 8.14984072 -3.73828125 5.375 C-2.1678036 3.49130345 -2.1678036 3.49130345 -0.98046875 1.49609375 C-0.65691406 1.00238281 -0.33335938 0.50867187 0 0 Z " fill="#09548E" transform="translate(99,53)"/>
<path d="M0 0 C0.33 0 0.66 0 1 0 C0.96777344 0.97839844 0.93554688 1.95679687 0.90234375 2.96484375 C0.84525466 10.93697579 0.84525466 10.93697579 4.0703125 18 C6.28880993 20.16981567 8.51320562 22.14620783 11 24 C7.81386217 24 6.65622474 23.46308092 3.875 22.0625 C-0.81232852 19.88431614 -4.86152701 19.32625225 -10 19 C-9.60167969 18.57589844 -9.20335937 18.15179688 -8.79296875 17.71484375 C-3.9120221 12.31136267 -1.11064207 7.33023769 0 0 Z " fill="#0D5790" transform="translate(163,77)"/>
<path d="M0 0 C0.33 0 0.66 0 1 0 C-0.30038662 12.82506303 -8.11996983 23.24377217 -16 33 C-17.32 32.67 -18.64 32.34 -20 32 C-19.5153125 31.45214844 -19.030625 30.90429688 -18.53125 30.33984375 C-11.60358061 22.14654245 -7.04083844 13.1813765 -2.33203125 3.609375 C-1 1 -1 1 0 0 Z " fill="#105890" transform="translate(206,144)"/>
<path d="M0 0 C26.07 0 52.14 0 79 0 C79 0.33 79 0.66 79 1 C78.14450562 1.03758423 78.14450562 1.03758423 77.27172852 1.07592773 C74.70173843 1.19156549 72.13214473 1.31443624 69.5625 1.4375 C68.21575195 1.49647461 68.21575195 1.49647461 66.84179688 1.55664062 C65.98779297 1.59853516 65.13378906 1.64042969 64.25390625 1.68359375 C63.06776733 1.73858032 63.06776733 1.73858032 61.85766602 1.79467773 C59.98598559 1.80563257 59.98598559 1.80563257 59 3 C56 3.125 56 3.125 53 3 C52.505 2.505 52.505 2.505 52 2 C50.37420782 1.87718048 48.74322996 1.82217496 47.11303711 1.79467773 C46.07203354 1.77473251 45.03102997 1.75478729 43.95848083 1.73423767 C42.8262056 1.71752518 41.69393036 1.70081268 40.52734375 1.68359375 C39.37456436 1.66281265 38.22178497 1.64203156 37.03407288 1.62062073 C33.33527843 1.55500036 29.63641041 1.49618245 25.9375 1.4375 C23.43684121 1.39432665 20.93618999 1.35071276 18.43554688 1.30664062 C12.29044338 1.19930632 6.14526596 1.09756357 0 1 C0 0.67 0 0.34 0 0 Z " fill="#004987" transform="translate(64,117)"/>
<path d="M0 0 C2.475 0.495 2.475 0.495 5 1 C4.45276317 4.37462715 3.9451 6.08235 2 9 C0.75573454 13.50737224 0.67537051 18.16579953 0.4375 22.8125 C0.293125 25.514375 0.14875 28.21625 0 31 C-5.61 31 -11.22 31 -17 31 C-16.67 30.34 -16.34 29.68 -16 29 C-11.38 29 -6.76 29 -2 29 C-2.04640625 27.88882813 -2.0928125 26.77765625 -2.140625 25.6328125 C-2.39044491 16.95059462 -2.30692301 9.82552529 2 2 C1.34 2 0.68 2 0 2 C0 1.34 0 0.68 0 0 Z " fill="#D3DFE9" transform="translate(131,123)"/>
<path d="M0 0 C1.65 0 3.3 0 5 0 C4.773125 0.515625 4.54625 1.03125 4.3125 1.5625 C3.75176216 4.19615206 3.75176216 4.19615206 5.46875 7.09375 C7.39872477 11.39786888 7.34287687 15.28814588 7.1875 19.9375 C7.17396484 20.71673828 7.16042969 21.49597656 7.14648438 22.29882812 C7.11150224 24.19952404 7.05770959 26.09985834 7 28 C11.62 28 16.24 28 21 28 C21.33 28.66 21.66 29.32 22 30 C16.39 30 10.78 30 5 30 C4.96132812 28.081875 4.96132812 28.081875 4.921875 26.125 C4.86555525 24.41663435 4.80820882 22.70830233 4.75 21 C4.73582031 20.16082031 4.72164063 19.32164062 4.70703125 18.45703125 C4.49962534 13.10595885 3.58097416 9.32020026 0.84863281 4.69140625 C0 3 0 3 0 0 Z " fill="#D0DDE7" transform="translate(89,124)"/>
<path d="M0 0 C0 3.97710916 -1.56862291 6.93465352 -4 10 C-4.75796875 10.45117188 -5.5159375 10.90234375 -6.296875 11.3671875 C-10.13776017 13.68725975 -12.94938225 16.89428219 -15.98242188 20.1484375 C-18.59609178 22.8681164 -20.3077765 24.29601802 -24 25 C-19.18132753 19.19108254 -13.98743592 13.86934448 -8.625 8.5625 C-7.79355469 7.73556641 -6.96210938 6.90863281 -6.10546875 6.05664062 C-4.0725896 4.03544469 -2.03740037 2.01663665 0 0 Z " fill="#1B5F95" transform="translate(160,78)"/>
<path d="M0 0 C0.99 0 1.98 0 3 0 C2.54884201 2.41820683 2.08938045 4.83432863 1.625 7.25 C1.49867187 7.93191406 1.37234375 8.61382812 1.2421875 9.31640625 C0.56093633 12.82484976 -0.16853415 15.91039673 -2 19 C-3.5390625 17.8359375 -3.5390625 17.8359375 -5 16 C-4.91516242 10.51949236 -3.63768522 4.21971486 0 0 Z " fill="#DAE4EC" transform="translate(100,55)"/>
<path d="M0 0 C0.2475 0.5775 0.495 1.155 0.75 1.75 C1.93990475 4.13449889 1.93990475 4.13449889 4.125 6.125 C6 8 6 8 6 10 C8.475 10.99 8.475 10.99 11 12 C10.67 12.99 10.34 13.98 10 15 C8.02 15 6.04 15 4 15 C4 14.34 4 13.68 4 13 C2.02 13.33 0.04 13.66 -2 14 C-1.67 13.38125 -1.34 12.7625 -1 12.125 C0.14193235 10.08981656 0.14193235 10.08981656 0 8 C0 5.33333333 0 2.66666667 0 0 Z " fill="#80A2C1" transform="translate(81,145)"/>
<path d="M0 0 C0.66 0.33 1.32 0.66 2 1 C1.3503125 1.47308594 0.700625 1.94617188 0.03125 2.43359375 C-4.94517474 6.12001794 -4.94517474 6.12001794 -7.5625 11.46484375 C-7.54024821 13.85279639 -7.54024821 13.85279639 -7.21875 16.1171875 C-7 18 -7 18 -8 20 C-8.66 20 -9.32 20 -10 20 C-10.99 17.69 -11.98 15.38 -13 13 C-12.34 13 -11.68 13 -11 13 C-11 12.34 -11 11.68 -11 11 C-11.99 10.67 -12.98 10.34 -14 10 C-10.92911017 5.45508305 -8.07210844 3.93662322 -3 2 C-2.01 1.34 -1.02 0.68 0 0 Z " fill="#D1DEE8" transform="translate(83,130)"/>
<path d="M0 0 C7.40442392 -0.80775534 11.26625769 1.40824786 17 6 C19.1385485 8.1385485 19.42655063 9.13275314 20 12 C13.31587248 8.36433437 6.64443293 4.70775764 0 1 C0 0.67 0 0.34 0 0 Z " fill="#EDF1F6" transform="translate(78,64)"/>
<path d="M0 0 C-1.2938248 3.88147439 -2.61997607 4.15124266 -6.1875 6 C-7.1775 6.51820312 -8.1675 7.03640625 -9.1875 7.5703125 C-10.115625 8.04210937 -11.04375 8.51390625 -12 9 C-13.0209375 9.52207031 -13.0209375 9.52207031 -14.0625 10.0546875 C-15.36936706 10.71440405 -16.6835716 11.35957537 -18 12 C-15.73972024 6.91437053 -13.27473182 3.26601886 -8 1.1875 C-5.00804564 0.12979738 -3.32358139 0 0 0 Z " fill="#E4EBF1" transform="translate(148,62)"/>
<path d="M0 0 C-3.60501404 2.10063159 -7.39133775 2.88459586 -11.4375 3.6875 C-12.09298828 3.82994141 -12.74847656 3.97238281 -13.42382812 4.11914062 C-17.25139638 4.89079681 -20.23401503 5.08117873 -24 4 C-24 3.34 -24 2.68 -24 2 C-15.96235969 -0.07422976 -8.27015524 -0.2144997 0 0 Z " fill="#28679A" transform="translate(117,11)"/>
<path d="M0 0 C1.98 0.495 1.98 0.495 4 1 C4 1.66 4 2.32 4 3 C5.32 3.66 6.64 4.32 8 5 C7.360625 5.226875 6.72125 5.45375 6.0625 5.6875 C3.72806339 6.85250896 3.72806339 6.85250896 3.25 9.625 C3.1675 10.40875 3.085 11.1925 3 12 C1.68 12 0.36 12 -1 12 C-0.67 9.69 -0.34 7.38 0 5 C0.66 5 1.32 5 2 5 C1.34 3.35 0.68 1.7 0 0 Z " fill="#A8C1D4" transform="translate(150,136)"/>
<path d="M0 0 C1.03930664 0.01353516 1.03930664 0.01353516 2.09960938 0.02734375 C3.79572395 0.05073843 5.49165871 0.08660359 7.1875 0.125 C6.8575 0.785 6.5275 1.445 6.1875 2.125 C4.8675 2.125 3.5475 2.125 2.1875 2.125 C2.8475 3.775 3.5075 5.425 4.1875 7.125 C3.548125 6.650625 2.90875 6.17625 2.25 5.6875 C-1.2117486 3.92130174 -3.90061907 3.61015188 -7.7265625 3.3359375 C-9.8125 3.125 -9.8125 3.125 -12.8125 2.125 C-8.53365394 0.0146565 -4.67385858 -0.11628739 0 0 Z " fill="#C6D5E2" transform="translate(126.8125,156.875)"/>
<path d="M0 0 C4.62 0 9.24 0 14 0 C14 0.66 14 1.32 14 2 C13.33613281 2.03738281 12.67226562 2.07476562 11.98828125 2.11328125 C6.78216093 2.50089021 3.41829165 3.05447223 -1 6 C-1.99 5.67 -2.98 5.34 -4 5 C-3.67 4.01 -3.34 3.02 -3 2 C-2.01 2 -1.02 2 0 2 C0 1.34 0 0.68 0 0 Z " fill="#C4D4E2" transform="translate(96,158)"/>
<path d="M0 0 C0 1.66666667 0 3.33333333 0 5 C-2.65228812 6.07525194 -5.28368454 7.09456151 -8 8 C-8.66 6.02 -9.32 4.04 -10 2 C-6.49223216 0.39644899 -3.85645121 -0.22036864 0 0 Z " fill="#9DB7CF" transform="translate(139,157)"/>
<path d="M0 0 C0.99 0.33 1.98 0.66 3 1 C3.33 5.29 3.66 9.58 4 14 C3.34 14 2.68 14 2 14 C1.67 14.99 1.34 15.98 1 17 C0.00749455 11.29309366 -0.10477512 5.78591511 0 0 Z " fill="#27679A" transform="translate(209,89)"/>
<path d="M0 0 C0.33 0 0.66 0 1 0 C1.144375 1.093125 1.28875 2.18625 1.4375 3.3125 C1.88288104 6.93122987 1.88288104 6.93122987 3 10 C4.03060547 9.96519531 4.03060547 9.96519531 5.08203125 9.9296875 C6.43361328 9.90261719 6.43361328 9.90261719 7.8125 9.875 C8.70582031 9.85179687 9.59914063 9.82859375 10.51953125 9.8046875 C13 10 13 10 16 12 C12.94730154 13.52634923 10.24154311 12.83794444 6.875 12.5625 C5.59367187 12.46066406 4.31234375 12.35882813 2.9921875 12.25390625 C2.00476563 12.17011719 1.01734375 12.08632812 0 12 C0 8.04 0 4.08 0 0 Z " fill="#216296" transform="translate(96,140)"/>
<path d="M0 0 C0.33 0 0.66 0 1 0 C1.87401535 5.24409211 2 9.48261078 2 15 C-3.61 15 -9.22 15 -15 15 C-14.67 14.34 -14.34 13.68 -14 13 C-9.38 13 -4.76 13 0 13 C0 8.71 0 4.42 0 0 Z " fill="#ECF1F5" transform="translate(129,139)"/>
<path d="M0 0 C3.875 1.75 3.875 1.75 5 4 C5.99 4.66 6.98 5.32 8 6 C6.35 6.33 4.7 6.66 3 7 C3 8.32 3 9.64 3 11 C0.87961365 8.38485683 -1.13091744 5.80362384 -3 3 C-2.01 2.01 -1.02 1.02 0 0 Z " fill="#99B6CE" transform="translate(54,50)"/>
<path d="M0 0 C0.33 0 0.66 0 1 0 C1 2.31 1 4.62 1 7 C0.01 7 -0.98 7 -2 7 C-1.01 8.98 -0.02 10.96 1 13 C-3.04259708 11.65246764 -3.69465046 9.52582871 -6 6 C-7.6292274 4.29671681 -9.28641357 2.61838719 -11 1 C-6.545 1.99 -6.545 1.99 -2 3 C-2.99 3.495 -2.99 3.495 -4 4 C-4 4.66 -4 5.32 -4 6 C-0.87525373 4.36526484 -0.87525373 4.36526484 -0.3125 1.875 C-0.1578125 0.946875 -0.1578125 0.946875 0 0 Z " fill="#E6EDF3" transform="translate(152,129)"/>
<path d="M0 0 C0.33 0 0.66 0 1 0 C1 8.91 1 17.82 1 27 C0.67 27 0.34 27 0 27 C-0.33 22.38 -0.66 17.76 -1 13 C-1.66 13.66 -2.32 14.32 -3 15 C-2.68917128 13.24970238 -2.37626821 11.49977306 -2.0625 9.75 C-1.88847656 8.77546875 -1.71445313 7.8009375 -1.53515625 6.796875 C-1.09620271 4.50278205 -0.59651408 2.25708029 0 0 Z " fill="#024E8A" transform="translate(102,58)"/>
<path d="M0 0 C1.98 0.66 3.96 1.32 6 2 C6 3.65 6 5.3 6 7 C7.65 7 9.3 7 11 7 C9 10 9 10 5.875 10.6875 C4.451875 10.8421875 4.451875 10.8421875 3 11 C2.86722656 10.37351563 2.73445313 9.74703125 2.59765625 9.1015625 C2.42105469 8.28429687 2.24445313 7.46703125 2.0625 6.625 C1.80146484 5.40683594 1.80146484 5.40683594 1.53515625 4.1640625 C1.07669307 1.970537 1.07669307 1.970537 0 0 Z " fill="#83A3C0" transform="translate(69,125)"/>
<path d="M0 0 C0.99 0.33 1.98 0.66 3 1 C3 1.66 3 2.32 3 3 C5.97 3.495 5.97 3.495 9 4 C5.25 6 5.25 6 3 6 C3 6.66 3 7.32 3 8 C2.01 8.33 1.02 8.66 0 9 C0 8.34 0 7.68 0 7 C-0.99 6.67 -1.98 6.34 -3 6 C-3 5.01 -3 4.02 -3 3 C-2.01 3 -1.02 3 0 3 C0 2.01 0 1.02 0 0 Z " fill="#02508B" transform="translate(168,49)"/>
<path d="M0 0 C0.99 0.33 1.98 0.66 3 1 C4.84610532 1.08239169 6.69505164 1.10743359 8.54296875 1.09765625 C10.15268555 1.09282227 10.15268555 1.09282227 11.79492188 1.08789062 C12.91447266 1.07951172 14.03402344 1.07113281 15.1875 1.0625 C16.31865234 1.05798828 17.44980469 1.05347656 18.61523438 1.04882812 C21.41020927 1.03703498 24.2050782 1.0205765 27 1 C27 1.66 27 2.32 27 3 C16.11 3 5.22 3 -6 3 C-4 2 -2 1 0 0 Z " fill="#3A73A1" transform="translate(62,101)"/>
<path d="M0 0 C0.33 1.65 0.66 3.3 1 5 C-1.375 5.625 -1.375 5.625 -4 6 C-4.66 5.34 -5.32 4.68 -6 4 C-6 2.68 -6 1.36 -6 0 C-3.50907189 -1.24546405 -2.58919267 -0.7767578 0 0 Z " fill="#08558E" transform="translate(193,129)"/>
<path d="M0 0 C0.90105469 0.11085938 1.80210937 0.22171875 2.73046875 0.3359375 C3.76107422 0.47902344 3.76107422 0.47902344 4.8125 0.625 C4.4825 1.285 4.1525 1.945 3.8125 2.625 C1.88671875 3.1171875 1.88671875 3.1171875 -0.5 3.5 C-4.51809722 4.29338225 -6.62204336 5.27875222 -9.1875 8.625 C-8.94 7.7278125 -8.94 7.7278125 -8.6875 6.8125 C-8.0760876 4.51155664 -8.0760876 4.51155664 -8.1875 1.625 C-4.73535147 -0.67643236 -3.95270676 -0.51333854 0 0 Z " fill="#E4ECF2" transform="translate(162.1875,120.375)"/>
<path d="M0 0 C0.99 0 1.98 0 3 0 C3.1875 2.875 3.1875 2.875 3 6 C0 8 0 8 -2.1875 7.625 C-2.785625 7.41875 -3.38375 7.2125 -4 7 C-4 4.84365964 -3.5534764 3.07553648 -3 1 C-2.34 1 -1.68 1 -1 1 C-1 1.99 -1 2.98 -1 4 C-0.67 2.68 -0.34 1.36 0 0 Z " fill="#09548E" transform="translate(191,87)"/>
<path d="M0 0 C1.67542976 0.28604898 3.34385343 0.61781233 5 1 C5.625 2.875 5.625 2.875 6 5 C5.34 5.66 4.68 6.32 4 7 C1.875 6.625 1.875 6.625 0 6 C-0.38218767 4.34385343 -0.71395102 2.67542976 -1 1 C-0.67 0.67 -0.34 0.34 0 0 Z " fill="#07548E" transform="translate(181,147)"/>
<path d="M0 0 C0.33 0 0.66 0 1 0 C1 4.62 1 9.24 1 14 C5.62 14 10.24 14 15 14 C15.33 14.66 15.66 15.32 16 16 C10.39 16 4.78 16 -1 16 C-0.67 10.72 -0.34 5.44 0 0 Z " fill="#EBF1F5" transform="translate(95,138)"/>
<path d="M0 0 C0 0.99 0 1.98 0 3 C-0.99 2.67 -1.98 2.34 -3 2 C-3.33 2.66 -3.66 3.32 -4 4 C-3.01 4.66 -2.02 5.32 -1 6 C-2.32 6 -3.64 6 -5 6 C-5.33 6.99 -5.66 7.98 -6 9 C-6.93423645 5.98968256 -7.04449911 5.13349732 -6 2 C-6.66 2 -7.32 2 -8 2 C-8.33 2.99 -8.66 3.98 -9 5 C-9 3.68 -9 2.36 -9 1 C-3.375 -1.125 -3.375 -1.125 0 0 Z " fill="#BFD0DF" transform="translate(185,65)"/>
<path d="M0 0 C-0.33 0.99 -0.66 1.98 -1 3 C-1.99 2.01 -2.98 1.02 -4 0 C-4 2.31 -4 4.62 -4 7 C-5.65 6.67 -7.3 6.34 -9 6 C-9 4.68 -9 3.36 -9 2 C-8.34 2 -7.68 2 -7 2 C-7 1.34 -7 0.68 -7 0 C-4.3333581 -1.33332095 -2.83319697 -0.67102033 0 0 Z " fill="#82A7C4" transform="translate(178,55)"/>
<path d="M0 0 C1.98 0 3.96 0 6 0 C6 1.65 6 3.3 6 5 C1.25 6.125 1.25 6.125 -1 5 C-0.67 3.35 -0.34 1.7 0 0 Z " fill="#03528D" transform="translate(34,137)"/>
<path d="M0 0 C0 1.65 0 3.3 0 5 C-1.65614657 5.38218767 -3.32457024 5.71395102 -5 6 C-6 5 -6 5 -6.0625 2.4375 C-6.041875 1.633125 -6.02125 0.82875 -6 0 C-3.50907189 -1.24546405 -2.58919267 -0.7767578 0 0 Z " fill="#05538D" transform="translate(100,30)"/>
<path d="M0 0 C2.475 0.99 2.475 0.99 5 2 C4.67 3.32 4.34 4.64 4 6 C2.35 6 0.7 6 -1 6 C-1 6.99 -1 7.98 -1 9 C-1.99 8.67 -2.98 8.34 -4 8 C-3.34 7.67 -2.68 7.34 -2 7 C-1.26924352 4.6859378 -0.59861742 2.35171131 0 0 Z " fill="#99B5CD" transform="translate(81,182)"/>
<path d="M0 0 C2.31 0 4.62 0 7 0 C7 0.66 7 1.32 7 2 C5.68 2 4.36 2 3 2 C3 2.66 3 3.32 3 4 C3.99 4 4.98 4 6 4 C6 4.66 6 5.32 6 6 C5.01 6 4.02 6 3 6 C3 7.32 3 8.64 3 10 C2.34 10 1.68 10 1 10 C0.67 6.7 0.34 3.4 0 0 Z " fill="#A3BCD1" transform="translate(103,26)"/>
<path d="M0 0 C1.32 0.66 2.64 1.32 4 2 C4.36103152 8.3782235 4.36103152 8.3782235 2.875 10.9375 C0.1769493 12.46639539 -1.95529712 12.25912365 -5 12 C-5.66 11.67 -6.32 11.34 -7 11 C-6.67 10.34 -6.34 9.68 -6 9 C-5.21625 9.20625 -4.4325 9.4125 -3.625 9.625 C-2.75875 9.74875 -1.8925 9.8725 -1 10 C1.32483785 8.11624325 1.32483785 8.11624325 1.1875 5 C1.20079609 2.07613397 1.20079609 2.07613397 0 0 Z " fill="#E4EBF1" transform="translate(66,127)"/>
<path d="M0 0 C1.30048841 2.60097682 1.56471422 5.13955062 2 8 C3.175625 8.2165625 3.175625 8.2165625 4.375 8.4375 C7 9 7 9 9 10 C7.10511048 11.89488952 4.42860854 11.18019112 1.91015625 11.23046875 C0 11 0 11 -2 9 C-2.25 5.5 -2.25 5.5 -2 2 C-1.34 1.34 -0.68 0.68 0 0 Z " fill="#E1E9F0" transform="translate(157,127)"/>
<path d="M0 0 C6.75 1.75 6.75 1.75 9 4 C8.625 6.625 8.625 6.625 8 9 C4.62182575 9.84454356 2.32534757 10.10844919 -1 9 C-1 8.34 -1 7.68 -1 7 C1.64 7 4.28 7 7 7 C7 6.34 7 5.68 7 5 C4.69 4.01 2.38 3.02 0 2 C0 1.34 0 0.68 0 0 Z " fill="#A6BED2" transform="translate(30,89)"/>
<path d="M0 0 C2.5 1.375 2.5 1.375 5 3 C5 3.66 5 4.32 5 5 C4.34 5 3.68 5 3 5 C2.67 4.34 2.34 3.68 2 3 C1.01 3.495 1.01 3.495 0 4 C0.66 4.66 1.32 5.32 2 6 C-1 6 -1 6 -3 5 C-2.2236068 8.0745356 -2.2236068 8.0745356 0 10 C-1.875 9.6875 -1.875 9.6875 -4 9 C-4.66 8.01 -5.32 7.02 -6 6 C-4.02 4.02 -2.04 2.04 0 0 Z " fill="#B5C9D9" transform="translate(168,47)"/>
<path d="M0 0 C0 3 0 3 -2.1875 5.48046875 C-3.115625 6.37378906 -4.04375 7.26710937 -5 8.1875 C-5.928125 9.08855469 -6.85625 9.98960937 -7.8125 10.91796875 C-8.534375 11.60503906 -9.25625 12.29210937 -10 13 C-10.66 12.67 -11.32 12.34 -12 12 C-10.56665422 10.37133456 -9.12817021 8.74719006 -7.6875 7.125 C-6.88699219 6.22007812 -6.08648437 5.31515625 -5.26171875 4.3828125 C-3 2 -3 2 0 0 Z " fill="#004C89" transform="translate(188,176)"/>
<path d="M0 0 C3.125 0.375 3.125 0.375 6 1 C6.33 2.65 6.66 4.3 7 6 C6.34 4.68 5.68 3.36 5 2 C2.525 3.485 2.525 3.485 0 5 C0.33 5.66 0.66 6.32 1 7 C0.34 7.66 -0.32 8.32 -1 9 C-3 6 -3 6 -2.75 3.9375 C-2 2 -2 2 0 0 Z " fill="#91B1CA" transform="translate(175,155)"/>
<path d="M0 0 C4.62 0 9.24 0 14 0 C12.02 0.99 12.02 0.99 10 2 C10 2.99 10 3.98 10 5 C6.7 4.01 3.4 3.02 0 2 C0 1.34 0 0.68 0 0 Z " fill="#356F9F" transform="translate(78,61)"/>
<path d="M0 0 C-3.20010388 1.8133922 -6.13283843 2.52213974 -9.75 3.125 C-10.73484375 3.29257812 -11.7196875 3.46015625 -12.734375 3.6328125 C-13.48203125 3.75398438 -14.2296875 3.87515625 -15 4 C-12.28125 0.1015625 -12.28125 0.1015625 -9.75 -0.8125 C-6.37784122 -1.04241992 -3.32036074 -0.58594601 0 0 Z " fill="#0A538D" transform="translate(96,15)"/>
<path d="M0 0 C-2.69192661 3.32532111 -6.06546515 4.52454943 -10 6 C-10.99 6 -11.98 6 -13 6 C-12 3 -12 3 -9.78515625 1.796875 C-8.43744141 1.27867187 -8.43744141 1.27867187 -7.0625 0.75 C-6.16660156 0.39421875 -5.27070313 0.0384375 -4.34765625 -0.328125 C-2 -1 -2 -1 0 0 Z " fill="#0B548E" transform="translate(156,202)"/>
<path d="M0 0 C0.66 0.33 1.32 0.66 2 1 C0.57084149 2.34227046 -0.86862672 3.67357096 -2.3125 5 C-3.11300781 5.7425 -3.91351563 6.485 -4.73828125 7.25 C-7 9 -7 9 -10 9 C-10.33 8.01 -10.66 7.02 -11 6 C-10.236875 5.71125 -9.47375 5.4225 -8.6875 5.125 C-5.84970692 4.03730987 -5.84970692 4.03730987 -3 2 C-2.01 1.34 -1.02 0.68 0 0 Z " fill="#CAD7E4" transform="translate(83,130)"/>
<path d="M0 0 C0 0.66 0 1.32 0 2 C-1.32 2 -2.64 2 -4 2 C-4 3.32 -4 4.64 -4 6 C-2.68 6 -1.36 6 0 6 C0 6.66 0 7.32 0 8 C-2.97 8 -5.94 8 -9 8 C-9 7.34 -9 6.68 -9 6 C-7.68 6 -6.36 6 -5 6 C-5 4.68 -5 3.36 -5 2 C-6.32 1.67 -7.64 1.34 -9 1 C-2.25 0 -2.25 0 0 0 Z " fill="#CFDCE7" transform="translate(198,105)"/>
<path d="M0 0 C4.24822374 0.47202486 6.19989709 2.96655518 9 6 C8.01 6.66 7.02 7.32 6 8 C1.3125 4.38671875 1.3125 4.38671875 0 3 C0 2.01 0 1.02 0 0 Z " fill="#175E94" transform="translate(170,30)"/>
<path d="M0 0 C0.66 0 1.32 0 2 0 C2 1.65 2 3.3 2 5 C3.32 5 4.64 5 6 5 C6 5.66 6 6.32 6 7 C3.03 7.66 0.06 8.32 -3 9 C-2.20197185 5.8078874 -1.25768711 3.01844907 0 0 Z " fill="#ABC1D5" transform="translate(48,155)"/>
<path d="M0 0 C0.625 2.5625 0.625 2.5625 1 5 C0.34 5 -0.32 5 -1 5 C-1 3.68 -1 2.36 -1 1 C-1.99 1 -2.98 1 -4 1 C-3.67 2.32 -3.34 3.64 -3 5 C-3.66 5 -4.32 5 -5 5 C-5 4.01 -5 3.02 -5 2 C-5.99 2.495 -5.99 2.495 -7 3 C-6.67 4.65 -6.34 6.3 -6 8 C-6.99 7.67 -7.98 7.34 -9 7 C-9.33 5.35 -9.66 3.7 -10 2 C-8.71211992 1.46987262 -7.41953322 0.9511671 -6.125 0.4375 C-5.40570313 0.14746094 -4.68640625 -0.14257812 -3.9453125 -0.44140625 C-2 -1 -2 -1 0 0 Z " fill="#BECFDE" transform="translate(195,86)"/>
<path d="M0 0 C0 2.64 0 5.28 0 8 C0.99 7.01 1.98 6.02 3 5 C3.66 5.33 4.32 5.66 5 6 C3.71034824 7.37562854 2.37310707 8.70766393 1 10 C0.34 10 -0.32 10 -1 10 C-1.33 10.66 -1.66 11.32 -2 12 C-2.12375 10.865625 -2.2475 9.73125 -2.375 8.5625 C-2.58125 7.386875 -2.7875 6.21125 -3 5 C-3.66 4.67 -4.32 4.34 -5 4 C-1.125 0 -1.125 0 0 0 Z " fill="#BACDDD" transform="translate(56,163)"/>
<path d="M0 0 C-0.99 0.495 -0.99 0.495 -2 1 C-2.65213292 3.02463255 -2.65213292 3.02463255 -3 5 C-2.01 5 -1.02 5 0 5 C-0.33 5.66 -0.66 6.32 -1 7 C-3.64 6.01 -6.28 5.02 -9 4 C-9 3.34 -9 2.68 -9 2 C-3.375 -1.125 -3.375 -1.125 0 0 Z " fill="#A6BED3" transform="translate(37,116)"/>
<path d="M0 0 C0.33 0.99 0.66 1.98 1 3 C2.32 2.34 3.64 1.68 5 1 C5.33 2.32 5.66 3.64 6 5 C6.99 4.01 7.98 3.02 9 2 C8.6875 3.875 8.6875 3.875 8 6 C7.01 6.66 6.02 7.32 5 8 C2.69 6.35 0.38 4.7 -2 3 C-1.34 2.01 -0.68 1.02 0 0 Z " fill="#B8CBDB" transform="translate(46,59)"/>
<path d="M0 0 C1.32 0.33 2.64 0.66 4 1 C3.67 1.66 3.34 2.32 3 3 C3 5.15634036 3.4465236 6.92446352 4 9 C2.35 9.33 0.7 9.66 -1 10 C-1 9.01 -1 8.02 -1 7 C-0.01 7 0.98 7 2 7 C1.484375 6.5875 0.96875 6.175 0.4375 5.75 C-0.036875 5.1725 -0.51125 4.595 -1 4 C-0.6875 1.8125 -0.6875 1.8125 0 0 Z " fill="#ACC4D7" transform="translate(117,26)"/>
<path d="M0 0 C0.66 0 1.32 0 2 0 C2 3.3 2 6.6 2 10 C1.67 9.01 1.34 8.02 1 7 C-1.31 7.33 -3.62 7.66 -6 8 C-4.68 6.68 -3.36 5.36 -2 4 C-1.34 4.33 -0.68 4.66 0 5 C-0.33 4.01 -0.66 3.02 -1 2 C-0.67 1.34 -0.34 0.68 0 0 Z " fill="#B1C6D8" transform="translate(90,185)"/>
<path d="M0 0 C0.66 0 1.32 0 2 0 C2.66 2.97 3.32 5.94 4 9 C2.88625 8.484375 1.7725 7.96875 0.625 7.4375 C-1.169375 6.7259375 -1.169375 6.7259375 -3 6 C-3.99 6.495 -3.99 6.495 -5 7 C-5.33 5.68 -5.66 4.36 -6 3 C-3.69 3.66 -1.38 4.32 1 5 C0.67 3.35 0.34 1.7 0 0 Z " fill="#BCCEDD" transform="translate(143,181)"/>
<path d="M0 0 C0.33 1.32 0.66 2.64 1 4 C1.66 2.68 2.32 1.36 3 0 C4 1 4 1 4.0625 4.0625 C4.041875 5.031875 4.02125 6.00125 4 7 C1.0625 6.25 1.0625 6.25 -2 5 C-2.875 2.875 -2.875 2.875 -3 1 C-2.01 0.67 -1.02 0.34 0 0 Z " fill="#C2D2E0" transform="translate(155,176)"/>
<path d="M0 0 C1.65 0 3.3 0 5 0 C5 0.66 5 1.32 5 2 C4.01 2.33 3.02 2.66 2 3 C1.67 3.66 1.34 4.32 1 5 C1.99 5.33 2.98 5.66 4 6 C2.68 6.33 1.36 6.66 0 7 C-0.33 6.34 -0.66 5.68 -1 5 C-1.99 4.34 -2.98 3.68 -4 3 C-2.68 2.67 -1.36 2.34 0 2 C0 1.34 0 0.68 0 0 Z " fill="#F4F7FA" transform="translate(91,158)"/>
<path d="M0 0 C0.33 0 0.66 0 1 0 C1.13277344 0.62648437 1.26554687 1.25296875 1.40234375 1.8984375 C1.57894531 2.71570313 1.75554687 3.53296875 1.9375 4.375 C2.19853516 5.59316406 2.19853516 5.59316406 2.46484375 6.8359375 C2.92330693 9.029463 2.92330693 9.029463 4 11 C3.01 11.33 2.02 11.66 1 12 C1 11.01 1 10.02 1 9 C0.195625 8.87625 -0.60875 8.7525 -1.4375 8.625 C-2.283125 8.41875 -3.12875 8.2125 -4 8 C-4.33 7.34 -4.66 6.68 -5 6 C-4.34 5.34 -3.68 4.68 -3 4 C-2.01 5.485 -2.01 5.485 -1 7 C-0.67 4.69 -0.34 2.38 0 0 Z " fill="#F1F5F8" transform="translate(79,144)"/>
<path d="M0 0 C3.68754757 0.49831724 5.60490662 1.10067643 8 4 C5.0173094 5.52448631 2.181798 6.93940067 -1 8 C-1.33 7.01 -1.66 6.02 -2 5 C-0.02 4.67 1.96 4.34 4 4 C4 3.34 4 2.68 4 2 C2.68 1.34 1.36 0.68 0 0 Z " fill="#BBCEDD" transform="translate(34,79)"/>
<path d="M0 0 C2.72426311 2.35277269 3.8141763 4.62496331 5 8 C3.68 8 2.36 8 1 8 C0.01 5.69 -0.98 3.38 -2 1 C-1.34 0.67 -0.68 0.34 0 0 Z " fill="#195E94" transform="translate(198,59)"/>
<path d="M0 0 C1.32 1.32 2.64 2.64 4 4 C3.01 4.495 3.01 4.495 2 5 C2.33 5.66 2.66 6.32 3 7 C1.35 7.66 -0.3 8.32 -2 9 C-2 6.69 -2 4.38 -2 2 C-1.34 2 -0.68 2 0 2 C0 1.34 0 0.68 0 0 Z " fill="#BFD0DE" transform="translate(67,175)"/>
<path d="M0 0 C0.99 0 1.98 0 3 0 C3 3.63 3 7.26 3 11 C2.01 11.495 2.01 11.495 1 12 C0.67 8.04 0.34 4.08 0 0 Z " fill="#004C89" transform="translate(96,136)"/>
<path d="M0 0 C0.66 0.99 1.32 1.98 2 3 C0.0625 3.5625 0.0625 3.5625 -2 4 C-2.33 3.67 -2.66 3.34 -3 3 C-4.4540625 3.0309375 -4.4540625 3.0309375 -5.9375 3.0625 C-9 3 -9 3 -11 1 C-3.52173913 -0.39130435 -3.52173913 -0.39130435 0 0 Z " fill="#D5E0EA" transform="translate(69,121)"/>
<path d="M0 0 C1.32 0.66 2.64 1.32 4 2 C2.7934375 2.37125 2.7934375 2.37125 1.5625 2.75 C-1.171081 3.72238859 -1.171081 3.72238859 -1.8125 6.125 C-1.9053125 7.053125 -1.9053125 7.053125 -2 8 C-1.01 8.33 -0.02 8.66 1 9 C0.01 9.495 0.01 9.495 -1 10 C-1.99 9.67 -2.98 9.34 -4 9 C-3.6875 5.625 -3.6875 5.625 -3 2 C-2.01 1.34 -1.02 0.68 0 0 Z " fill="#AAC1D4" transform="translate(159,41)"/>
<path d="M0 0 C0.99 0.33 1.98 0.66 3 1 C0.525 4.465 0.525 4.465 -2 8 C-3.32 7.67 -4.64 7.34 -6 7 C-4.02 4.69 -2.04 2.38 0 0 Z " fill="#1E6096" transform="translate(192,169)"/>
<path d="M0 0 C0.66 0.33 1.32 0.66 2 1 C2 1.66 2 2.32 2 3 C2.66 3.33 3.32 3.66 4 4 C4.72693904 5.97888961 5.39816251 7.97954558 6 10 C4 10 4 10 2.375 8.5 C1.92125 8.005 1.4675 7.51 1 7 C0.34 7.66 -0.32 8.32 -1 9 C-0.67 6.03 -0.34 3.06 0 0 Z " fill="#CDDBE6" transform="translate(97,187)"/>
<path d="M0 0 C0.66 0 1.32 0 2 0 C5 3.46153846 5 3.46153846 5 6 C4.38125 6.12375 3.7625 6.2475 3.125 6.375 C0.80879168 6.87197356 0.80879168 6.87197356 -1 9 C-0.67 6.03 -0.34 3.06 0 0 Z " fill="#A4BCD1" transform="translate(130,186)"/>
<path d="M0 0 C2.625 0.375 2.625 0.375 5 1 C3 3 3 3 0.9375 3.8125 C-1.28389075 4.87359896 -1.28389075 4.87359896 -1.75 7.625 C-1.8325 8.40875 -1.915 9.1925 -2 10 C-2.66 9.01 -3.32 8.02 -4 7 C-3.1025444 3.93369336 -2.26961192 2.26961192 0 0 Z " fill="#4B7DA8" transform="translate(157,124)"/>
<path d="M0 0 C0 1.98 0 3.96 0 6 C-0.99 6 -1.98 6 -3 6 C-3 5.34 -3 4.68 -3 4 C-3.99 3.67 -4.98 3.34 -6 3 C-3.375 0 -3.375 0 0 0 Z " fill="#03538D" transform="translate(180,157)"/>
<path d="M0 0 C0.66 0.66 1.32 1.32 2 2 C4.31765729 2.71927295 6.65095874 3.3909893 9 4 C9 4.33 9 4.66 9 5 C7.35 5 5.7 5 4 5 C4 6.65 4 8.3 4 10 C3.731875 9.443125 3.46375 8.88625 3.1875 8.3125 C1.89877353 5.80287477 0.47073522 3.40665764 -1 1 C-0.67 0.67 -0.34 0.34 0 0 Z " fill="#BFD0DE" transform="translate(167,164)"/>
<path d="M0 0 C0.33 0.99 0.66 1.98 1 3 C2.32 3 3.64 3 5 3 C5.33 5.31 5.66 7.62 6 10 C5.6596875 9.0409375 5.6596875 9.0409375 5.3125 8.0625 C4.14749104 5.72806339 4.14749104 5.72806339 1.375 5.25 C0.59125 5.1675 -0.1925 5.085 -1 5 C-0.67 3.35 -0.34 1.7 0 0 Z " fill="#5F8AB1" transform="translate(68,137)"/>
<path d="M0 0 C1.875 0.3125 1.875 0.3125 4 1 C6 4 6 4 6 7 C3.00675737 5.9024777 2.15389099 5.32317108 0.75 2.375 C0.5025 1.59125 0.255 0.8075 0 0 Z " fill="#08538D" transform="translate(192,53)"/>
<path d="M0 0 C-1.65 0.33 -3.3 0.66 -5 1 C-4.34 2.65 -3.68 4.3 -3 6 C-5.03833424 4.7260411 -7.03852126 3.38938077 -9 2 C-9 1.34 -9 0.68 -9 0 C-2.25 -1.125 -2.25 -1.125 0 0 Z " fill="#F7FAFB" transform="translate(134,158)"/>
<path d="M0 0 C0 0.99 0 1.98 0 3 C-3.3 3 -6.6 3 -10 3 C-5.78492722 -0.16130459 -4.93928888 -0.3367697 0 0 Z " fill="#004D89" transform="translate(129,154)"/>
<path d="M0 0 C0 3.66842255 -0.79029126 5.10451959 -3 8 C-5.6875 8.8125 -5.6875 8.8125 -8 9 C-7.04270084 7.87411986 -6.08412105 6.7493285 -5.125 5.625 C-4.59132812 4.99851562 -4.05765625 4.37203125 -3.5078125 3.7265625 C-2.38567993 2.44163349 -1.20628025 1.20628025 0 0 Z " fill="#3E72A1" transform="translate(160,78)"/>
<path d="M0 0 C2.1991413 4.39828259 2.51855059 7.18550592 3 12 C2.01 11.67 1.02 11.34 0 11 C0 7.37 0 3.74 0 0 Z " fill="#1E6196" transform="translate(122,54)"/>
<path d="M0 0 C0.99 0.66 1.98 1.32 3 2 C2.01 3.98 1.02 5.96 0 8 C-0.33 7.34 -0.66 6.68 -1 6 C-1.66 5.67 -2.32 5.34 -3 5 C-2.01 3.35 -1.02 1.7 0 0 Z " fill="#216196" transform="translate(202,152)"/>
<path d="M0 0 C2.31 0 4.62 0 7 0 C4.47043472 3.0916909 1.77545388 3.90931332 -2 5 C-1 2 -1 2 0 0 Z " fill="#95B4CD" transform="translate(37,145)"/>
<path d="M0 0 C1.35432675 1.31200404 2.68733482 2.64631404 4 4 C4 4.33 4 4.66 4 5 C1.03 4.67 -1.94 4.34 -5 4 C-5 3.34 -5 2.68 -5 2 C-3.35 2 -1.7 2 0 2 C0 1.34 0 0.68 0 0 Z " fill="#B9CCDC" transform="translate(44,67)"/>
<path d="M0 0 C0.66 0.33 1.32 0.66 2 1 C1.375 2.875 1.375 2.875 0 5 C-3.125 6.25 -3.125 6.25 -6 7 C-4.02 4.69 -2.04 2.38 0 0 Z " fill="#195E94" transform="translate(42,41)"/>
<path d="M0 0 C2.475 0.495 2.475 0.495 5 1 C4.01 1.495 4.01 1.495 3 2 C3.33 2.99 3.66 3.98 4 5 C2.68 5.33 1.36 5.66 0 6 C0 4.02 0 2.04 0 0 Z " fill="#5385AD" transform="translate(152,37)"/>
<path d="M0 0 C1.32 0.33 2.64 0.66 4 1 C4 1.66 4 2.32 4 3 C4.66 3 5.32 3 6 3 C5.67 3.99 5.34 4.98 5 6 C4.01 5.67 3.02 5.34 2 5 C0.8125 2.4375 0.8125 2.4375 0 0 Z " fill="#84A6C3" transform="translate(150,136)"/>
<path d="M0 0 C0.33 0 0.66 0 1 0 C1.33 3.3 1.66 6.6 2 10 C1.01 10 0.02 10 -1 10 C-1.33 8.02 -1.66 6.04 -2 4 C-1.34 4 -0.68 4 0 4 C0 2.68 0 1.36 0 0 Z " fill="#266599" transform="translate(15,126)"/>
<path d="M0 0 C1.37432457 3.81756824 0.67975039 7.07255329 0 11 C-2.30163882 7.54754176 -2.34490322 6.05261287 -2 2 C-1.34 1.34 -0.68 0.68 0 0 Z " fill="#034E8A" transform="translate(15,93)"/>
<path d="M0 0 C1.98 0.66 3.96 1.32 6 2 C6 3.65 6 5.3 6 7 C5.01 7 4.02 7 3 7 C2.01 4.69 1.02 2.38 0 0 Z " fill="#D6E1EA" transform="translate(69,125)"/>
<path d="M0 0 C2.97 0 5.94 0 9 0 C8.67 0.66 8.34 1.32 8 2 C5.67843403 2.40729228 3.3431213 2.74438677 1 3 C0.67 2.01 0.34 1.02 0 0 Z " fill="#ADC3D6" transform="translate(158,121)"/>
<path d="M0 0 C-4.625 4 -4.625 4 -8 4 C-7 1 -7 1 -5.125 -0.25 C-3 -1 -3 -1 0 0 Z " fill="#05518C" transform="translate(71,23)"/>
<path d="M0 0 C0.33 0 0.66 0 1 0 C1 2.64 1 5.28 1 8 C-0.98 8.99 -0.98 8.99 -3 10 C-2.01 6.7 -1.02 3.4 0 0 Z " fill="#094F8B" transform="translate(71,130)"/>
<path d="M0 0 C0.99 1.485 0.99 1.485 2 3 C3.32381517 4.67423683 4.65576661 6.34211215 6 8 C4.35 8 2.7 8 1 8 C-0.35439668 5.29120665 -0.06501451 2.99066732 0 0 Z " fill="#064D8A" transform="translate(153,131)"/>
<path d="M0 0 C0.99 0.33 1.98 0.66 3 1 C2.67 3.31 2.34 5.62 2 8 C1.34 8 0.68 8 0 8 C0 5.36 0 2.72 0 0 Z " fill="#10568F" transform="translate(210,121)"/>
<path d="M0 0 C2.49361571 1.20381448 4.68143083 2.45428722 7 4 C7 4.66 7 5.32 7 6 C6.01 6.33 5.02 6.66 4 7 C2.02 3.535 2.02 3.535 0 0 Z " fill="#376F9F" transform="translate(66,66)"/>
<path d="M0 0 C0.66 0.33 1.32 0.66 2 1 C2 2.65 2 4.3 2 6 C0.35 5.67 -1.3 5.34 -3 5 C-2.67 4.01 -2.34 3.02 -2 2 C-1.34 2 -0.68 2 0 2 C0 1.34 0 0.68 0 0 Z " fill="#26679A" transform="translate(142,34)"/>
<path d="M0 0 C0.33 0 0.66 0 1 0 C1 2.97 1 5.94 1 9 C-0.65 7.35 -2.3 5.7 -4 4 C-3.01 3.67 -2.02 3.34 -1 3 C-0.67 2.01 -0.34 1.02 0 0 Z " fill="#B5C9DA" transform="translate(84,32)"/>
<path d="M0 0 C-0.66 1.32 -1.32 2.64 -2 4 C-3.65 3.67 -5.3 3.34 -7 3 C-7 2.34 -7 1.68 -7 1 C-4.50935112 0.31292445 -2.62113708 0 0 0 Z " fill="#195F95" transform="translate(100,12)"/>
<path d="M0 0 C2.64 0.33 5.28 0.66 8 1 C7.67 1.66 7.34 2.32 7 3 C4.69 2.67 2.38 2.34 0 2 C0 1.34 0 0.68 0 0 Z " fill="#06508B" transform="translate(84,208)"/>
<path d="M0 0 C4.455 0.99 4.455 0.99 9 2 C8.01 2.495 8.01 2.495 7 3 C7 3.66 7 4.32 7 5 C3.34683329 3.75023244 2.21934164 3.32901247 0 0 Z " fill="#DEE7EE" transform="translate(141,130)"/>
<path d="M0 0 C3.96 1.98 3.96 1.98 8 4 C8 4.66 8 5.32 8 6 C5.03 5.01 2.06 4.02 -1 3 C-0.67 2.01 -0.34 1.02 0 0 Z " fill="#C2D2E0" transform="translate(37,73)"/>
<path d="M0 0 C0.66 0.33 1.32 0.66 2 1 C-1.465 3.97 -1.465 3.97 -5 7 C-5 5.68 -5 4.36 -5 3 C-2.625 1.1875 -2.625 1.1875 0 0 Z " fill="#1C5D93" transform="translate(144,65)"/>
<path d="M0 0 C0 3.10551666 -0.5393715 4.35261084 -2 7 C-3.32 6.34 -4.64 5.68 -6 5 C-4.02 3.35 -2.04 1.7 0 0 Z " fill="#1D6095" transform="translate(53,31)"/>
</svg>
