<?xml version="1.0" encoding="UTF-8"?>
<svg version="1.1" xmlns="http://www.w3.org/2000/svg" width="154" height="208">
<path d="M0 0 C10.03616975 6.811291 15.96109543 16.64648666 18.86328125 28.34765625 C20.67509348 40.18848969 18.93234611 52.75435371 12.25 62.875 C3.66087811 74.15702281 -6.04163052 79.60652481 -19.75 82.875 C-20.74 82.875 -21.73 82.875 -22.75 82.875 C-22.75 75.285 -22.75 67.695 -22.75 59.875 C-20.11 58.555 -17.47 57.235 -14.75 55.875 C-9.75985088 51.79215072 -6.3881422 46.87144609 -5.36328125 40.453125 C-5.04857931 33.46457157 -6.67204129 27.35540367 -11.36328125 22.05078125 C-17.21863674 16.68878166 -23.0256887 15.32906815 -30.8671875 15.5 C-37.19718662 16.32341452 -42.78077116 19.12731352 -46.75 24.1875 C-50.29647009 30.01025054 -51.34334754 35.90752087 -50.35546875 42.63671875 C-48.70942822 48.72175889 -44.97795658 53.43219932 -39.75 56.875 C-37.77 57.865 -35.79 58.855 -33.75 59.875 C-33.75 67.465 -33.75 75.055 -33.75 82.875 C-47.18600061 80.4320908 -58.28241393 76.46802262 -66.6875 65.30078125 C-72.57860449 56.50094392 -75.31624428 48.59074987 -75.1875 38 C-75.17992676 37.12303467 -75.17235352 36.24606934 -75.16455078 35.3425293 C-74.8343731 22.33425156 -69.26239744 11.48545755 -59.8671875 2.5078125 C-42.50798047 -10.87991543 -18.44113333 -10.62751962 0 0 Z " fill="#D3BD2A" transform="translate(74.75,35.125)"/>
<path d="M0 0 C0.928125 0.495 1.85625 0.99 2.8125 1.5 C2.8125 0.84 2.8125 0.18 2.8125 -0.5 C6.7725 -0.5 10.7325 -0.5 14.8125 -0.5 C15.03894796 7.46295555 15.22215923 15.42338695 15.33062172 23.38870335 C15.38269481 27.08791273 15.45323364 30.78479583 15.56689453 34.48266602 C15.67601867 38.05553207 15.73543049 41.62617048 15.76127243 45.20057487 C15.77967091 46.5599876 15.81560687 47.91928572 15.86980057 49.27774239 C16.27627757 59.89462035 16.27627757 59.89462035 12.59002686 63.93746948 C6.2504102 68.5 6.2504102 68.5 2.8125 68.5 C2.4825 60.58 2.1525 52.66 1.8125 44.5 C0.1625 45.16 -1.4875 45.82 -3.1875 46.5 C-10.33699055 47.36965634 -16.62342647 47.41019416 -22.5390625 42.9921875 C-28.61501491 37.49215475 -31.41893325 32.04066208 -32.1484375 23.89453125 C-32.26827395 16.54855658 -29.88756669 10.132717 -25.1875 4.5 C-18.087194 -1.78884245 -8.92381044 -3.86880943 0 0 Z M-16.1875 12.5 C-19.61516919 16.27043611 -19.69603701 20.16769838 -19.54296875 25.05859375 C-19.01613459 28.67696026 -17.60827514 30.81024985 -15.1875 33.5 C-11.982098 35.85062814 -9.08867562 35.89807915 -5.1875 35.5 C-1.81077165 34.08648581 -0.42696252 32.85506512 1.625 29.8125 C3.41482273 24.81983659 3.81739853 20.653354 1.5 15.6875 C0.943125 14.965625 0.38625 14.24375 -0.1875 13.5 C-0.6 12.9225 -1.0125 12.345 -1.4375 11.75 C-6.42899884 8.18464369 -11.42420302 9.25229751 -16.1875 12.5 Z " fill="#24262D" transform="translate(139.1875,139.5)"/>
<path d="M0 0 C0.34880405 9.344363 0.61466232 18.68646237 0.77718258 28.03593254 C0.8552243 32.37851942 0.96086253 36.71663088 1.1315918 41.05664062 C1.29558924 45.25217988 1.38444674 49.44344284 1.42315865 53.64194107 C1.45070695 55.23644526 1.50452143 56.83073521 1.58595085 58.42339706 C2.1806143 70.54561726 2.1806143 70.54561726 -1.4632988 74.6470108 C-5.06212867 77.68691754 -9.01851532 79.97714187 -13.21647453 82.08798599 C-15.20737379 83.07280054 -15.20737379 83.07280054 -17.7950592 84.75802612 C-20 86 -20 86 -23 86 C-23.48922189 76.70837619 -23.86089902 67.42124659 -24.08805561 58.11950397 C-24.19716984 53.79823525 -24.34463613 49.48583532 -24.58422852 45.16967773 C-26.0947833 17.26015799 -26.0947833 17.26015799 -20.90325928 10.1137085 C-15.55687541 5.29023271 -7.49493788 0 0 0 Z " fill="#D3BD2A" transform="translate(124,31)"/>
<path d="M0 0 C0.23210578 9.39670531 0.40957883 18.79241873 0.51812172 28.19136906 C0.57022952 32.55626497 0.64084541 36.91919481 0.75439453 41.28295898 C0.86337435 45.49769186 0.92290441 49.71053942 0.94877243 53.9265728 C0.9671949 55.53154628 1.00317561 57.13642086 1.05730057 58.74058723 C1.45999097 71.17466597 1.45999097 71.17466597 -1.87091064 75.33908081 C-4.48650228 77.23013282 -7.09230245 78.60116019 -10 80 C-12.21473585 81.3016672 -14.42316122 82.6141337 -16.625 83.9375 C-18.4141367 84.96276095 -20.20488803 85.98523739 -22 87 C-22.34877485 77.52524002 -22.61464918 68.05271167 -22.77718258 58.57291603 C-22.85522963 54.16982799 -22.96088092 49.77115258 -23.1315918 45.37060547 C-23.29556526 41.11671746 -23.38444273 36.86704647 -23.42315865 32.61024094 C-23.45071079 30.99341758 -23.5045323 29.37680595 -23.58595085 27.76179886 C-24.18061933 15.46798618 -24.18061933 15.46798618 -20.5367012 11.34386444 C-16.94192816 8.29879149 -12.9871121 6.01540986 -8.78743172 3.90848923 C-7.19601751 3.09962886 -5.66311596 2.17792265 -4.1424408 1.24282837 C-2 0 -2 0 0 0 Z " fill="#D3BD2A" transform="translate(154,31)"/>
<path d="M0 0 C14.19 0 28.38 0 43 0 C41.37341768 4.06645581 39.84193339 6.98309161 37.4453125 10.5625 C36.74792969 11.60664063 36.05054688 12.65078125 35.33203125 13.7265625 C34.60371094 14.80679688 33.87539062 15.88703125 33.125 17 C32.40441406 18.08023438 31.68382812 19.16046875 30.94140625 20.2734375 C27.76325058 25.01433271 24.57196634 29.53504207 21 34 C28.59 34.33 36.18 34.66 44 35 C44 38.63 44 42.26 44 46 C28.82 46 13.64 46 -2 46 C2.13354469 39.50442977 6.24320802 33.06793262 10.625 26.75 C11.07617188 26.09515625 11.52734375 25.4403125 11.9921875 24.765625 C14.95270067 20.47798523 17.97046682 16.24134645 21 12 C14.07 11.67 7.14 11.34 0 11 C0 7.37 0 3.74 0 0 Z " fill="#24262D" transform="translate(61,139)"/>
<path d="M0 0 C0.87785156 -0.00257813 1.75570313 -0.00515625 2.66015625 -0.0078125 C4.9375 0.125 4.9375 0.125 6.9375 1.125 C6.9375 4.755 6.9375 8.385 6.9375 12.125 C4.9265625 12.0321875 4.9265625 12.0321875 2.875 11.9375 C-1.85740766 11.93002384 -4.91287398 12.87728591 -9.0625 15.125 C-10.51212183 18.02424366 -10.28376481 20.64800355 -10.37890625 23.8828125 C-10.39968735 24.54586395 -10.42046844 25.20891541 -10.44187927 25.89205933 C-10.50729231 28.01126694 -10.56622105 30.130599 -10.625 32.25 C-10.66819309 33.68621081 -10.71180764 35.12240902 -10.75585938 36.55859375 C-10.86375909 40.08060344 -10.96289243 43.60270688 -11.0625 47.125 C-15.3525 47.125 -19.6425 47.125 -24.0625 47.125 C-24.0625 31.945 -24.0625 16.765 -24.0625 1.125 C-18.72916667 1.125 -13.39583333 1.125 -8.0625 1.125 C-5.09900719 0.13716906 -3.0912337 -0.00910525 0 0 Z " fill="#24262D" transform="translate(27.0625,137.875)"/>
<path d="M0 0 C4.29 0 8.58 0 13 0 C13 15.18 13 30.36 13 46 C8.71 46 4.42 46 0 46 C0 30.82 0 15.64 0 0 Z " fill="#24262D" transform="translate(40,139)"/>
<path d="M0 0 C3.64314398 2.12516732 5.42598016 4.13906344 7 8 C7.34050529 12.88057582 6.66327491 16.18366164 3.5625 20 C-0.4952935 23.16705834 -2.83614786 23.35009167 -8 23 C-11.65691682 21.33776508 -14.00179234 19.4968634 -16 16 C-17.21559742 12.09272257 -17.07988244 10.248056 -15.8125 6.3125 C-12.06992702 -0.52737475 -7.32069862 -1.07971406 0 0 Z " fill="#D3BD2A" transform="translate(67,0)"/>
<path d="M0 0 C3.90371556 1.66115556 5.39930166 3.14440488 7 7 C7.65393374 10.78593219 7.84305395 14.43710768 5.984375 17.8828125 C3.8456937 20.54972231 2.26074852 21.91308383 -1 23 C-5.25160217 23.40109454 -7.5006973 23.26378256 -11.3125 21.25 C-15.14548121 18.04099248 -15.86145318 16.52401498 -16.3125 11.5625 C-15.90272984 6.89112022 -14.44548761 4.61227464 -11.375 1.1875 C-7.65109479 -0.67445261 -4.07951516 -0.53907879 0 0 Z " fill="#D3BD2A" transform="translate(117,0)"/>
<path d="M0 0 C3.07061968 1.71368609 5.40450726 3.80901452 7 7 C7.39771327 11.77255923 7.47453429 14.08482672 5.25 18.375 C2.04742257 22.11134034 0.49569615 22.83381154 -4.375 23.375 C-8.67080432 22.93060645 -10.67783589 21.70408706 -14 19 C-16.69657104 14.95514343 -16.5422677 11.74692804 -16 7 C-12.99727833 -0.05639591 -7.11866001 -1.2439181 0 0 Z " fill="#D3BD2A" transform="translate(36,0)"/>
</svg>
