<?xml version="1.0" encoding="UTF-8"?>
<svg version="1.1" xmlns="http://www.w3.org/2000/svg" width="270" height="148">
<path d="M0 0 C89.1 0 178.2 0 270 0 C270 48.84 270 97.68 270 148 C180.9 148 91.8 148 0 148 C0 99.16 0 50.32 0 0 Z " fill="#FDFEFE" transform="translate(0,0)"/>
<path d="M0 0 C0.59554687 0.21914063 1.19109375 0.43828125 1.8046875 0.6640625 C1.21717285 3.97880566 0.16420669 5.6697549 -2.1328125 8.1015625 C-6.37979001 12.91887752 -7.67183988 16.8529673 -7.51171875 23.2578125 C-6.75901467 28.98208056 -4.43300953 33.42636547 -0.3828125 37.4765625 C0.3390625 38.1984375 1.0609375 38.9203125 1.8046875 39.6640625 C1.6171875 41.9765625 1.6171875 41.9765625 0.8046875 43.6640625 C-3.4679782 43.18932187 -5.4691145 40.82071282 -8.1953125 37.6640625 C-9.5078125 34.8515625 -9.5078125 34.8515625 -10.1953125 32.6640625 C-11.0821875 33.4478125 -11.9690625 34.2315625 -12.8828125 35.0390625 C-18.06269794 39.28152088 -22.20052248 39.88905609 -28.79296875 39.9296875 C-31.1953125 39.6640625 -31.1953125 39.6640625 -35.1953125 37.6640625 C-35.5253125 42.6140625 -35.8553125 47.5640625 -36.1953125 52.6640625 C-39.1653125 52.6640625 -42.1353125 52.6640625 -45.1953125 52.6640625 C-45.1953125 36.8240625 -45.1953125 20.9840625 -45.1953125 4.6640625 C-42.5553125 4.6640625 -39.9153125 4.6640625 -37.1953125 4.6640625 C-37.1953125 5.6540625 -37.1953125 6.6440625 -37.1953125 7.6640625 C-35.49375 6.6740625 -35.49375 6.6740625 -33.7578125 5.6640625 C-29.15542944 3.42353507 -25.24277855 2.38360876 -20.1953125 3.6640625 C-16.59822064 5.69151428 -13.3874715 8.0516902 -10.1953125 10.6640625 C-9.92460937 9.90867187 -9.65390625 9.15328125 -9.375 8.375 C-8.25535107 5.80203194 -7.26264782 4.27165347 -5.3203125 2.2890625 C-4.82789063 1.76570313 -4.33546875 1.24234375 -3.828125 0.703125 C-2.1953125 -0.3359375 -2.1953125 -0.3359375 0 0 Z " fill="#549CD4" transform="translate(173.1953125,52.3359375)"/>
<path d="M0 0 C4.27563279 0.47507031 6.16560497 2.95302534 9 6 C10.1446875 7.1446875 10.1446875 7.1446875 11.3125 8.3125 C11.869375 8.869375 12.42625 9.42625 13 10 C13.804375 9.071875 13.804375 9.071875 14.625 8.125 C18.68771764 4.48993685 23.34375649 3.40829344 28.78125 3.5546875 C34.69435635 4.74147293 39.54349929 8.47414212 43.625 12.75 C45.8275277 17.95597457 46.00093099 22.87409787 44.26953125 28.28125 C41.63615186 34.04243919 37.81233182 37.47523479 32 40 C26.04464368 40.84762003 21.19553789 39.96887879 16 37 C14.5625 34.8125 14.5625 34.8125 14 33 C13.01 33 12.02 33 11 33 C10.7525 33.721875 10.505 34.44375 10.25 35.1875 C8.2027298 39.79385795 5.77375186 43.12459748 1 45 C0.34 43.35 -0.32 41.7 -1 40 C-0.2575 39.34 0.485 38.68 1.25 38 C5.9747191 33.18105573 8.22784482 28.27572541 8.5 21.5 C8.28983244 16.27479965 7.11288849 12.22676552 4 8 C1.43190172 5.5404226 1.43190172 5.5404226 -1 4 C-0.67 2.68 -0.34 1.36 0 0 Z " fill="#559CD4" transform="translate(199,52)"/>
<path d="M0 0 C1.93359375 1.375 1.93359375 1.375 4.87109375 3.875 C4.87109375 2.555 4.87109375 1.235 4.87109375 -0.125 C7.51109375 -0.125 10.15109375 -0.125 12.87109375 -0.125 C12.87109375 11.425 12.87109375 22.975 12.87109375 34.875 C9.90109375 34.875 6.93109375 34.875 3.87109375 34.875 C3.54109375 34.215 3.21109375 33.555 2.87109375 32.875 C2.08734375 33.205 1.30359375 33.535 0.49609375 33.875 C-5.44155584 35.5129723 -10.78671455 35.97980741 -16.44140625 33.3125 C-17.32828125 32.508125 -18.21515625 31.70375 -19.12890625 30.875 C-19.61488281 30.43542969 -20.10085937 29.99585937 -20.6015625 29.54296875 C-24.92799199 24.78269118 -24.91344428 19.47127087 -24.67578125 13.265625 C-23.86103262 8.21418352 -22.01984065 5.1547478 -18.12890625 1.875 C-12.67924305 -1.41536269 -5.89677442 -3.11609364 0 0 Z " fill="#589ED5" transform="translate(64.12890625,57.125)"/>
<path d="M0 0 C2.97 0 5.94 0 9 0 C9.33 8.25 9.66 16.5 10 25 C11.258125 23.185 12.51625 21.37 13.8125 19.5 C18.0523499 14.22719304 18.0523499 14.22719304 22.046875 13.26953125 C24.77405892 13.30839009 27.31996187 13.50406771 30 14 C26.19695186 19.19210472 22.23841458 24.15609762 18 29 C19.25754761 33.61100792 21.83139153 35.96515825 25.1796875 39.15234375 C27.85107736 41.86386178 29.87658445 44.84704963 32 48 C28.06405533 48.89072636 24.91578951 49.06313204 21 48 C16.54960378 44.45244499 13.27052012 39.60529719 10 35 C9.67 39.29 9.34 43.58 9 48 C6.03 48 3.06 48 0 48 C0 32.16 0 16.32 0 0 Z " fill="#559CD4" transform="translate(94,43)"/>
<path d="M0 0 C2.64 0 5.28 0 8 0 C8 2.97 8 5.94 8 9 C11.3 9 14.6 9 18 9 C18 11.64 18 14.28 18 17 C15.03 17 12.06 17 9 17 C9.33 22.61 9.66 28.22 10 34 C11.65 34.33 13.3 34.66 15 35 C16.485 35.495 16.485 35.495 18 36 C18.33 37.98 18.66 39.96 19 42 C15.04352612 43.97823694 10.3017582 43.56487734 6 43 C2.58688333 40.47429367 1.33362232 39.00086696 0 35 C-0.08021999 33.59175107 -0.10765977 32.18002769 -0.09765625 30.76953125 C-0.09282227 29.56586914 -0.09282227 29.56586914 -0.08789062 28.33789062 C-0.07951172 27.50451172 -0.07113281 26.67113281 -0.0625 25.8125 C-0.05798828 24.96751953 -0.05347656 24.12253906 -0.04882812 23.25195312 C-0.03705403 21.16793845 -0.0191189 19.08396023 0 17 C-1.98 17 -3.96 17 -6 17 C-6 14.36 -6 11.72 -6 9 C-4.02 9 -2.04 9 0 9 C0 6.03 0 3.06 0 0 Z " fill="#579DD4" transform="translate(21,48)"/>
<path d="M0 0 C2.97 0 5.94 0 9 0 C9 15.84 9 31.68 9 48 C6.03 48 3.06 48 0 48 C0 32.16 0 16.32 0 0 Z " fill="#5A9FD5" transform="translate(81,43)"/>
<path d="M0 0 C2.64 0 5.28 0 8 0 C8 15.84 8 31.68 8 48 C5.36 48 2.72 48 0 48 C0 32.16 0 16.32 0 0 Z " fill="#4D97D0" transform="translate(247,43)"/>
<path d="M0 0 C3.49923295 0.03343216 4.64698122 0.25025949 7.75 2.125 C10.35565434 4.97493444 10.70828582 6.86198686 11.0625 10.6875 C10.69638946 14.93438232 9.72193191 16.34056809 6.75 19.3125 C2.99952518 21.81281654 1.19143734 21.84853554 -3.25 21.3125 C-7.19505706 18.06878641 -10.01775135 15.10413241 -10.6875 9.9375 C-10.14243629 5.42125786 -8.68322884 4.15956782 -5.25 1.3125 C-3.69014791 -0.24735209 -2.16093902 0.06797656 0 0 Z " fill="#529AD4" transform="translate(186.25,63.6875)"/>
<path d="M0 0 C3.87832274 0.92233016 5.42507928 2.38197014 8.00390625 5.4765625 C8.99129613 9.52404499 8.40386932 12.60045293 6.69140625 16.3515625 C5.00390625 18.4765625 5.00390625 18.4765625 2.00390625 20.4765625 C-2.78446417 21.01718497 -4.89075741 21.16739771 -8.99609375 18.6015625 C-11.80599274 14.21109533 -12.01128035 10.55249549 -10.99609375 5.4765625 C-8.13408863 1.0046795 -5.39306385 -0.38887367 0 0 Z " fill="#F7FAFC" transform="translate(59.99609375,63.5234375)"/>
<path d="M0 0 C0 0.66 0 1.32 0 2 C0.639375 2.28875 1.27875 2.5775 1.9375 2.875 C4 4 4 4 5 6 C5.06950541 7.54023996 5.08452357 9.08334988 5.0625 10.625 C5.05347656 11.44226563 5.04445312 12.25953125 5.03515625 13.1015625 C5.02355469 13.72804688 5.01195312 14.35453125 5 15 C4.34 15 3.68 15 3 15 C2.690625 15.639375 2.38125 16.27875 2.0625 16.9375 C1 19 1 19 0 20 C-3.00349696 20.35040798 -5.09241298 20.56293508 -8 20 C-11.0874681 17.42710991 -12.58386894 15.88916134 -13.44140625 11.99609375 C-13.65854308 8.30476763 -13.10708037 6.16775924 -11.125 3.0625 C-7.48803661 -0.46749388 -4.96387034 -0.09192352 0 0 Z " fill="#F4F8FC" transform="translate(230,64)"/>
<path d="M0 0 C3.70718433 0.81785983 5.13329673 2.33819937 7.16015625 5.4765625 C7.85352718 8.3188103 7.85352718 10.6343147 7.16015625 13.4765625 C5.13329673 16.61492563 3.70718433 18.13526517 0 18.953125 C-4.19478356 19.21923815 -6.33149918 18.80854263 -9.90234375 16.4765625 C-12.04751037 13.15501419 -12.59937305 11.29788231 -12.3125 7.4140625 C-10.74731731 0.998107 -5.87069709 -0.37243154 0 0 Z " fill="#F5F9FC" transform="translate(148.83984375,64.5234375)"/>
<path d="M0 0 C1.13199353 0.9080162 2.25532363 1.82683826 3.375 2.75 C4.00148437 3.26046875 4.62796875 3.7709375 5.2734375 4.296875 C8.83553212 7.81061539 9.31244307 10.95802525 9.375 15.875 C9.27992395 21.08516768 8.64060053 24.06421564 5 28 C2.25 30.375 2.25 30.375 0 32 C-0.66 31.34 -1.32 30.68 -2 30 C-1.78749738 27.0249633 -0.77334321 25.70465933 1.0625 23.3125 C3.52990578 19.09403206 4.04838925 15.78649846 3 11 C1.53253626 8.76925814 -0.1970227 6.98789805 -2 5 C-1.8726702 2.64439872 -1.65621618 1.65621618 0 0 Z " fill="#5A9FD6" transform="translate(196,58)"/>
<path d="M0 0 C-0.39764535 3.37998545 -1.04411891 5.06149908 -3.0625 7.875 C-5.4141433 11.66797307 -5.54933404 13.60532766 -5 18 C-3.64184747 21.27191292 -2.50104494 23.49895506 0 26 C-0.375 28.625 -0.375 28.625 -1 31 C-5.46552147 29.08620508 -8.22282571 26.70978343 -10.25 22.25 C-11.8384708 15.36662654 -11.42431184 10.91258903 -8.16796875 4.76171875 C-5.60155981 0.89064707 -4.89304267 0 0 0 Z " fill="#5A9FD6" transform="translate(179,59)"/>
<path d="M0 0 C0.33 0.99 0.66 1.98 1 3 C1.66 3.66 2.32 4.32 3 5 C2.2575 5.33 1.515 5.66 0.75 6 C-3.43555012 9.04403645 -5.47797634 12.94906171 -6.3515625 18.0546875 C-6.56264542 22.98635198 -5.40608317 26.74925307 -3 31 C-1.103483 32.91099423 0.816639 34.3988686 3 36 C1.68 36.66 0.36 37.32 -1 38 C-6.52082637 32.18394227 -9.91153244 27.84101584 -10.375 19.625 C-10.15499314 11.4297446 -5.39969184 5.7596713 0 0 Z " fill="#EBF3F9" transform="translate(175,54)"/>
<path d="M0 0 C3.83424653 0.5477495 5.53869759 2.06231647 8 5 C11.65246768 10.34825625 11.91271904 15.73773323 11 22 C7.95796324 30.84846407 7.95796324 30.84846407 3.828125 33.27734375 C3.22484375 33.51582031 2.6215625 33.75429687 2 34 C1.34 33.34 0.68 32.68 0 32 C0.78375 31.2575 1.5675 30.515 2.375 29.75 C7.21262167 24.68201539 7.43288633 20.78074461 7.32421875 13.91796875 C6.79382567 9.14443105 4.5374261 6.5374261 1.25 3.25 C0.8375 2.8375 0.425 2.425 0 2 C0 1.34 0 0.68 0 0 Z " fill="#E5F0F8" transform="translate(197,57)"/>
<path d="M0 0 C0.33 0.99 0.66 1.98 1 3 C1.66 3.33 2.32 3.66 3 4 C2.175 4.680625 1.35 5.36125 0.5 6.0625 C-2.2639056 8.80013542 -2.2639056 8.80013542 -2.5625 12.375 C-2.0432549 15.72124623 -1.61753951 16.86840308 0.125 19.5625 C2 23 2 23 1.25 26.4375 C0.63125 27.7059375 0.63125 27.7059375 0 29 C-1 27 -1 27 -1.375 25.1875 C-2.15190345 22.46833793 -3.49500592 20.38290729 -5 18 C-6.5547669 14.89046621 -6.28644437 12.43733239 -6 9 C-4.125 5.75 -4.125 5.75 -2 3 C-1.34 2.01 -0.68 1.02 0 0 Z " fill="#DAE9F5" transform="translate(179,61)"/>
<path d="M0 0 C0.33 0.99 0.66 1.98 1 3 C1.66 3.66 2.32 4.32 3 5 C2.2575 5.33 1.515 5.66 0.75 6 C-2.95225411 8.69254844 -4.24089915 11.86267342 -6 16 C-6.99 16 -7.98 16 -9 16 C-9 18.64 -9 21.28 -9 24 C-9.33 24 -9.66 24 -10 24 C-10.64728913 16.23253042 -9.1952474 11.09926861 -4.3984375 4.9453125 C-2.96865053 3.25802836 -1.51241229 1.61323978 0 0 Z " fill="#D8E8F4" transform="translate(175,54)"/>
<path d="M0 0 C7.2244898 10.83673469 7.2244898 10.83673469 6.3125 15.5625 C5.879375 16.366875 5.44625 17.17125 5 18 C4 16 4 16 3.625 14.1875 C3.08449643 11.86692693 3.08449643 11.86692693 1.4375 9.6875 C-0.37409028 6.30061383 -0.22262474 3.78462062 0 0 Z " fill="#E4EFF7" transform="translate(174,72)"/>
<path d="M0 0 C2.25 -0.3125 2.25 -0.3125 5 0 C7.65192512 2.22188321 8.87900431 3.85150125 9.24609375 7.3359375 C9.2496204 9.57183586 9.17478907 11.77143936 9 14 C5.64775599 11.76517066 5.5140906 11.23857841 4.5 7.5625 C3.56614019 4.18837558 2.66858759 2.30536317 0 0 Z " fill="#DCEAF5" transform="translate(191,64)"/>
<path d="M0 0 C0.33 0.66 0.66 1.32 1 2 C1.66 2.33 2.32 2.66 3 3 C1.35 5.31 -0.3 7.62 -2 10 C-3.32 9.34 -4.64 8.68 -6 8 C-5.195625 7.236875 -4.39125 6.47375 -3.5625 5.6875 C-0.83200976 3.20569102 -0.83200976 3.20569102 0 0 Z " fill="#DCEAF5" transform="translate(203,81)"/>
<path d="M0 0 C0.33 0 0.66 0 1 0 C1.63019694 9.17286652 1.63019694 9.17286652 -1 12.625 C-1.66 13.07875 -2.32 13.5325 -3 14 C-3.66 13.34 -4.32 12.68 -5 12 C-4.360625 11.13375 -3.72125 10.2675 -3.0625 9.375 C-1.02451704 6.0401188 -0.36566907 3.83952522 0 0 Z " fill="#EEF5FA" transform="translate(198,70)"/>
</svg>
