<svg id="Layer_1" data-name="Layer 1" xmlns="http://www.w3.org/2000/svg" viewBox="0 0 638 197.32"><defs><style>.cls-1{fill:#ff6601;}.cls-2{fill:#8cb517;}</style></defs><title>Ufone logo vector</title><path class="cls-1" d="M341.49,475.29a168.4,168.4,0,0,1,5.43-24.42,95.44,95.44,0,0,1,11.1-23,62.72,62.72,0,0,1,18.87-19.36q11.07-7.2,26.65-7.19a97.36,97.36,0,0,1,14,1.27,55.08,55.08,0,0,0-.87,8.26c-.23,3.76-.3,6.5-.3,8.23v5.48l-.31,11.56-3.8,1.31c-4.67-2.13-9.07-3.87-13.28-5.34A39.79,39.79,0,0,0,386.57,430a98,98,0,0,0-9.84.39,9.36,9.36,0,0,0-5.25,2.1c-1.26,1.14-2.33,2.14-3.22,3a4.54,4.54,0,0,0-1.32,3.39c0,2.46.77,5.75,2.32,9.95s5,12.38,10.6,24.6v1.81l1,13.32v73.31l1.28,36.74h-43a127.27,127.27,0,0,0,1-13.39c.14-5.5.22-10.6.22-15.27l1-55.82V488.61Z" transform="translate(-181 -401.34)"/><path class="cls-1" d="M508.88,469S405.27,405.41,278.2,541.24l.67,31.81S377.41,420,508.88,469Z" transform="translate(-181 -401.34)"/><path class="cls-1" d="M394,552.34A81.77,81.77,0,0,1,388.12,524a56.56,56.56,0,0,1,5.77-25.88c4-8.21,10.18-15.55,18.49-22.1a80.83,80.83,0,0,1,26.17-14,108.26,108.26,0,0,1,31-4.7q16.14-.22,28.5,5.72a68.89,68.89,0,0,1,21.82,16.52,76.43,76.43,0,0,1,14.32,23.39q11.67,30.33-.24,55.19t-45.28,35.09q-32.28,9.94-57.94-1T394,552.34Zm36.45-34.13,6.42,20.06A127,127,0,0,0,456,572.55c7.68,9.54,17,12.64,28,9.24,7.34-2.23,11.87-6.28,13.66-12.06a43.16,43.16,0,0,0,1.74-17.89,133.88,133.88,0,0,0-4.24-21.21c-2.18-7.9-4.15-14.14-5.84-18.63-.79-2.07-1.81-4.36-3.06-6.92s-2.23-4.39-2.9-5.75a54,54,0,0,0-15.3-21.56c-7-6-14.85-7.77-23.62-5.09s-14.16,8.63-15.69,17.59A64.35,64.35,0,0,0,430.42,518.21Z" transform="translate(-181 -401.34)"/><path class="cls-1" d="M543.41,461.29l22.78-1.61,20,2.51-.92,19.95a75.83,75.83,0,0,1,21.17-17.32,52.68,52.68,0,0,1,25.47-6.37q22.41,0,33.88,11.27c7.7,7.51,12,14.17,13.07,19.95s1.51,13.85,1.51,24.31V593.1H635l1.41-14.29,1.71-31.75V526.52c0-13.9-1.26-24.72-3.84-32.58s-9.74-11.8-21.52-11.8q-18.52,0-22.7,13.44t-4.18,35.88l1.75,61.64H543.41c0-2.4.11-4.76.25-7.17s.31-4.77.47-7.18V544.37l1-31.42V502.1l-1.75-35.22Z" transform="translate(-181 -401.34)"/><path class="cls-1" d="M730.47,527.66l1.24,15.65c0,4,1.49,8.87,4.58,14.42a40.29,40.29,0,0,0,10.37,12.79,35.33,35.33,0,0,0,12.26,6.3,53.54,53.54,0,0,0,14.92,1.93,54.38,54.38,0,0,0,18.71-3.34,67.31,67.31,0,0,0,17.25-9.13l3.69,2.49-6.81,15.37a80.61,80.61,0,0,1-43.93,12.38q-19.68,0-33.5-4.4a61.73,61.73,0,0,1-24.79-15.21A57.87,57.87,0,0,1,689.55,553a98.69,98.69,0,0,1-4-28.67q0-29.43,18.91-47.93C717.12,464,734.23,457.81,756,457.81q33.82,0,48.43,18.72T819,527.66Zm47.75-13.13a13.9,13.9,0,0,1-.31-3.25v-3a73.94,73.94,0,0,0-4.69-25.89q-4.62-12.66-16.68-12.68c-9.88,0-16.73,4.8-20.47,14.34a82.82,82.82,0,0,0-5.52,30.52Z" transform="translate(-181 -401.34)"/><path class="cls-2" d="M275.77,572.85c-8.17,8.11-15.31,13.91-21.42,17.47s-14.24,5.25-24.43,5.25a66,66,0,0,1-23.4-4c-7.05-2.66-12.49-6.4-16.37-11.27a36.59,36.59,0,0,1-7.44-15.94,91,91,0,0,1-1.71-18V461.29l24.49-1.61h20.78q-1.86,16-2.51,36.36c-.39,13.53-.62,26.59-.62,39.07,0,5.95.15,10.59.49,13.84a22.57,22.57,0,0,0,2.91,9.36A24.47,24.47,0,0,0,235,569c3.61,2.55,8,3.82,13.38,3.82,12.1,0,19.54-4.68,22.41-14.05S275,537.6,275,523.29l-1.71-62,21.95-1.61h21.94c0,3.61-.23,9.68-.69,18.3s-.72,13.2-.72,13.79v58.94l1.41,36.75v5.64H275Z" transform="translate(-181 -401.34)"/></svg>